<svg fill="none" height="512" viewBox="0 0 24 24" width="512" xmlns="http://www.w3.org/2000/svg"><path clip-rule="evenodd" d="m3 11.9995c0-1.1819.23279-2.35214.68508-3.44402.4523-1.09187 1.11523-2.08398 1.95096-2.91967.83573-.83568 1.82788-1.49859 2.91981-1.95086s2.26225-.68505 3.44415-.68505 2.3522.23278 3.4442.68505c1.0919.45227 2.084 1.11518 2.9198 1.95086.8357.83569 1.4986 1.8278 1.9509 2.91967.4523 1.09188.6851 2.26212.6851 3.44402 0 2.3868-.9482 4.6759-2.636 6.3636-1.6879 1.6878-3.9771 2.6359-6.364 2.6359-2.38695 0-4.67613-.9481-6.36396-2.6359-1.68783-1.6877-2.63604-3.9768-2.63604-6.3636zm9-10.9995c-6.075 0-11 4.92476-11 10.9995 0 6.0747 4.925 10.9994 11 10.9994s11-4.9247 11-10.9994c0-6.07474-4.925-10.9995-11-10.9995zm-2.828 6.75667c-.18764-.18763-.44214-.29304-.7075-.29304s-.51986.10541-.7075.29304-.29306.44212-.29306.70747c0 .13139.02588.26149.07617.38288.05028.12138.12398.23168.21689.32458l2.829 2.8279-2.829 2.8278c-.18764.1877-.29306.4421-.29306.7075 0 .2653.10542.5198.29306.7075.18764.1876.44214.293.7075.293s.51986-.1054.7075-.293l2.828-2.8289 2.829 2.8289c.0929.0928.2032.1664.3246.2167.1213.0502.2514.076.3828.076.1313-.0001.2614-.026.3827-.0763s.2316-.124.3244-.2169.1665-.2032.2167-.3246c.0502-.1213.0761-.2514.076-.3828 0-.1313-.026-.2613-.0763-.3827-.0503-.1213-.124-.2315-.2169-.3244l-2.829-2.8278 2.829-2.8279c.1876-.18749.2931-.44185.2932-.70711s-.1052-.51969-.2927-.70732-.4419-.29309-.7071-.29319c-.2653-.00009-.5198.10519-.7074.29269l-2.829 2.82883z" fill-rule="evenodd"/></svg>