<svg height="512pt" viewBox="0 -107 512 512" width="512pt" xmlns="http://www.w3.org/2000/svg"><path d="m149.332031 298.667969c-82.34375 0-149.332031-67.007813-149.332031-149.335938 0-82.324219 66.988281-149.332031 149.332031-149.332031 82.347657 0 149.335938 67.007812 149.335938 149.332031 0 82.328125-66.988281 149.335938-149.335938 149.335938zm0-266.667969c-64.703125 0-117.332031 52.652344-117.332031 117.332031 0 64.683594 52.628906 117.335938 117.332031 117.335938 64.707031 0 117.335938-52.652344 117.335938-117.335938 0-64.679687-52.628907-117.332031-117.335938-117.332031zm0 0"/><path d="m149.332031 213.332031c-35.285156 0-64-28.714843-64-64 0-35.285156 28.714844-64 64-64 35.285157 0 64 28.714844 64 64 0 35.285157-28.714843 64-64 64zm0-96c-17.640625 0-32 14.359375-32 32 0 17.644531 14.359375 32 32 32 17.644531 0 32-14.355469 32-32 0-17.640625-14.355469-32-32-32zm0 0"/><path d="m426.667969 234.667969h-163.628907c-8.832031 0-16-7.167969-16-16s7.167969-16 16-16h163.628907c29.394531 0 53.332031-23.914063 53.332031-53.335938 0-29.417969-23.9375-53.332031-53.332031-53.332031h-163.628907c-8.832031 0-16-7.167969-16-16s7.167969-16 16-16h163.628907c47.058593 0 85.332031 38.273438 85.332031 85.332031 0 47.0625-38.273438 85.335938-85.332031 85.335938zm0 0"/></svg>