<svg clip-rule="evenodd" fill-rule="evenodd" height="512" stroke-linejoin="round" stroke-miterlimit="2" viewBox="0 0 24 24" width="512" xmlns="http://www.w3.org/2000/svg"><g id="Icon"><path d="m22.257 15.989c.196-.421.217-.902.059-1.339-.159-.436-.485-.791-.905-.987-.642-.299-1.5-.7-2.143-.999-.42-.196-.901-.217-1.338-.058-.436.158-.791.484-.987.905-.624 1.338-1.763 3.781-2.183 4.681-.181.388-.213.83-.091 1.24.248.829.831 2.783.831 2.783.062.205.208.374.402.465.194.09.418.093.614.008 0 0 1.872-.808 2.666-1.151.394-.17.711-.479.892-.867zm-1.359-.634-2.183 4.681c-.026.055-.071.1-.128.124l-1.891.817s-.59-1.974-.59-1.974c-.017-.059-.012-.122.013-.177l2.183-4.682c.028-.06.079-.106.141-.129.063-.023.131-.02.192.009l2.142.998c.06.028.106.079.129.141.023.063.02.132-.008.192z"/><path d="m13.5 20.75h-10.55c-.053 0-.104-.021-.141-.059-.038-.037-.059-.088-.059-.141v-1.45c0-.831.593-1.562 1.507-2.185 1.632-1.113 4.273-1.815 7.243-1.815.83 0 1.634.055 2.399.16.41.055.788-.232.844-.642s-.232-.789-.642-.845c-.829-.113-1.701-.173-2.601-.173-3.322 0-6.263.831-8.089 2.076-1.393.95-2.161 2.157-2.161 3.424v1.45c0 .451.179.883.498 1.202s.751.498 1.202.498h10.55c.414 0 .75-.336.75-.75s-.336-.75-.75-.75z"/><path d="m11.5 1.737c-3.036 0-5.5 2.465-5.5 5.5 0 3.036 2.464 5.5 5.5 5.5s5.5-2.464 5.5-5.5c0-3.035-2.464-5.5-5.5-5.5zm0 1.5c2.208 0 4 1.793 4 4 0 2.208-1.792 4-4 4s-4-1.792-4-4c0-2.207 1.792-4 4-4z"/></g></svg>