<?xml version="1.0" encoding="iso-8859-1"?>
<!-- Generator: Adobe Illustrator 19.0.0, SVG Export Plug-In . SVG Version: 6.00 Build 0)  -->
<svg version="1.1" id="Capa_1" xmlns="http://www.w3.org/2000/svg" xmlns:xlink="http://www.w3.org/1999/xlink" x="0px" y="0px"
	 viewBox="0 0 512 512" style="enable-background:new 0 0 512 512;" xml:space="preserve">
<g>
	<g>
		<path d="M256,0C114.664,0,0,115.612,0,256c0,140.959,115.049,256,256,256c140.96,0,256-115.049,256-256
			C512,115.04,396.951,0,256,0z M256,30c24.968,0,49,4.079,71.474,11.59c-4.212,6.221-6.846,14.445-6.846,25.056
			c0,16.203,7.242,30.686,14.245,44.693c5.697,11.394,11.078,22.156,11.078,31.277c0,5.274-1.255,6.489-5.57,7.928
			c-8.237,2.746-23.532,2.421-34.003,2.387c-24.718-0.083-52.751-0.173-82.65,29.725c-4.129,4.131-6.365,4.342-20.669-2.81
			c-13.087-6.544-34.994-17.496-55.299,2.81c-11.877,11.877-16.568,28.603-13.284,45.566c-14.677-5.698-34.972-8.336-37.455-14.634
			c-1.149-2.913-2.943-15.593,22.207-56.423c9.327-15.143,20.532-37.33,10.194-55.103c-5.014-8.62-13.414-13.208-22.689-15.599
			C146.574,51.343,198.838,30,256,30z M256,482C131.383,482,30,380.617,30,256c0-53.708,18.844-103.091,50.251-141.911
			c17.288-0.148,21.957,1.955,23.206,3.073c0.16,0.983,0.617,7.403-9.773,24.27c-24.516,39.801-31.864,64.672-24.572,83.163
			c9.85,24.978,40.77,25.015,57.557,32.894c10.157,4.767,61.419,28.38,67.343,37.179v25.212c0,18.795,17.746,28.946,32.005,37.103
			c5.777,3.304,17.798,10.181,18.641,13.544c0,59.838,5.76,92.78,13.185,111.451C257.228,481.982,256.616,482,256,482z
			 M295.02,465.781c0.094,3.019-3.058,9.164-5.778,11.912c-3.826-5.306-14.583-27.335-14.583-107.167
			c0-20.282-18.71-30.985-33.745-39.584c-5.292-3.027-15.099-8.58-17.001-11.642v-24.743c0-4.04-0.652-7.646-1.948-10.889
			c24.928-2.291,37.073-11.073,46.283-17.733c6.467-4.677,9.713-7.024,16.734-7.024c0.202,0,0.305,0.014,0.303,0.012
			c1.577,0.772,4.93,6.377,6.935,9.729c17.009,28.421,33.601,38.577,66.132,45.702c4.361,0.955,10.847,2.376,12.771,3.657
			c0.065,0.306,0.152,0.896,0.152,1.868c0,30.954-23.826,53.379-44.848,73.164c-16.856,15.865-31.414,29.567-31.414,46.952
			C295.012,442.424,294.98,464.458,295.02,465.781z M324.561,471.357c0.343-2.17,0.404-4.312,0.348-6.383
			c-0.022-2.032,0.004-24.826,0.004-24.975c0.001-0.021,0.226-2.186,4.776-7.691c4.233-5.123,10.58-11.096,17.3-17.421
			c22.91-21.563,54.286-51.094,54.286-95.01c0-15.037-7.585-23.037-13.948-27.1c-6.652-4.247-14.377-5.939-22.557-7.731
			c-24.296-5.322-34.082-10.531-46.805-31.797c-6.145-10.273-14.561-24.342-32.983-24.342c-16.731,0-26.48,7.05-34.313,12.714
			c-8.967,6.485-17.438,12.609-41.656,12.609c-24.055,0-38.364-13.938-43.308-25.873c-1.869-4.512-5.292-15.93,3.268-24.49
			c4.131-4.13,6.366-4.342,20.67,2.81c13.087,6.544,34.993,17.497,55.299-2.81c21.071-21.071,38.846-21.012,61.339-20.939
			c14.395,0.046,30.781,0.343,43.587-3.927c16.82-5.607,26.084-18.53,26.084-36.388c0-16.203-7.242-30.686-14.245-44.693
			c-5.697-11.394-11.078-22.156-11.078-31.277c0-7.038,1.529-10.976,9.293-11.292C432.387,93.039,482,168.831,482,256
			C482,356.724,415.761,442.257,324.561,471.357z"/>
	</g>
</g>
<g>
</g>
<g>
</g>
<g>
</g>
<g>
</g>
<g>
</g>
<g>
</g>
<g>
</g>
<g>
</g>
<g>
</g>
<g>
</g>
<g>
</g>
<g>
</g>
<g>
</g>
<g>
</g>
<g>
</g>
</svg>
