<svg height="512pt" viewBox="0 0 512.00038 512" width="512pt" xmlns="http://www.w3.org/2000/svg"><path d="m506.140625 241.859375c-13.421875-13.421875-226.160156-226.160156-236-236-7.808594-7.8125-20.472656-7.8125-28.28125 0-10.761719 10.761719-222.800781 222.796875-236 236-7.8125 7.808594-7.8125 20.472656 0 28.285156 7.808594 7.808594 20.472656 7.808594 28.28125 0l5.191406-5.191406v227.046875c0 11.046875 8.957031 20 20 20h393.335938c11.042969 0 20-8.953125 20-20v-227.046875l5.1875 5.191406c7.8125 7.808594 20.476562 7.808594 28.285156 0 7.8125-7.8125 7.8125-20.476562 0-28.285156zm-191.472656 230.140625h-117.332031v-117.332031h117.332031zm118 0h-78v-137.332031c0-11.046875-8.953125-20-20-20h-157.332031c-11.046876 0-20 8.953125-20 20v137.332031h-78v-247.046875l176.664062-176.667969 176.667969 176.667969zm0 0"/></svg>