<svg enable-background="new 0 0 512 512" height="512" viewBox="0 0 512 512" width="512" xmlns="http://www.w3.org/2000/svg"><path d="m256 0c-141.162 0-256 114.838-256 256s114.838 256 256 256 256-114.837 256-256-114.837-256-256-256zm0 460.8c-112.925 0-204.8-91.875-204.8-204.8s91.875-204.8 204.8-204.8 204.8 91.875 204.8 204.8-91.875 204.8-204.8 204.8zm25.6-307.2c0 14.137-11.461 25.6-25.6 25.6s-25.6-11.462-25.6-25.6c0-14.139 11.461-25.6 25.6-25.6s25.6 11.461 25.6 25.6zm0 76.8v128c0 14.138-11.462 25.6-25.6 25.6-14.137 0-25.6-11.462-25.6-25.6v-128c0-14.137 11.463-25.6 25.6-25.6 14.138 0 25.6 11.462 25.6 25.6z"/></svg>