<svg id="Capa_1" enable-background="new 0 0 507.918 507.918" height="512" viewBox="0 0 507.918 507.918" width="512" xmlns="http://www.w3.org/2000/svg"><g><path d="m253.962 507.918c101.916.095 184.613-82.447 184.708-184.363.052-56.126-25.441-109.225-69.272-144.282v-63.836c0-63.755-51.682-115.437-115.436-115.437s-115.435 51.682-115.435 115.436v63.836c-79.59 63.658-92.505 179.784-28.847 259.374 35.057 43.831 88.156 69.324 144.282 69.272zm-69.261-392.482c0-38.252 31.009-69.262 69.262-69.262s69.262 31.009 69.262 69.262v36.686c-44.395-18.13-94.128-18.13-138.523 0v-36.686zm69.261 69.261c76.504 0 138.523 62.019 138.523 138.523s-62.019 138.523-138.523 138.523-138.523-62.018-138.523-138.523c.077-76.472 62.051-138.446 138.523-138.523z"/><path d="m230.875 339.912v52.57c0 12.751 10.336 23.087 23.087 23.087s23.087-10.337 23.087-23.087v-52.57c22.085-12.751 29.652-40.99 16.901-63.075s-40.99-29.652-63.075-16.901-29.652 40.991-16.901 63.075c4.053 7.02 9.882 12.849 16.901 16.901z"/></g></svg>