<svg id="Layer_1" enable-background="new 0 0 512.405 512.405" height="512" viewBox="0 0 512.405 512.405" width="512" xmlns="http://www.w3.org/2000/svg"><path d="m512.394 284.163c-.103-4.935-2.939-10.735-8.705-13.313l-111.822-51.589v-122.294c-.015-5.105-2.904-11.068-8.817-13.667l-120.706-54.604c-3.867-1.749-8.291-1.778-12.182-.082l-120.538 52.597c-4.772 2.143-9.048 7.141-9.001 13.748v124.187l-111.71 49.608c-4.692 2.137-8.977 7.15-8.912 13.709v133.901c0 5.927 3.489 11.298 8.905 13.706l120.538 53.603c2.443.344 3.349 2.901 12.183.003l114.572-50.879 114.407 50.876c2.443.344 3.349 2.901 12.183.003l120.705-53.603c5.419-2.407 8.912-7.779 8.912-13.709v-131.894c-.001-.103-.01-.204-.012-.307zm-376.734-38.87 85.045 37.819-85.164 41.671-85.076-41.657zm105.501-81.955v96.032l-90.538-40.29v-100.074zm120.706 55.771-50.593 22.467-40.113 17.813v-95.904l90.706-42.844zm-211.328 131.735 90.622-44.342v100.148l-90.622 40.243zm120.637-44.328 90.524 44.325v96.039l-90.461-40.228zm105.641 18.324-85.191-41.714 85.123-37.801 85.196 39.306zm-120.765-266.064 85.072 38.485-84.846 40.075-84.946-41.594zm-226.051 247.733 90.538 44.332v96.039l-90.538-40.262zm361.699 140.384v-95.905l90.705-42.844v98.468z"/></svg>