<?xml version="1.0" encoding="iso-8859-1"?>
<!-- Generator: Adobe Illustrator 19.0.0, SVG Export Plug-In . SVG Version: 6.00 Build 0)  -->
<svg version="1.1" id="Capa_1" xmlns="http://www.w3.org/2000/svg" xmlns:xlink="http://www.w3.org/1999/xlink" x="0px" y="0px"
	 viewBox="0 0 512 512" style="enable-background:new 0 0 512 512;" xml:space="preserve">
<g>
	<g>
		<path d="M288.802,223.18c-17.587-17.587-46.05-17.587-63.638,0c-17.546,17.546-17.546,46.094,0,63.639
			c17.588,17.588,46.051,17.587,63.638,0C306.348,269.274,306.348,240.726,288.802,223.18z M267.59,265.605
			c-5.862,5.862-15.35,5.863-21.213,0c-5.863-5.863-5.862-15.349,0-21.213c5.862-5.862,15.35-5.862,21.213,0
			C273.453,250.257,273.453,259.742,267.59,265.605z"/>
	</g>
</g>
<g>
	<g>
		<path d="M498.809,140.451c-17.585-17.586-46.051-17.59-63.638,0l-72.125,72.123l-63.639-63.639l72.123-72.123
			c17.587-17.586,17.59-46.051,0-63.639c-17.545-17.544-46.093-17.544-63.638,0L235.77,85.298l-10.607-10.607
			c-5.857-5.858-15.355-5.858-21.213,0l-60.653,60.653c-31.885,31.885-45.611,77.467-36.718,121.932
			c4.978,24.885-0.526,46.127-14.002,63.453l-32.698,42.04c-13.902,17.876-12.312,43.432,3.702,59.445l2.487,2.487L4.393,486.378
			c-5.858,5.858-5.858,15.355,0,21.213c5.857,5.858,15.356,5.858,21.213,0l61.676-61.676l2.487,2.487
			c16.02,16.02,41.574,17.601,59.445,3.702l42.041-32.698c16.826-13.087,37.999-18.9,63.453-13.801
			c44.228,8.844,89.852-4.84,121.931-36.919l60.653-60.653c5.858-5.858,5.858-15.355,0-21.213l-10.606-10.606l72.123-72.123
			C516.394,186.504,516.398,158.039,498.809,140.451z M329.107,34.387c5.849-5.849,15.364-5.848,21.213,0
			c5.849,5.849,5.849,15.365,0,21.214l-72.123,72.123l-21.213-21.213L329.107,34.387z M130.796,428.423
			c-5.96,4.635-14.479,4.103-19.815-1.234l-26.186-26.186c-5.338-5.338-5.868-13.857-1.234-19.816l28.993-37.276l55.52,55.519
			L130.796,428.423z M355.426,347.472c-24.878,24.879-60.329,35.615-94.833,28.715c-22.727-4.553-44.451-3.259-66.579,6.759
			l-64.949-64.949c10.062-22.056,11.508-43.729,6.933-66.604c-6.922-34.607,3.737-70.06,28.513-94.836l50.047-50.046
			l190.915,190.914L355.426,347.472z M477.596,182.876L405.473,255l-21.214-21.213l72.125-72.124c5.86-5.861,15.349-5.862,21.212,0
			C483.459,167.527,483.458,177.013,477.596,182.876z"/>
	</g>
</g>
<g>
</g>
<g>
</g>
<g>
</g>
<g>
</g>
<g>
</g>
<g>
</g>
<g>
</g>
<g>
</g>
<g>
</g>
<g>
</g>
<g>
</g>
<g>
</g>
<g>
</g>
<g>
</g>
<g>
</g>
</svg>
