<svg id="Layer_2" enable-background="new 0 0 32 32" height="512" viewBox="0 0 32 32" width="512" xmlns="http://www.w3.org/2000/svg"><g><path d="m16.20238 7.36033c-2.73876-.10018-5.04752 1.92602-5.29418 4.63454-.07277.79857.516 1.50452 1.31457 1.57729.78534.06237 1.50358-.51505 1.57729-1.31457.10585-1.16619 1.09815-2.05832 2.28419-1.99595 1.12556.04536 2.0914 1.03578 2.10936 2.16228.01323.78912-.38086 1.50547-1.05468 1.91846-1.62644.99419-2.59795 2.68111-2.59795 4.51262 0 .8014.6502 1.4516 1.4516 1.4516s1.4516-.6502 1.4516-1.4516c0-.8118.45174-1.57351 1.20967-2.03659 1.53666-.94033 2.4732-2.64331 2.44296-4.44269-.04348-2.65748-2.23884-4.9067-4.89443-5.01539z"/><circle cx="16" cy="23.452" r="1.652"/><path d="m16.00014 1.00014c-8.2711 0-14.99987 6.72877-14.99987 14.99986 0 2.41461.59255 4.8037 1.71716 6.94802l-1.66802 6.22411c-.1342.50088.00945 1.03578.37613 1.40246.27596.27596.64642.42527 1.02633.42527.12569 0 .25138-.01607.37613-.04914l6.22411-1.66802c2.14432 1.12461 4.53341 1.71716 6.94802 1.71716 8.2711 0 14.99987-6.72876 14.99987-14.99986s-6.72877-14.99986-14.99986-14.99986zm0 27.09652c-2.10841 0-4.19509-.56136-6.03321-1.62454-.22303-.12853-.47347-.19468-.72674-.19468-.12569 0-.25233.01607-.37613.04914l-4.35952 1.16903 1.16903-4.35952c.09923-.37235.04725-.76927-.14554-1.10287-1.0632-1.83813-1.62456-3.92481-1.62456-6.03322 0-6.67018 5.42649-12.09667 12.09667-12.09667s12.09666 5.42649 12.09666 12.09667-5.42649 12.09666-12.09666 12.09666z"/></g></svg>