<svg id="svg8" height="512" viewBox="0 0 20 20" width="512" xmlns="http://www.w3.org/2000/svg" xmlns:svg="http://www.w3.org/2000/svg"><g id="layer1" transform="translate(-2 -372.65)"><g id="g15244" stroke-linecap="round"><path id="path15240" d="m8.0058594 381.65039a1 1 0 0 0 -1 1 1 1 0 0 0 1 1h7.9882816a1 1 0 0 0 1-1 1 1 0 0 0 -1-1z"/><path id="circle15242" d="m12 372.65039c-5.5109974 0-10 4.489-10 10s4.4890026 10 10 10c5.510997 0 10-4.489 10-10s-4.489003-10-10-10zm0 2c4.430118 0 8 3.56988 8 8s-3.569882 8-8 8c-4.4301182 0-8-3.56988-8-8s3.5698818-8 8-8z" stroke-linejoin="round"/></g></g></svg>