<svg clip-rule="evenodd" fill-rule="evenodd" height="512" stroke-linejoin="round" stroke-miterlimit="2" viewBox="0 0 512 512" width="512" xmlns="http://www.w3.org/2000/svg" xmlns:serif="http://www.serif.com/"><g><path d="m119.086 320.183c18.225 29.543 43.183 54.502 72.731 72.731l-104.096 104.096c-20.083 20.083-52.644 20.083-72.727 0-.001-.002-.002-.003-.004-.004-20.083-20.083-20.083-52.644 0-72.727zm189.034-320.255c112.564 0 203.952 91.388 203.952 203.952s-91.388 203.951-203.952 203.951-203.951-91.387-203.951-203.951 91.387-203.952 203.951-203.952zm0 70.144c-73.85 0-133.807 59.957-133.807 133.808 0 73.85 59.957 133.807 133.807 133.807 73.851 0 133.808-59.957 133.808-133.807 0-73.851-59.957-133.808-133.808-133.808z"/></g></svg>