<?xml version="1.0" encoding="UTF-8" standalone="no"?>
<!-- Created with Inkscape (http://www.inkscape.org/) -->

<svg
   version="1.1"
   id="svg111"
   xml:space="preserve"
   width="682.66669"
   height="682.66669"
   viewBox="0 0 682.66669 682.66669"
   xmlns="http://www.w3.org/2000/svg"
   xmlns:svg="http://www.w3.org/2000/svg"><defs
     id="defs115"><clipPath
       clipPathUnits="userSpaceOnUse"
       id="clipPath125"><path
         d="M 0,512 H 512 V 0 H 0 Z"
         id="path123" /></clipPath></defs><g
     id="g117"
     transform="matrix(1.3333333,0,0,-1.3333333,0,682.66667)"><g
       id="g119"><g
         id="g121"
         clip-path="url(#clipPath125)"><g
           id="g127"
           transform="translate(304.2002,442.7187)"><path
             d="m 0,0 c 17.681,-4.563 34.383,-11.568 49.719,-20.638 0,0 7.389,7.391 15.688,15.69 6.026,6.032 14.203,9.415 22.727,9.415 8.514,0 16.693,-3.383 22.718,-9.415 7.31,-7.311 15.408,-15.408 22.718,-22.719 6.033,-6.025 9.415,-14.203 9.415,-22.718 0,-8.524 -3.382,-16.701 -9.415,-22.726 -8.299,-8.299 -15.689,-15.689 -15.689,-15.689 9.069,-15.336 16.074,-32.037 20.638,-49.719 h 22.147 c 17.746,0 32.134,-14.388 32.134,-32.133 v -32.134 c 0,-17.745 -14.388,-32.133 -32.134,-32.133 h -22.147 c -4.564,-17.681 -11.569,-34.383 -20.638,-49.718 0,0 7.39,-7.391 15.689,-15.689 6.033,-6.026 9.415,-14.203 9.415,-22.727 0,-8.515 -3.382,-16.693 -9.415,-22.718 -7.31,-7.31 -15.408,-15.408 -22.718,-22.718 -6.025,-6.033 -14.204,-9.415 -22.718,-9.415 -8.524,0 -16.701,3.382 -22.727,9.415 C 57.108,-360.19 49.719,-352.8 49.719,-352.8 34.383,-361.869 17.681,-368.875 0,-373.437 v -22.148 c 0,-17.746 -14.388,-32.134 -32.134,-32.134 h -32.133 c -17.746,0 -32.133,14.388 -32.133,32.134 v 22.148 c -17.681,4.562 -34.383,11.568 -49.719,20.637 0,0 -7.39,-7.39 -15.689,-15.689 -6.025,-6.033 -14.203,-9.415 -22.726,-9.415 -8.515,0 -16.694,3.382 -22.718,9.415 -7.31,7.31 -15.408,15.408 -22.719,22.718 -6.032,6.025 -9.415,14.203 -9.415,22.718 0,8.524 3.383,16.701 9.415,22.727 8.299,8.298 15.69,15.689 15.69,15.689 -9.07,15.335 -16.074,32.037 -20.638,49.718 h -22.147 c -17.746,0 -32.134,14.388 -32.134,32.133 v 32.134 c 0,17.745 14.388,32.133 32.134,32.133 h 22.147 c 4.564,17.682 11.568,34.383 20.638,49.719 0,0 -7.391,7.39 -15.69,15.689 -6.032,6.025 -9.415,14.202 -9.415,22.726 0,8.515 3.383,16.693 9.415,22.718 7.311,7.311 15.409,15.408 22.719,22.719 6.024,6.032 14.203,9.415 22.718,9.415 8.523,0 16.701,-3.383 22.726,-9.415 8.299,-8.299 15.689,-15.69 15.689,-15.69 15.336,9.07 32.038,16.075 49.719,20.638 v 22.148 c 0,17.746 14.387,32.133 32.133,32.133 h 32.133 C -14.388,54.281 0,39.894 0,22.148 Z"
             style="fill:none;stroke:#000000;stroke-width:30;stroke-linecap:round;stroke-linejoin:round;stroke-miterlimit:10;stroke-dasharray:none;stroke-opacity:1"
             id="path129" /></g><g
           id="g131"
           transform="translate(256,352.3999)"><path
             d="m 0,0 c 53.205,0 96.4,-43.195 96.4,-96.4 0,-53.204 -43.195,-96.4 -96.4,-96.4 -53.205,0 -96.4,43.196 -96.4,96.4 C -96.4,-43.195 -53.205,0 0,0 Z"
             style="fill:none;stroke:#000000;stroke-width:30;stroke-linecap:round;stroke-linejoin:round;stroke-miterlimit:10;stroke-dasharray:none;stroke-opacity:1"
             id="path133" /></g></g></g></g></svg>
