<svg viewBox="0 0 512 512" xmlns="http://www.w3.org/2000/svg"><path d="m202.214844 512 60-60h151l98.785156-98.785156v-353.214844h-443.214844l-68.785156 68.785156v383.214844h120v60zm-172.214844-90v-340.785156l51.214844-51.214844h400.785156v310.785156l-81.214844 81.214844h-151l-60 60h-39.785156v-60zm0 0"/><path d="m181 443.214844 81.214844-81.214844h121l68.785156-68.785156v-233.214844h-362v302h91zm-61-111.214844v-242h302v190.785156l-51.214844 51.214844h-121l-38.785156 38.785156v-38.785156zm0 0"/><path d="m241 165h30v92h-30zm0 0"/><path d="m332 165h30v92h-30zm0 0"/></svg>