<svg id="Capa_1" enable-background="new 0 0 507.913 507.913" height="512" viewBox="0 0 507.913 507.913" width="512" xmlns="http://www.w3.org/2000/svg"><g><path d="m254.123 507.913c101.916.095 184.613-82.447 184.708-184.363.052-56.126-25.441-109.225-69.272-144.282v-63.836c-.003-63.755-51.687-115.435-115.441-115.432-41.237.002-79.342 22.001-99.962 57.713-6.84 10.76-3.663 25.029 7.098 31.869 10.76 6.84 25.029 3.663 31.869-7.098.348-.548.673-1.11.974-1.684 19.083-33.152 61.428-44.557 94.58-25.473 21.497 12.374 34.735 35.3 34.708 60.104v36.686c-94.496-38.415-202.241 7.047-240.656 101.542s7.046 202.241 101.542 240.656c22.182 9.018 45.907 13.636 69.852 13.598zm0-323.221c76.504 0 138.523 62.019 138.523 138.523s-62.019 138.523-138.523 138.523-138.523-62.018-138.523-138.523c.077-76.472 62.051-138.446 138.523-138.523z"/><path d="m231.036 339.907v52.57c0 12.751 10.336 23.087 23.087 23.087s23.087-10.336 23.087-23.087v-52.57c22.085-12.751 29.652-40.991 16.901-63.075-12.751-22.085-40.991-29.652-63.075-16.901s-29.652 40.99-16.901 63.075c4.053 7.02 9.882 12.849 16.901 16.901z"/></g></svg>