<svg height="512" viewBox="0 0 28 28" width="512" xmlns="http://www.w3.org/2000/svg"><g id="Layer_2" data-name="Layer 2"><path d="m14 13a6 6 0 1 0 -6-6 6.006 6.006 0 0 0 6 6zm0-10a4 4 0 1 1 -4 4 4 4 0 0 1 4-4z"/><path d="m16.883 15h-5.766a7.126 7.126 0 0 0 -7.117 7.118 4.887 4.887 0 0 0 4.882 4.882h10.235a4.888 4.888 0 0 0 4.883-4.883 7.125 7.125 0 0 0 -7.117-7.117zm2.234 10h-10.235a2.886 2.886 0 0 1 -2.882-2.883 5.122 5.122 0 0 1 5.117-5.117h5.766a5.124 5.124 0 0 1 5.117 5.118 2.886 2.886 0 0 1 -2.883 2.882z"/></g></svg>