<svg id="Capa_1" enable-background="new 0 0 512 512" height="512" viewBox="0 0 512 512" width="512" xmlns="http://www.w3.org/2000/svg"><g><g><path d="m256 395.56c-76.953 0-139.56-62.606-139.56-139.56s62.607-139.56 139.56-139.56 139.56 62.606 139.56 139.56-62.607 139.56-139.56 139.56zm0-249.12c-60.411 0-109.56 49.148-109.56 109.56s49.149 109.56 109.56 109.56 109.56-49.149 109.56-109.56-49.149-109.56-109.56-109.56z"/></g><g><path d="m240.315 310.209-44.178-44.179 21.213-21.213 22.965 22.966 55.387-55.386 21.213 21.214z"/></g><g><path d="m297.399 512h-82.799l-14.854-51.137c-17.027-4.678-33.365-11.468-48.761-20.265l-46.731 25.695-58.548-58.548 25.694-46.732c-8.797-15.396-15.587-31.734-20.265-48.76l-51.135-14.853v-82.8l51.137-14.853c4.678-17.026 11.468-33.364 20.265-48.76l-25.694-46.732 58.548-58.548 46.731 25.695c15.396-8.797 31.733-15.586 48.761-20.265l14.853-51.137h82.799l14.854 51.137c17.027 4.678 33.365 11.468 48.761 20.265l46.731-25.695 58.548 58.548-25.694 46.732c8.797 15.396 15.587 31.734 20.265 48.76l51.135 14.853v82.8l-51.137 14.853c-4.678 17.026-11.468 33.364-20.265 48.76l25.694 46.732-58.548 58.548-46.731-25.695c-15.396 8.797-31.733 15.586-48.761 20.265zm-60.273-30h37.748l13.425-46.221 8.588-1.974c19.763-4.542 38.547-12.348 55.83-23.203l7.473-4.693 42.271 23.242 26.692-26.692-23.242-42.271 4.692-7.473c10.854-17.284 18.661-36.068 23.203-55.831l1.974-8.587 46.22-13.423v-37.748l-46.221-13.425-1.974-8.587c-4.542-19.763-12.349-38.547-23.203-55.831l-4.692-7.473 23.242-42.271-26.692-26.691-42.271 23.242-7.473-4.693c-17.283-10.854-36.067-18.661-55.83-23.203l-8.588-1.974-13.424-46.22h-37.748l-13.425 46.221-8.588 1.974c-19.763 4.542-38.547 12.348-55.83 23.203l-7.473 4.693-42.27-23.243-26.692 26.692 23.242 42.271-4.692 7.473c-10.854 17.284-18.661 36.068-23.203 55.831l-1.974 8.587-46.221 13.424v37.748l46.221 13.425 1.974 8.587c4.542 19.763 12.349 38.547 23.203 55.831l4.692 7.473-23.242 42.27 26.692 26.692 42.271-23.242 7.473 4.693c17.283 10.854 36.067 18.661 55.83 23.203l8.588 1.974z"/></g></g></svg>