<svg id="Capa_1" enable-background="new 0 0 512 512" height="512" viewBox="0 0 512 512" width="512" xmlns="http://www.w3.org/2000/svg"><g><path d="m432 495.968h-352c-44.112 0-80-35.888-80-80 0-13.689 3.522-27.203 10.188-39.088l175.957-319.924c.031-.056.062-.111.093-.167 30.561-54.333 108.95-54.353 139.525 0 .031.055.062.111.093.167l175.958 319.923c6.664 11.885 10.186 25.399 10.186 39.089 0 44.112-35.888 80-80 80zm-210.856-419.644-175.95 319.909c-.031.056-.062.112-.093.167-3.337 5.932-5.101 12.699-5.101 19.568 0 22.056 17.944 40 40 40h352c22.056 0 40-17.944 40-40 0-6.87-1.764-13.636-5.101-19.568-.031-.055-.062-.111-.093-.167l-175.947-319.904c-15.31-27.088-54.387-27.119-69.715-.005z"/><path d="m256 315.968c-11.046 0-20-8.954-20-20v-120c0-11.046 8.954-20 20-20s20 8.954 20 20v120c0 11.046-8.954 20-20 20z"/><circle cx="256" cy="375.968" r="20"/></g></svg>