<?xml version="1.0" encoding="UTF-8" standalone="no"?>
<svg
   width="14"
   height="14"
   viewBox="0 0 14 14"
   version="1.1"
   id="svg56"
   sodipodi:docname="xoops.svg"
   inkscape:export-filename="..\themes\lithium\assets\icons\xoops.svg"
   inkscape:export-xdpi="96"
   inkscape:export-ydpi="96"
   xmlns:inkscape="http://www.inkscape.org/namespaces/inkscape"
   xmlns:sodipodi="http://sodipodi.sourceforge.net/DTD/sodipodi-0.dtd"
   xmlns="http://www.w3.org/2000/svg"
   xmlns:svg="http://www.w3.org/2000/svg">
  <defs
     id="defs60" />
  <sodipodi:namedview
     id="namedview58"
     pagecolor="#ffffff"
     borderopacity="0.25"
     inkscape:showpageshadow="2"
     inkscape:pageopacity="0.0"
     inkscape:pagecheckerboard="0"
     inkscape:deskcolor="#d1d1d1"
     showgrid="false" />
  <path
     id="circle48"
     style="fill-opacity:1;stroke:none;stroke-opacity:1"
     d="M 9.7994095,0.02741189 A 3.648,3.648 0 0 0 6.1509724,3.6758494 3.648,3.648 0 0 0 9.7994095,7.3223338 3.648,3.648 0 0 0 13.447847,3.6758494 3.648,3.648 0 0 0 9.7994095,0.02741189 Z m 0,1.16992191 A 2.4777341,2.4777341 0 0 1 12.277925,3.6758494 2.4777341,2.4777341 0 0 1 9.7994095,6.1524119 2.4777341,2.4777341 0 0 1 7.3208943,3.6758494 2.4777341,2.4777341 0 0 1 9.7994095,1.1973338 Z" />
  <path
     id="path52"
     d="M 5.8616046,3.1537151 C 2.9676076,3.270715 0.65847954,5.652593 0.65847954,8.5755901 c 0,2.9999959 2.44926906,5.4101559 5.44726606,5.4101559 2.999997,0 5.4296874,-2.42969 5.4296874,-5.4296871 0,-0.4692966 -0.076,-0.8815823 -0.175782,-1.2929688 -0.359098,0.1492204 -0.758728,0.2533454 -1.183593,0.2949219 0.08256,0.3309195 0.124532,0.6706568 0.125,1.0117187 -1.55e-4,2.3220203 -1.8830574,4.2040493 -4.2050784,4.2031243 -2.321257,-1.54e-4 -4.20297,-1.881867 -4.203125,-4.2031243 0.0051,-2.2425128 1.769628,-4.0861524 4.009766,-4.1894531 -0.04607,-0.2409873 -0.07031,-0.4897419 -0.07031,-0.7441406 0,-0.1629998 0.0093,-0.324422 0.0293,-0.4824219 z m 5.4980474,4.109375 c 0.0019,-7.846e-4 0.004,-0.00117 0.0059,-0.00195 h -0.0059 z"
     sodipodi:nodetypes="csssccccccsccccc" />
  <path
     opacity="0.5"
     fill="#ffffff"
     d="m 3.1962149,9.9620368 c 0,0.3556872 0.052052,0.6636612 0.1041037,1.0089392 -0.3730383,-0.598597 -0.588186,-1.3030326 -0.588186,-2.0577846 0,-1.8218149 1.2492447,-3.3486695 2.9365925,-3.7772298 0.026026,0.2038698 0.052052,0.4077396 0.1023687,0.615947 C 4.2450599,6.5326865 3.184937,8.1150629 3.184937,9.9637718 h 0.011278 z"
     id="path54"
     style="fill:#000000;stroke-width:0.867531" />
  <path
     opacity="0.5"
     fill="#ffffff"
     d="M 8.239948,4.8487232 C 8.0750361,4.5566334 7.9730143,4.2233156 7.9730143,3.8634442 c 0,-1.1145529 0.902823,-2.0173758 2.018075,-2.0173758 0.2515607,0 0.4933377,0.041927 0.6987787,0.1355632 -1.382185,0.1027205 -2.4736785,1.2543087 -2.4736785,2.6623493 0.013976,0.053806 0.034939,0.1362619 0.034939,0.2047423 z"
     id="path50"
     style="fill:#000000;stroke-width:0.698779" />
</svg>
