<svg id="Capa_1" xmlns="http://www.w3.org/2000/svg" xmlns:xlink="http://www.w3.org/1999/xlink" viewBox="0 0 360 140"><style>.st0{clip-path:url(#SVGID_2_);} .st1{fill:none;stroke:#706F6F;stroke-width:0.5;stroke-miterlimit:10;} .st2{fill:#3AAA35;} .st3{fill:#010202;}</style><defs><path id="SVGID_1_" d="M0 0h360v140H0z"/></defs><clipPath id="SVGID_2_"><use xlink:href="#SVGID_1_" overflow="visible"/></clipPath><g class="st0"><path id="XMLID_6_" class="st1" d="M-1.2 0H361"/><path id="XMLID_27_" class="st1" d="M-1.2 14H361"/><path id="XMLID_28_" class="st1" d="M-1.2 28H361"/><path id="XMLID_29_" class="st1" d="M-1.2 42H361"/><path id="XMLID_30_" class="st1" d="M-1.2 56H361"/><path id="XMLID_31_" class="st1" d="M-1.2 70H361"/><path id="XMLID_32_" class="st1" d="M-1.2 84H361"/><path id="XMLID_33_" class="st1" d="M-1.2 98H361"/><path id="XMLID_34_" class="st1" d="M-1.2 112H361"/><path id="XMLID_35_" class="st1" d="M-1.2 126H361"/><path id="XMLID_36_" class="st1" d="M-1.2 140H361"/></g><g id="XMLID_1_"><circle id="XMLID_5_" class="st2" cx="17" cy="112" r="7.4"/><path id="XMLID_9_" class="st3" d="M30.4 109.4l-3.3-.5c-.2-.6-.4-1.2-.7-1.8.6-.9 1.3-1.7 1.9-2.5.1-.1.2-.3.2-.4s0-.3-.1-.4c-.8-1.1-2-2.2-3-3.1-.1-.1-.3-.2-.5-.2s-.3.1-.4.2l-2.6 2c-.5-.3-1.1-.5-1.6-.7l-.5-3.4c0-.3-.3-.5-.7-.5h-4c-.3 0-.6.2-.7.5-.3 1.1-.4 2.3-.5 3.4-.6.2-1.1.4-1.7.7l-2.5-2c-.1-.1-.3-.2-.5-.2-.6 0-3.1 2.7-3.5 3.3-.1.1-.2.3-.2.4 0 .2.1.3.2.4.7.8 1.3 1.6 2 2.5-.3.6-.5 1.1-.7 1.7l-3.4.5c-.3.1-.5.4-.5.7v4.1c0 .3.2.6.5.7l3.3.5c.2.6.4 1.2.8 1.8-.6.9-1.3 1.7-1.9 2.5-.1.1-.1.3-.1.4s0 .3.1.4c.8 1.1 2 2.2 3 3.1.1.1.3.2.5.2s.3 0 .5-.2l2.6-1.9c.5.3 1.1.5 1.6.7l.5 3.4c0 .3.3.5.7.5h4c.3 0 .6-.2.7-.5.3-1.1.4-2.3.5-3.4.6-.2 1.1-.4 1.7-.7l2.5 2c.1.1.3.2.5.2.6 0 3.1-2.7 3.5-3.3.1-.1.2-.3.2-.4s-.1-.3-.2-.5c-.7-.8-1.3-1.6-1.9-2.5.3-.5.5-1.1.7-1.7l3.4-.5c.3-.1.5-.4.5-.7v-4c-.3-.5-.5-.8-.9-.8zM17 119c-3.9 0-7-3.1-7-7s3.1-7 7-7 7 3.1 7 7-3.2 7-7 7z"/><path id="XMLID_2_" class="st3" d="M19.1 108.8l-2.8 2.8-1.5-1.5c-.3-.3-.7-.3-.9 0l-1.1 1.1c-.3.3-.3.7 0 .9l3 3c.3.3.7.3.9 0l4.4-4.4c.3-.3.3-.7 0-.9l-1.1-1c-.2-.2-.6-.2-.9 0z"/></g><g id="XMLID_8_"><ellipse id="XMLID_14_" class="st2" cx="81" cy="98" rx="14.8" ry="14.8"/><path id="XMLID_11_" class="st3" d="M107.9 92.7l-6.7-1c-.4-1.2-.9-2.4-1.5-3.6 1.2-1.7 2.6-3.3 3.8-5 .2-.2.3-.5.3-.8s-.1-.6-.3-.8c-1.5-2.1-4.1-4.4-6-6.2-.3-.2-.6-.4-.9-.4s-.6.1-.8.3l-5.2 3.9c-1.1-.5-2.1-1-3.3-1.4L86.2 71c0-.5-.5-1-1.2-1h-8.1c-.7 0-1.2.4-1.3 1-.6 2.2-.8 4.6-1.1 6.8-1.1.4-2.2.8-3.3 1.4l-5-3.9c-.3-.2-.6-.4-1-.4-1.2 0-6.2 5.3-7 6.5-.2.3-.3.5-.3.8 0 .4.1.6.4.9 1.4 1.6 2.7 3.3 3.9 5-.6 1.1-1.1 2.2-1.4 3.4l-6.8 1c-.6.1-1 .8-1 1.3v8.1c0 .6.4 1.2 1.1 1.3l6.7 1c.4 1.2.9 2.4 1.5 3.6-1.2 1.7-2.6 3.3-3.8 5-.2.3-.3.5-.3.8s.1.6.2.8c1.5 2.1 4.1 4.4 6 6.1.3.3.6.4.9.4s.6-.1.9-.3l5.1-3.9c1.1.5 2.1 1 3.3 1.3l1 6.7c.1.6.7 1.1 1.3 1.1H85c.7 0 1.2-.4 1.3-1 .6-2.2.8-4.6 1.1-6.8 1.1-.4 2.3-.8 3.3-1.4l5 3.9c.3.2.6.3.9.3 1.2 0 6.2-5.4 7-6.5.2-.3.3-.5.3-.8s-.1-.7-.4-.9c-1.3-1.6-2.6-3.2-3.9-5 .6-1.1 1-2.2 1.4-3.3l6.8-1c.6-.1 1-.8 1-1.3v-8c.2-.6-.2-1.2-.9-1.3zM81 112c-7.7 0-14-6.3-14-14s6.3-14 14-14 14 6.3 14 14-6.3 14-14 14z"/><path id="XMLID_10_" class="st3" d="M85.2 91.6l-5.7 5.7-3-3c-.5-.5-1.3-.5-1.8 0l-2.1 2.1c-.5.5-.5 1.3 0 1.9l6.1 6.1c.5.5 1.3.5 1.9 0l8.7-8.7c.5-.5.5-1.3 0-1.9l-2.1-2.1c-.7-.5-1.5-.5-2-.1z"/></g><g id="XMLID_15_"><ellipse id="XMLID_20_" class="st2" cx="174.9" cy="84.2" rx="22.1" ry="22.2"/><path id="XMLID_17_" class="st3" d="M215.3 76.3l-10-1.5c-.5-1.8-1.3-3.6-2.2-5.4 1.9-2.6 3.9-5 5.7-7.5.3-.4.5-.8.5-1.3 0-.4-.1-.9-.4-1.2-2.3-3.2-6.1-6.6-9-9.3-.4-.3-.9-.5-1.4-.5s-1 .2-1.3.5l-7.7 5.9c-1.6-.8-3.2-1.5-4.9-2L183 43.8c-.1-.9-1-1.6-2-1.6h-12.1c-1 0-1.8.7-2 1.5-.9 3.3-1.2 6.8-1.6 10.2-1.7.6-3.4 1.3-5 2.1l-7.5-5.9c-.4-.3-.9-.5-1.4-.5-1.8 0-9.2 8-10.5 9.8-.3.4-.5.8-.5 1.2 0 .5.2 1 .5 1.3 2 2.5 4 4.9 5.9 7.6-.9 1.7-1.6 3.3-2.1 5L134.5 76c-.8.2-1.5 1.2-1.5 2v12.2c0 .9.7 1.8 1.6 2l10 1.5c.5 1.9 1.3 3.7 2.3 5.4-1.9 2.6-3.9 5-5.8 7.5-.3.4-.4.8-.4 1.3 0 .4.1.9.4 1.3 2.3 3.2 6.1 6.6 9 9.2.4.4.9.6 1.4.6s1-.1 1.4-.5l7.7-5.8c1.6.8 3.2 1.5 4.9 2l1.5 10.1c.1.9 1 1.6 2 1.6h12.1c1 0 1.7-.7 2-1.6.9-3.3 1.2-6.8 1.6-10.2 1.7-.5 3.4-1.3 5-2.1l7.5 5.9c.4.3.9.5 1.4.5 1.9 0 9.2-8 10.5-9.8.3-.4.5-.8.5-1.3s-.2-1-.6-1.4c-2-2.5-4-4.9-5.8-7.5.9-1.6 1.6-3.2 2.2-5l10.1-1.5c.9-.2 1.5-1.1 1.5-2V78.2c0-.9-.7-1.8-1.6-2l-.1.1zm-40.4 28.9c-11.6 0-21-9.4-21-21s9.4-21 21-21 21 9.4 21 21-9.4 21-21 21z"/><path id="XMLID_16_" class="st3" d="M181.3 74.7l-8.5 8.5-4.6-4.6c-.8-.8-2-.8-2.8 0l-3.2 3.2c-.8.8-.8 2 0 2.8l9.1 9.1c.8.8 2 .8 2.8 0l13.1-13.1c.8-.8.8-2 0-2.8l-3.2-3.1c-.7-.8-1.9-.8-2.7 0z"/></g><g id="XMLID_21_"><ellipse id="XMLID_26_" class="st2" cx="300" cy="70" rx="29.5" ry="29.5"/><path id="XMLID_23_" class="st3" d="M353.8 59.4l-13.3-2.1c-.7-2.4-1.7-4.8-3-7.1 2.5-3.4 5.2-6.6 7.6-10 .4-.5.6-1 .6-1.7 0-.6-.2-1.2-.5-1.6-3.1-4.3-8.1-8.8-12-12.4-.5-.4-1.2-.7-1.8-.7-.7 0-1.3.2-1.8.7l-10.3 7.8c-2.1-1.1-4.3-2-6.6-2.7l-2.1-13.4c-.1-1.2-1.3-2.2-2.6-2.2h-16c-1.3 0-2.3.9-2.6 2-1.2 4.4-1.6 9.1-2.1 13.6-2.2.7-4.5 1.7-6.6 2.8l-10-7.8c-.6-.4-1.3-.7-1.9-.7-2.5 0-12.3 10.6-14 13.1-.4.5-.7 1-.7 1.7s.3 1.3.7 1.8c2.7 3.3 5.3 6.6 7.8 10.1-1.2 2.2-2.1 4.4-2.8 6.7l-13.5 2c-1.1.2-2 1.6-2 2.6V78c0 1.2.9 2.4 2.2 2.6l13.3 2c.7 2.5 1.8 4.9 3 7.2-2.5 3.4-5.2 6.6-7.7 10-.3.5-.6 1-.6 1.7 0 .6.1 1.2.5 1.7 3 4.2 8.1 8.8 12 12.2.5.5 1.2.8 1.8.8.7 0 1.3-.2 1.8-.6l10.3-7.8c2.1 1.1 4.3 2 6.6 2.7l2 13.4c.2 1.2 1.3 2.2 2.6 2.2h16.1c1.3 0 2.3-.9 2.6-2.1 1.2-4.4 1.6-9.1 2.1-13.6 2.3-.7 4.5-1.7 6.6-2.8l10.1 7.9c.6.3 1.2.6 1.9.6 2.5 0 12.3-10.7 14.1-13 .4-.5.6-1 .6-1.7 0-.6-.3-1.3-.7-1.8-2.7-3.3-5.3-6.5-7.8-10 1.2-2.1 2.1-4.3 2.9-6.6l13.5-2c1.2-.2 2.1-1.5 2.1-2.6V62c0-1.2-.9-2.4-2.1-2.6h-.3zM300 97.9c-15.4 0-28-12.5-28-28s12.5-28 28-28c15.4 0 28 12.5 28 28s-12.5 28-28 28z"/><path id="XMLID_22_" class="st3" d="M308.5 57.3l-11.4 11.4-6.1-6.1c-1-1-2.7-1-3.7 0l-4.2 4.2c-1 1-1 2.7 0 3.7l12.1 12.2c1 1 2.7 1 3.7 0l17.4-17.4c1-1 1-2.7 0-3.7l-4.2-4.2c-.9-1.1-2.5-1.1-3.6-.1z"/></g></svg>