<svg id="Capa_1" enable-background="new 0 0 512.007 512.007" height="512" viewBox="0 0 512.007 512.007" width="512" xmlns="http://www.w3.org/2000/svg"><g id="Appearance"><g><path d="m12.945 346.694c-5.698-15.307-9.959-31.249-12.666-47.381-1.828-10.894 5.521-21.206 16.415-23.034 10.894-1.827 21.206 5.522 23.033 16.415 2.288 13.637 5.89 27.11 10.705 40.046 3.853 10.352-1.415 21.867-11.767 25.721-10.366 3.858-21.871-1.429-25.72-11.767z"/></g><g><path d="m16.694 235.728c-10.893-1.828-18.243-12.14-16.415-23.034 2.707-16.132 6.968-32.074 12.666-47.381 3.854-10.352 15.372-15.619 25.721-11.766 10.352 3.853 15.62 15.369 11.767 25.721-4.815 12.936-8.417 26.409-10.705 40.046-1.823 10.861-12.111 18.247-23.034 16.414z"/></g><g><path d="m58.305 118.442c-8.508-7.044-9.694-19.652-2.65-28.16 10.408-12.57 22.058-24.221 34.628-34.629 8.509-7.045 21.117-5.858 28.16 2.65 7.044 8.508 5.858 21.115-2.649 28.16-10.646 8.815-20.514 18.683-29.329 29.329-7.044 8.508-19.652 9.696-28.16 2.65z"/></g><g><path d="m153.547 38.666c-3.853-10.352 1.415-21.867 11.767-25.72 15.309-5.698 31.25-9.96 47.381-12.666 10.895-1.828 21.206 5.522 23.033 16.415 1.828 10.893-5.521 21.206-16.415 23.033-13.635 2.287-27.108 5.889-40.046 10.705-10.353 3.854-21.867-1.417-25.72-11.767z"/></g><g><path d="m332.741 50.433c-12.938-4.816-26.411-8.417-40.046-10.705-10.894-1.828-18.243-12.14-16.415-23.033s12.14-18.244 23.033-16.415c16.131 2.706 32.072 6.968 47.381 12.666 10.352 3.853 15.62 15.369 11.767 25.72-3.847 10.335-15.354 15.625-25.72 11.767z"/></g><g><path d="m425.544 115.793c-8.816-10.647-18.684-20.515-29.33-29.33-8.508-7.044-9.694-19.652-2.649-28.16s19.652-9.694 28.16-2.65c12.569 10.407 24.22 22.058 34.628 34.628 7.045 8.508 5.859 21.115-2.649 28.16-8.506 7.044-21.114 5.861-28.16-2.648z"/></g><g><path d="m472.279 219.313c-2.288-13.637-5.89-27.11-10.705-40.046-3.853-10.352 1.415-21.867 11.767-25.721s21.867 1.414 25.721 11.766c5.698 15.308 9.959 31.249 12.666 47.381 1.828 10.894-5.521 21.206-16.415 23.034-10.965 1.839-21.218-5.59-23.034-16.414z"/></g><g><path d="m473.341 358.461c-10.352-3.854-15.62-15.369-11.767-25.721 4.815-12.936 8.417-26.409 10.705-40.046 1.828-10.893 12.14-18.243 23.033-16.415 10.894 1.828 18.243 12.14 16.415 23.034-2.707 16.133-6.968 32.074-12.666 47.381-3.846 10.334-15.351 15.626-25.72 11.767z"/></g><g><path d="m393.565 453.703c-7.044-8.508-5.858-21.115 2.65-28.16 10.646-8.815 20.514-18.683 29.329-29.329 7.045-8.507 19.653-9.694 28.16-2.649 8.508 7.044 9.694 19.652 2.649 28.16-10.408 12.57-22.059 24.221-34.629 34.628-8.505 7.043-21.114 5.86-28.159-2.65z"/></g><g><path d="m295.98 512.007c-9.592 0-18.061-6.92-19.7-16.694-1.828-10.894 5.521-21.206 16.415-23.033 13.635-2.287 27.108-5.889 40.046-10.705 10.351-3.853 21.867 1.415 25.721 11.767 3.853 10.352-1.415 21.867-11.767 25.72-20.086 7.476-44.6 12.945-50.715 12.945z"/></g><g><path d="m212.695 511.728c-16.13-2.706-32.071-6.968-47.381-12.666-10.352-3.853-15.62-15.369-11.767-25.72 3.854-10.352 15.371-15.619 25.721-11.767 12.938 4.816 26.411 8.417 40.045 10.705 10.894 1.827 18.243 12.14 16.415 23.033-1.822 10.863-12.113 18.247-23.033 16.415z"/></g><g><path d="m90.283 456.353c-12.57-10.408-24.221-22.059-34.628-34.629-7.044-8.508-5.858-21.115 2.65-28.16 8.509-7.044 21.116-5.857 28.16 2.65 8.815 10.646 18.682 20.514 29.329 29.329 8.508 7.044 9.694 19.652 2.65 28.16-7.044 8.507-19.652 9.695-28.161 2.65z"/></g><g><path d="m256.004 436.003c-99.252 0-180-80.748-180-180s80.748-180 180-180 180 80.748 180 180c0 99.253-80.748 180-180 180zm0-320c-77.196 0-140 62.804-140 140s62.804 140 140 140 140-62.804 140-140-62.804-140-140-140z"/></g></g></svg>