<svg xmlns="http://www.w3.org/2000/svg" width="14" height="14" viewBox="0 0 14 14"><path d="M10.677 5.797c.155.37.372.65.62.835.278.186.494.31.71.34.25.032.466.156.714.373.25.186.44.495.56.866.22.65-.15 1.52-1.17 2.54-1.02 1.06-2.35 1.89-3.99 2.51-1.73.62-3.31.84-4.7.71-1.39-.15-2.23-.52-2.44-1.2-.21-.55-.15-1.14.19-1.73.34-.62.437-1.21.28-1.76C.84 7.22.59 5.65.68 4.5c.093-1.145.68-2.166 1.795-3.03.28-.25.433-.498.464-.807s.19-.52.43-.61c.28-.09.49-.03.74.19.21.22.52.31.89.28C6.4.48 7.43.85 8.14 1.56c.71.712 1.546 2.136 2.535 4.24zm-2.94 6.405c.93-.34 1.764-.773 2.507-1.36.742-.56 1.27-1.022 1.578-1.425s.434-.68.403-.805c-.094-.217-.34-.402-.774-.526-.43-.093-1.08-.124-1.95 0-.89.094-1.88.34-2.97.743-1.08.4-2.01.86-2.75 1.39-.74.52-1.24.96-1.48 1.33-.24.37-.34.65-.28.83.06.12.31.25.81.34.5.12 1.21.12 2.14.06.93-.07 1.86-.25 2.79-.59zm-.99-2.754c.093-.03.186-.062.34-.124.124-.03.217-.093.247-.093l.032.04c.155.4.062.87-.248 1.3-.34.47-.805.81-1.423.99-1.02.4-1.826.31-2.414-.21.84-.71 1.99-1.33 3.47-1.88z"/></svg>