<svg xmlns="http://www.w3.org/2000/svg" width="14" height="14" viewBox="0 0 14 14"><path d="M11.2 8.166H9.334c-.496 0-.934.467-.934.934h3.733c0-.496-.466-.934-.933-.934zM10.398 2.1c-2.435 0-3.047.467-3.398.817-.35-.35-.962-.817-3.397-.817S0 2.77 0 3.238v8.545c.424-.232 1.736-.7 3.122-.816 1.677-.13 3.412.13 3.412.467 0 .232.117.453.453.467h.03c.335-.01.452-.23.452-.463 0-.336 1.732-.598 3.41-.467 1.37.1 2.7.583 3.12.815V3.238C14 2.77 12.834 2.1 10.4 2.1zm-3.864 8.34c-.438-.233-1.502-.407-2.8-.407s-2.48.174-2.8.393v-6.46c0-.466.934-.86 2.8-.86 1.867 0 2.8.395 2.8.86v6.475zm6.532-.014c-.32-.22-1.502-.393-2.8-.393s-2.362.174-2.8.408V3.97c0-.467.934-.86 2.8-.86 1.867 0 2.8.394 2.8.86v6.46zM11.2 6.3H9.334c-.496 0-.934.467-.934.933h3.733c0-.496-.466-.933-.933-.933zm0-1.867H9.334c-.496 0-.934.467-.934.934h3.733c0-.496-.466-.934-.933-.934zM4.667 6.3H2.8c-.466 0-.932.438-.932.933H5.6c0-.466-.437-.933-.933-.933zm0 1.866H2.8c-.466 0-.932.438-.932.934H5.6c0-.467-.437-.934-.933-.934zm0-3.733H2.8c-.466 0-.932.438-.932.934H5.6c0-.467-.437-.934-.933-.934z"/></svg>