<svg xmlns="http://www.w3.org/2000/svg" width="14" height="14" viewBox="0 0 14 14"><path d="M11.21 3.658c-.303-.576-.72-1.076-1.25-1.5-.53-.427-1.15-.762-1.86-1.01C7.39.9 6.635.778 5.833.778c-.802 0-1.558.123-2.267.37s-1.328.583-1.858 1.01c-.53.424-.948.924-1.252 1.5C.152 4.233 0 4.845 0 5.493c0 .372.05.732.152 1.08.102.35.245.68.432.99.186.314.413.605.68.877.268.27.567.512.9.723l.018.164c.004.053.006.108.006.164 0 .4-.027.76-.302 1.09S1 11.17 1 11.37v.304c0-.01.614-.033.97-.073.357-.04.656-.11 1.008-.22s.67-.26 1.005-.45.645-.44.952-.76c.146.03.29.04.443.05.154.01.305.01.458.01.802 0 1.556-.12 2.265-.37s1.33-.59 1.86-1.02c.53-.43.95-.93 1.25-1.5.31-.57.46-1.18.46-1.84 0-.65-.15-1.26-.45-1.83zM9.82 6.635c-.195.365-.474.697-.84.997-.194.153-.406.294-.637.42-.23.125-.48.232-.747.32-.276.1-.56.17-.857.22s-.6.073-.91.073c-.12 0-.24-.004-.36-.013-.12-.008-.24-.02-.36-.036-.03 0-.07-.002-.1-.006s-.07-.006-.1-.006c-.21 0-.4.038-.59.115s-.36.18-.51.33c-.02.02-.03.04-.05.05l-.05.04c-.01-.04-.02-.07-.02-.11 0-.03-.01-.07-.01-.11-.04-.22-.12-.43-.24-.61-.12-.19-.27-.34-.458-.46-.237-.16-.447-.33-.634-.51-.184-.19-.34-.39-.46-.6-.12-.2-.21-.4-.274-.62-.06-.22-.09-.43-.09-.65 0-.39.095-.77.29-1.13.192-.37.472-.7.836-1 .197-.16.41-.3.64-.42.23-.13.48-.24.75-.32.276-.1.56-.17.857-.22.297-.05.6-.08.907-.08.31 0 .61.02.91.07s.58.12.85.22c.27.09.517.193.75.32.23.124.443.264.64.42.363.3.643.63.84.994.19.366.29.74.29 1.13 0 .4-.098.78-.29 1.144z"/><path opacity=".8" d="M12.408 12.293c.202.28.474.5.814.662v.268c-.624-.017-1.226-.102-1.805-.256-.58-.153-1.14-.498-1.684-1.033-.13.017-.26.028-.39.037-.13.01-.263.02-.4.02-.583 0-1.136-.07-1.66-.22s-.998-.35-1.427-.61c.446 0 .88-.03 1.3-.11.422-.07.83-.17 1.23-.31.395-.13.774-.3 1.135-.49s.7-.42 1.02-.68c.32-.25.6-.53.85-.83.26-.3.47-.62.65-.95.19-.35.33-.72.42-1.1.1-.38.14-.77.14-1.162v-.38c.44.362.79.786 1.04 1.27.26.48.38.996.38 1.55 0 .63-.17 1.22-.51 1.766-.34.55-.79 1.01-1.36 1.38-.01.04-.01.086-.02.135s0 .1 0 .14c0 .34.1.65.308.93z"/></svg>