<svg xmlns="http://www.w3.org/2000/svg" width="14" height="14" viewBox="0 0 14 14"><path d="M2.625 1.75V.875C2.625.392 3.017 0 3.5 0s.875.392.875.875v.875c0 .483-.392.875-.875.875s-.875-.392-.875-.875zm6.125.875c.483 0 .875-.392.875-.875V.875C9.625.392 9.233 0 8.75 0s-.875.392-.875.875v.875c0 .483.392.875.875.875zm3.5 9.625H0V1.75h2.188c0 .724.59 1.313 1.313 1.313s1.315-.59 1.315-1.313H7.44c0 .724.59 1.313 1.312 1.313s1.314-.59 1.314-1.313h2.188v10.5zm-.875-7.875H.875v7h10.5v-7zm1.75-1.75v10.5H.875V14H14V2.625h-.875zM4.375 5.25h-1.75V7h1.75V5.25zM7 5.25H5.25V7H7V5.25zm2.625 0h-1.75V7h1.75V5.25zm-5.25 2.625h-1.75v1.75h1.75v-1.75zm2.625 0H5.25v1.75H7v-1.75zm2.625 0h-1.75v1.75h1.75v-1.75z"/></svg>