<svg xmlns="http://www.w3.org/2000/svg" width="14" height="14" viewBox="0 0 14 14"><path d="M7 0c1.928 0 3.56.712 4.924 2.076S14 5.072 14 7s-.712 3.56-2.076 4.924S8.928 14 7 14s-3.56-.712-4.924-2.076S0 8.928 0 7s.712-3.56 2.076-4.924S5.072 0 7 0zm0 12.458c1.513 0 2.817-.534 3.886-1.603C11.924 9.788 12.458 8.513 12.458 7s-.534-2.817-1.572-3.886C9.816 2.076 8.513 1.542 7 1.542s-2.788.534-3.855 1.572C2.075 4.184 1.542 5.487 1.542 7s.534 2.788 1.603 3.855c1.067 1.07 2.342 1.603 3.855 1.603zm.534-9.402v3.707l2.283 2.285-.74.74-2.58-2.58v-4.15h1.037z"/></svg>