<svg xmlns="http://www.w3.org/2000/svg" width="14" height="14" viewBox="0 0 14 14"><path d="M11.448 6.8c.817-1.877.313-3.07-.097-3.646-.623-.873-1.76-1.35-2.753-1.16-1.733.332-2.47 1.506-2.47 3.93V7.95L5.11 6.936c-.17-.17-.446-.17-.617 0-.17.17-.17.448 0 .62l1.76 1.76c.088.086.205.127.32.124.115.003.23-.038.32-.125l1.768-1.77c.174-.17.174-.447 0-.618-.167-.17-.445-.17-.615 0L7 7.97V5.925c0-2.523.87-2.9 1.758-3.07.573-.104 1.398.135 1.88.81.588.82.475 2.04-.318 3.43-.084.147-.074.33.023.47.097.137.27.207.435.178.105-.02.42-.067.62-.067.954 0 1.728.786 1.728 1.752 0 .965-.785 1.75-1.75 1.75l-8.687.003C1.67 11.03.873 10.068.873 8.99c0-1.078.807-2 1.877-2.155l.378-.055c.214-.03.374-.215.374-.434l-.007-.464c.003-1.567.97-2.855 2.3-3.063.238-.04.4-.263.365-.5-.038-.24-.256-.403-.5-.367-1.76.275-3.037 1.925-3.04 3.926l.007.087C1.13 6.183 0 7.48 0 8.987c0 1.528 1.1 2.843 2.625 3.064h8.75c1.447 0 2.625-1.176 2.625-2.623 0-1.433-1.142-2.6-2.552-2.627z"/></svg>