<svg xmlns="http://www.w3.org/2000/svg" width="14" height="14" viewBox="0 0 14 14"><path d="M14 8.645c0-1.25-.698-2.367-1.792-3.115.077.347.12.704.12 1.07 0 2.828-2.4 5.187-5.562 5.695.668.27 1.417.428 2.217.428.75 0 1.463-.14 2.104-.38.813.274 1.7.347 2.434.347-.38-.457-.643-.906-.833-1.3C13.5 10.663 14 9.702 14 8.644z"/><path d="M10.99 6.165c0-2.695-2.464-4.887-5.496-4.887C2.464 1.278 0 3.468 0 6.164 0 7.418.553 8.63 1.524 9.537c-.22.53-.508 1.033-.86 1.494-.104.138-.12.32-.042.474.077.145.227.234.39.234h.02c.463-.02 1.385-.33 2.36-.95.523.093 1.693.265 2.102.265 3.083 0 5.497-2.144 5.497-4.885z"/></svg>