<svg xmlns="http://www.w3.org/2000/svg" width="14" height="14" viewBox="0 0 14 14"><path d="M10.5 6.125H.875C.39 6.125 0 6.517 0 7v6.125c0 .483.392.875.875.875H10.5c.483 0 .875-.392.875-.875V7c0-.483-.392-.875-.875-.875zm-8.3 1.75h.425c.32 0 .588.182.74.438H2.202v-.438zm0 .875h1.3v.438H2.2V8.75zm-1.325 0c0-.483.392-.875.875-.875h.014V10.5H1.75c-.484 0-.875-.392-.875-.875V8.75zm1.75 3.5H.875v-.875h1.75v.875zm0-1.75H2.2v-.875h1.3c0 .483-.39.875-.875.875zm2.625 1.75H3.5v-.875h1.75v.875zm2.625 0h-1.75v-.875h1.75v.875zm2.625 0H8.75v-.875h1.75v.875zM9.188 10.5c-.338 0-.643-.132-.875-.34-.233.208-.538.34-.875.34-.725 0-1.313-.588-1.313-1.313s.588-1.313 1.313-1.313c.337 0 .643.132.875.34.232-.208.537-.34.875-.34.725 0 1.313.588 1.313 1.313S9.914 10.5 9.19 10.5zM4.375 4.375H7v.875H4.375z"/><path d="M13.125 0H3.5c-.484 0-.875.392-.875.875V5.25H3.5V3.5h9.625V7h-.875v.875h.875c.483 0 .875-.392.875-.875V.875C14 .392 13.608 0 13.125 0zm0 1.75H3.5V.875h9.625v.875z"/><path d="M10.5 4.375h1.75v.875H10.5z"/></svg>