<svg xmlns="http://www.w3.org/2000/svg" width="14" height="14" viewBox="0 0 14 14"><path d="M13.125 2.625H.875C.39 2.625 0 3.017 0 3.5v7c0 .483.392.875.875.875h12.25c.483 0 .875-.392.875-.875v-7c0-.483-.392-.875-.875-.875zm-10.05 1.75H3.5c.32 0 .588.18.74.438H3.077v-.438zM1.75 5.25c0-.484.392-.875.875-.875h.014V7h-.016c-.484 0-.875-.392-.875-.875V5.25zM3.5 9.625H1.75V8.75H3.5v.875zM3.5 7h-.424v-.875h1.3c0 .484-.392.875-.876.875zm.875-1.312h-1.3V5.25h1.3v.438zm2.042 3.937h-1.75V8.75h1.75v.875zm2.917 0h-1.75V8.75h1.75v.875zm2.916 0H10.5V8.75h1.75v.875zM10.938 7c-.338 0-.643-.132-.875-.34-.233.21-.538.34-.875.34-.725 0-1.313-.588-1.313-1.312s.588-1.313 1.313-1.313c.338 0 .643.132.875.34.232-.208.537-.34.875-.34.725 0 1.313.588 1.313 1.313S11.664 7 10.94 7z"/></svg>