<svg xmlns="http://www.w3.org/2000/svg" width="14" height="14" viewBox="0 0 14 14"><path d="M13.872 11.248L9.624 7l4.248-4.247c.045-.046.08-.1.1-.156.06-.156.025-.337-.1-.462L11.866.13c-.126-.126-.308-.16-.464-.1-.056.02-.11.053-.155.1L7 4.374 2.752.127c-.046-.045-.1-.08-.156-.1-.156-.058-.337-.025-.463.1L.127 2.134c-.125.125-.158.307-.1.462.02.057.054.11.1.156L4.375 7 .127 11.248c-.045.045-.08.1-.1.155-.058.155-.025.337.1.463l2.006 2.006c.125.125.307.157.463.1.057-.02.11-.054.156-.1L7 9.625l4.247 4.247c.045.046.1.08.155.1.156.06.338.025.464-.1l2.006-2.006c.125-.126.158-.308.1-.463-.02-.056-.055-.11-.1-.155z"/></svg>