<svg xmlns="http://www.w3.org/2000/svg" width="14" height="14" viewBox="0 0 14 14"><path d="M11.188 12.272V1.73c0-.118-.088-.235-.205-.235h-.527V11.54c0 .117-.117.206-.234.206h-7.41v.526c0 .117.088.234.205.234h7.967c.117 0 .204-.116.204-.234z"/><path d="M12.477 2.99h-.527v10.045c0 .117-.117.206-.234.206h-7.41v.528c0 .146.088.234.234.234h7.937c.117 0 .206-.087.206-.233V3.222c0-.117-.09-.234-.206-.234z"/><path d="M9.46 0H1.522c-.117 0-.205.09-.205.235v10.543c0 .117.088.234.205.234H9.46c.146 0 .234-.117.234-.234V.235C9.694.09 9.606 0 9.46 0zm-.82 9.666H2.52v-.82h6.12v.82zm0-1.874H2.52v-.82h6.12v.82zm0-1.875H2.52v-.82h6.12v.82zm0-1.875H2.52v-.82h6.12v.82zm0-1.874H4.306v-.82H8.64v.82z"/></svg>