<svg xmlns="http://www.w3.org/2000/svg" width="14" height="14" viewBox="0 0 14 14"><path d="M3.992 3.51h6.015v.875H3.992zm0 2.097h6.015v.875H3.992z"/><path d="M12.547 0H1.463c-.16 0-.29.13-.29.292v9.72c-.004.026-.01.055-.01.083 0 1.433 1.074 2.617 2.458 2.797l-.006.007 8.643 1.1c.322 0 .583-.26.583-.585V.292c0-.162-.13-.292-.29-.292zM11.38 12.31L5.593 8.916c-.135-.086-.246-.025-.246.136v.998-.004.05c0 .752-.61 1.364-1.36 1.364s-1.357-.563-1.357-1.315c0-.026.003-.063 0-.09V1.458h8.75V12.31z"/></svg>