<svg xmlns="http://www.w3.org/2000/svg" width="14" height="14" viewBox="0 0 14 14"><path d="M4.292 7l2.75-3.11c.204-.202.204-.533 0-.736-.203-.203-.535-.203-.738 0l-3.07 3.47c-.104.104-.152.24-.15.375-.002.133.046.27.15.374l3.07 3.472c.204.203.536.203.74 0 .203-.202.203-.535 0-.737L4.29 7z"/><path d="M8.015 7l2.75-3.11c.204-.203.204-.534 0-.737s-.534-.203-.736 0l-3.076 3.47c-.104.105-.154.24-.152.376 0 .133.048.27.152.374l3.07 3.472c.205.203.536.203.738 0 .205-.202.205-.535 0-.737L8.012 7z"/></svg>