<svg xmlns="http://www.w3.org/2000/svg" width="14" height="14" viewBox="0 0 14 14"><path d="M7 0C3.134 0 0 3.134 0 7s3.134 7 7 7c3.867 0 7-3.134 7-7s-3.134-7-7-7zm4.29 3.63c.682.866 1.11 1.94 1.163 3.113-.79-.167-1.537-.25-2.232-.25-.56 0-1.082.052-1.58.14-.12-.295-.24-.58-.363-.85 1.103-.485 2.163-1.175 3.02-2.154zM7 1.54c1.29 0 2.47.45 3.406 1.2-.717.856-1.662 1.477-2.682 1.915-.718-1.387-1.41-2.38-1.885-2.986.37-.09.76-.13 1.16-.13zm-2.413.568c.38.448 1.138 1.433 1.95 2.97-1.65.49-3.31.607-4.314.606h-.085c-.17 0-.315-.003-.437-.007.4-1.567 1.47-2.867 2.89-3.57zM1.54 7v-.08c.157.007.357.012.598.012 1.1-.007 3.015-.1 4.958-.712.106.232.21.473.314.723-1.297.434-2.32 1.125-3.075 1.814-.727.662-1.22 1.318-1.506 1.757C2.02 9.562 1.54 8.34 1.54 7zM7 12.462c-1.215 0-2.335-.402-3.244-1.076.193-.318.607-.93 1.267-1.56.678-.65 1.614-1.32 2.837-1.72.415 1.166.792 2.498 1.078 3.998-.603.23-1.255.358-1.938.358zm3.09-.97c-.276-1.356-.625-2.58-1.007-3.67.354-.05.727-.08 1.12-.08h.016c.65 0 1.36.08 2.14.257-.27 1.44-1.11 2.68-2.27 3.49z"/></svg>