<svg xmlns="http://www.w3.org/2000/svg" width="14" height="14" viewBox="0 0 14 14"><path d="M12.933.63c-.257-.257-.672-.257-.93 0L9.24 3.393c-.71-.216-1.462-.33-2.24-.33-3.053 0-5.7 1.777-7 4.374C.562 8.56 1.376 9.53 2.366 10.27L.192 12.443c-.256.256-.256.672 0 .928.128.13.296.195.464.195s.336-.064.464-.192L12.933 1.56c.255-.257.255-.672 0-.93zM5.687 4.812c.578 0 1.067.373 1.243.89L5.266 7.37c-.518-.176-.89-.666-.89-1.243 0-.725.586-1.312 1.31-1.312zM1.505 7.438c.524-.828 1.22-1.53 2.043-2.056l.163-.1c-.134.374-.21.778-.21 1.198 0 .75.238 1.446.64 2.016l-.833.833c-.717-.507-1.33-1.15-1.8-1.894zM10.5 6.48c0-.372-.06-.73-.166-1.065l-4.4 4.4c.337.107.694.165 1.066.165 1.933 0 3.5-1.567 3.5-3.5z"/><path d="M11.348 4.402l-.95.95.054.03c.82.525 1.52 1.228 2.043 2.056-.524.828-1.222 1.53-2.043 2.055C9.417 10.153 8.224 10.5 7 10.5c-.53 0-1.052-.065-1.56-.19l-1.05 1.05c.816.293 1.694.452 2.61.452 3.052 0 5.698-1.777 7-4.375-.616-1.23-1.534-2.274-2.652-3.035z"/></svg>