<svg xmlns="http://www.w3.org/2000/svg" width="14" height="14" viewBox="0 0 14 14"><path d="M13.066 1H9.333c-.515 0-.933.418-.933.933 0 0-.122.856-.934.934H.933C.418 2.867 0 3.285 0 3.8v8.4c0 .515.418.934.933.934h12.133c.516 0 .934-.42.934-.934V1.933c0-.515-.418-.933-.934-.933zM9.8 8.467H7.467V10.8c0 .257-.21.467-.467.467s-.467-.21-.467-.467V8.467H4.2c-.258 0-.467-.21-.467-.467s.21-.467.467-.467h2.333V5.2c0-.258.21-.467.467-.467s.467.21.467.467v2.333H9.8c.257 0 .467.21.467.467s-.21.467-.467.467z"/></svg>