<svg xmlns="http://www.w3.org/2000/svg" width="14" height="14" viewBox="0 0 14 14"><path d="M13.956 7.77c.026-.252.044-.51.044-.77s-.018-.518-.045-.77l-1.912-.682c-.11-.383-.262-.748-.452-1.09l.87-1.83c-.32-.402-.684-.768-1.09-1.09l-1.83.87c-.34-.19-.705-.34-1.09-.45L7.77.043C7.518.017 7.26 0 7 0s-.518.017-.77.044l-.682 1.913c-.382.11-.748.26-1.09.45l-1.83-.87c-.402.323-.768.69-1.09 1.09l.87 1.83c-.19.342-.34.708-.45 1.09L.043 6.23C.017 6.48 0 6.74 0 7s.017.518.044.77l1.914.682c.11.385.26.748.45 1.09l-.87 1.83c.323.403.688.77 1.09 1.092l1.83-.87c.342.188.708.34 1.09.45l.682 1.913c.252.025.51.043.77.043s.518-.018.77-.045l.682-1.914c.385-.11.748-.26 1.09-.45l1.83.87c.403-.32.77-.684 1.092-1.09l-.87-1.83c.188-.34.34-.71.45-1.09l1.912-.68zM7 10.5c-1.933 0-3.5-1.567-3.5-3.5S5.067 3.5 7 3.5s3.5 1.567 3.5 3.5-1.567 3.5-3.5 3.5z"/><circle cx="7" cy="7" r="1.75"/></svg>