<svg xmlns="http://www.w3.org/2000/svg" width="14" height="14" viewBox="0 0 14 14"><path d="M7 .173c-3.866 0-7 3.134-7 7 0 3.094 2.005 5.717 4.787 6.643.35.063.478-.152.478-.337 0-.17-.006-.72-.01-1.31-1.76.32-2.21-.43-2.357-.83-.076-.21-.416-.83-.716-.99-.246-.14-.592-.46-.014-.46.553-.01.948.51 1.073.72.63 1.06 1.64.76 2.04.58.07-.45.25-.76.45-.94-1.55-.18-3.19-.78-3.19-3.46 0-.77.28-1.39.72-1.88-.07-.18-.31-.89.07-1.85 0 0 .59-.19 1.93.72.56-.16 1.16-.24 1.75-.24.6 0 1.2.08 1.76.232 1.337-.907 1.925-.72 1.925-.72.383.965.143 1.676.07 1.853.448.49.72 1.114.72 1.88 0 2.687-1.64 3.28-3.196 3.453.25.22.474.645.474 1.297 0 .94-.01 1.69-.01 1.92 0 .19.13.408.48.34C12 12.885 14 10.26 14 7.17c0-3.866-3.133-7-7-7z"/></svg>