<svg xmlns="http://www.w3.org/2000/svg" width="14" height="14" viewBox="0 0 14 14"><path d="M7.644 1.086H3.98C2.34 1.086.794 2.33.794 3.772c0 1.473 1.12 2.66 2.79 2.66.117 0 .23 0 .34-.01-.11.208-.187.442-.187.684 0 .41.22.74.5 1.012-.21 0-.415.007-.636.007-2.03 0-3.6 1.295-3.6 2.64 0 1.322 1.72 2.15 3.75 2.15 2.32 0 3.6-1.317 3.6-2.64 0-1.06-.31-1.696-1.28-2.38-.33-.235-.96-.805-.96-1.14 0-.392.11-.586.707-1.047.606-.474 1.035-1.14 1.035-1.913 0-.922-.41-1.82-1.18-2.116h1.16l.82-.6zm-1.28 8.96c.03.124.045.25.045.38 0 1.068-.69 1.903-2.67 1.903-1.41 0-2.42-.89-2.42-1.96 0-1.05 1.26-1.92 2.66-1.91.33 0 .633.053.91.143.763.53 1.31.83 1.465 1.435zM4.114 6.06c-.944-.028-1.84-1.056-2.005-2.295-.17-1.24.47-2.188 1.41-2.16.94.028 1.84 1.023 2 2.263s-.47 2.22-1.416 2.192zm7.26-2.35V1.087H10.5V3.71H7.875v.876H10.5V7.21h.875V4.587H14V3.71h-2.625z"/></svg>