<svg xmlns="http://www.w3.org/2000/svg" width="14" height="14" viewBox="0 0 14 14"><path d="M13.364 8.162h-1.162c-.35 0-.58.232-.58.58v2.612c0 .178-.117.294-.295.294H2.61c-.17 0-.286-.116-.286-.294V2.646c0-.178.116-.294.287-.294h2.62c.35 0 .58-.232.58-.58V.607c0-.35-.23-.58-.58-.58H.58C.233.027 0 .26 0 .607V13.39c0 .35.232.582.58.582h12.784c.35 0 .58-.232.58-.58V8.74c0-.347-.23-.58-.58-.58z"/><path d="M5.342 9.32H9.99c.35 0 .582-.232.582-.58V7.578c0-.35-.232-.58-.582-.58h-.58c-.232 0-.404-.295-.232-.527l4.648-4.64c.232-.23.232-.58 0-.81l-.813-.813c-.232-.232-.58-.232-.813 0l-4.65 4.64c-.17.178-.52.062-.52-.232v-.58c0-.35-.232-.58-.58-.58H5.287c-.35 0-.58.23-.58.58V8.68c.053.41.286.642.634.642z"/></svg>