<svg xmlns="http://www.w3.org/2000/svg" width="14" height="14" viewBox="0 0 14 14"><path d="M8.75 7.875h.875v-1.75H8.75v1.75zM10.5 3.5h-.875v1.75h.875V3.5zm-1.75 0h-.875v1.75h.875V3.5zM7 7.875h.875v-1.75H7v1.75zM5.25 10.5h4.375V8.75H5.25v1.75zm5.25-2.625h1.75V3.5h-.875v2.625H10.5v1.75zm-7 2.625h.875V8.75H3.5v1.75zm7 0h1.75V8.75H10.5v1.75zM7 3.5h-.875v1.75H7V3.5zM2.625 6.125H1.75v1.75h.875v-1.75zm0 2.625H1.75v1.75h.875V8.75zM0 1.75v10.5h14V1.75H0zm13.125 9.625H.875v-8.75h12.25v8.75zm-7.875-3.5h.875v-1.75H5.25v1.75zM3.5 3.5H1.75v1.75H3.5V3.5zm1.75 0h-.875v1.75h.875V3.5zM3.5 7.875h.875v-1.75H3.5v1.75z"/></svg>