<svg xmlns="http://www.w3.org/2000/svg" width="14" height="14" viewBox="0 0 14 14"><path d="M6.995 1.8L2.32.15v10.172l4.675-1.51"/><path fill="#FFF" d="M6.883 1.794l4.852-1.65v10.173l-4.852-1.51"/><path fill="#FFF" d="M1.11 12.104l5.773-1.925V1.79L1.11 3.718"/><path d="M9.514 12.23l.818 1.346.432-1.25M3.072 4.684c-.03-.03.04.246.14.346.173.176.31.198.38.2.162.007.36-.04.477-.088.11-.05.31-.15.38-.3.01-.03.06-.084.03-.216-.02-.1-.09-.136-.17-.13-.08.004-.32.068-.43.103-.12.03-.36.1-.46.13-.11.02-.33-.02-.37-.05zm2.913 3.3c-.045-.016-.987-.405-1.12-.47-.11-.052-.377-.164-.503-.216.355-.547.58-.96.61-1.022.054-.116.43-.85.44-.896.007-.046.018-.215.01-.255-.01-.042-.147.038-.334.1-.187.064-.543.296-.68.325-.138.028-.58.195-.804.27-.226.075-.653.205-.828.253-.176.047-.33.05-.428.08 0 0 .013.138.04.18.025.04.118.142.226.17.108.028.287.017.37-.002.08-.01.222-.08.24-.11.02-.03-.01-.12.023-.15.032-.03.462-.13.624-.17.17-.05.79-.26.87-.25-.02.09-.52 1.08-.68 1.38-.16.29-1.1 1.59-1.3 1.82-.15.18-.51.62-.64.72.03.01.26-.01.3-.03.26-.16.69-.693.83-.856.41-.48.77-.985 1.05-1.42.06.024.51.39.63.47.12.084.58.34.68.385.1.044.49.22.51.16.02-.06-.07-.413-.11-.43z"/><path fill-rule="evenodd" clip-rule="evenodd" d="M3.81 12.888c.09.055.176.1.272.146.19.095.406.195.61.27.28.106.562.19.843.256.155.035.326.065.49.09.016 0 .462.056.552.056h.45c.176-.015.342-.024.517-.05.14-.02.295-.045.446-.08.11-.025.226-.05.336-.085.105-.03.226-.07.34-.11.076-.02.156-.06.236-.09.065-.03.146-.06.22-.09.09-.04.196-.09.296-.14.08-.04.17-.09.256-.14.065-.03.216-.15.296-.15.09 0 .15.08.15.15 0 .15-.195.19-.286.26-.095.07-.21.12-.31.17-.2.11-.406.2-.603.27-.25.1-.53.19-.78.25-.09.03-.19.05-.28.07-.05.01-.57.09-.71.09h-.66c-.17-.01-.36-.03-.53-.06-.15-.02-.32-.05-.47-.09-.12-.02-.25-.06-.37-.09-.2-.053-.393-.123-.583-.2-.35-.13-.71-.3-1.05-.523-.06-.04-.065-.08-.065-.13 0-.075.05-.145.14-.145.08 0 .24.117.27.13zm2.917-2.822l-5.46 1.82v-8.06l5.46-1.82v8.06zm.305-8.292v8.417c-.005.03-.015.06-.035.08-.01.02-.03.04-.045.04-.125.05-5.768 1.95-5.843 1.95-.06 0-.12-.04-.15-.1 0 0-.01-.01-.01-.02V3.7c.01-.025.01-.06.03-.08.04-.056.11-.066.15-.08.08-.03 5.64-1.895 5.72-1.895.05 0 .16.036.16.126z"/><path fill-rule="evenodd" clip-rule="evenodd" d="M11.582 10.106L7.037 8.693v-6.79l4.545-1.54v9.745zM11.888.16v10.137c-.005.115-.085.166-.16.166-.065 0-.536-.16-.616-.186L9.217 9.69c-.14-.045-.285-.09-.42-.135-.12-.034-.25-.075-.372-.115-.536-.166-1.082-.33-1.618-.51-.02-.006-.07-.076-.07-.09V1.76c.01-.026.02-.056.045-.076.04-.045 1.758-.616 2.435-.842.18-.065 2.44-.842 2.51-.842.09 0 .16.065.16.16z"/><path d="M13.04 12.23l-6.07-1.935.025-8.425 6.046 1.924"/><path fill-rule="evenodd" clip-rule="evenodd" fill="#FFF" d="M9.98 5.635l-.596 1.44 1.096.332-.5-1.772zm-.357-1.36l.782.237 1.425 5.136-.804-.244-.288-1.054-1.66-.503-.357.86-.8-.245 1.71-4.187z"/></svg>