<svg xmlns="http://www.w3.org/2000/svg" width="14" height="14" viewBox="0 0 14 14"><path d="M.96 12.993V0H0v14h14v-1.007"/><path d="M12 2c-.553 0-1 .447-1 1 0 .233.093.438.227.608L9.407 6.09C9.282 6.034 9.147 6 9 6c-.266 0-.504.107-.684.276L6.94 5.294C6.97 5.2 7 5.104 7 5c0-.553-.448-1-1-1s-1 .447-1 1c0 .18.06.338.142.483L3.526 7.17C3.37 7.073 3.198 7 3 7c-.552 0-1 .447-1 1 0 .27.11.51.28.69L.073 12.482c-.056.1.014.244.157.328.142.084.305.073.36-.025l2.227-3.822c.06.012.118.037.183.037.552 0 1-.447 1-1 0-.134-.028-.262-.077-.38l1.652-1.723C5.705 5.96 5.847 6 6 6c.228 0 .428-.09.596-.218l1.442 1.03C8.025 6.877 8 6.935 8 7c0 .553.447 1 1 1s1-.447 1-1c0-.186-.064-.35-.152-.5l1.876-2.556c.09.027.178.056.276.056.553 0 1-.447 1-1s-.447-1-1-1zM3 8.5c-.276 0-.5-.225-.5-.5s.224-.5.5-.5.5.225.5.5-.224.5-.5.5zm3-3c-.276 0-.5-.225-.5-.5s.224-.5.5-.5.5.225.5.5-.224.5-.5.5zm3 2c-.276 0-.5-.225-.5-.5s.224-.5.5-.5.5.225.5.5-.224.5-.5.5zm3-4c-.276 0-.5-.225-.5-.5s.224-.5.5-.5.5.225.5.5-.224.5-.5.5z"/></svg>