<svg id="Capa_1" enable-background="new 0 0 510 510" height="512" viewBox="0 0 510 510" width="512" xmlns="http://www.w3.org/2000/svg" xmlns:xlink="http://www.w3.org/1999/xlink"><linearGradient id="SVGID_1_" gradientUnits="userSpaceOnUse" x1="483.739" x2="420.166" y1="250.186" y2="227.339"><stop offset="0" stop-color="#78a91f" stop-opacity="0"/><stop offset="1" stop-color="#017b4e"/></linearGradient><linearGradient id="SVGID_00000014608660772730362370000013153530287572982444_" gradientUnits="userSpaceOnUse" x1="55.679" x2="359.333" y1="131.527" y2="315.189"><stop offset="0" stop-color="#62dbfb"/><stop offset=".1912" stop-color="#57d5fa"/><stop offset=".5232" stop-color="#3bc5f7"/><stop offset=".954" stop-color="#0dabf2"/><stop offset="1" stop-color="#08a9f1"/></linearGradient><linearGradient id="lg1"><stop offset="0" stop-color="#0593fc" stop-opacity="0"/><stop offset=".6831" stop-color="#0389fc" stop-opacity=".683"/><stop offset="1" stop-color="#0182fc"/></linearGradient><linearGradient id="SVGID_00000072263816061364341470000010387728327861003653_" gradientUnits="userSpaceOnUse" x1="255" x2="255" xlink:href="#lg1" y1="335.677" y2="448.822"/><linearGradient id="SVGID_00000101083777092779139590000005137532443071980419_" gradientUnits="userSpaceOnUse" x1="228.084" x2="126.209" xlink:href="#lg1" y1="327.398" y2="245.498"/><linearGradient id="lg2"><stop offset="0" stop-color="#eaf6ff"/><stop offset="1" stop-color="#b3dafe"/></linearGradient><linearGradient id="SVGID_00000142898906074609550840000011127192882903423137_" gradientUnits="userSpaceOnUse" x1="243.017" x2="264.906" xlink:href="#lg2" y1="296.895" y2="393.074"/><linearGradient id="lg3"><stop offset="0" stop-color="#7bacdf" stop-opacity="0"/><stop offset="1" stop-color="#7bacdf"/></linearGradient><linearGradient id="SVGID_00000069362016556266779020000014970480948638346389_" gradientUnits="userSpaceOnUse" x1="244.758" x2="279.901" xlink:href="#lg3" y1="298.949" y2="472.672"/><linearGradient id="SVGID_00000124860434863447019550000011440024104444651949_" gradientUnits="userSpaceOnUse" x1="244.758" x2="279.901" xlink:href="#lg3" y1="291.023" y2="464.747"/><linearGradient id="SVGID_00000006671507146868362440000014516321091239074212_" gradientUnits="userSpaceOnUse" x1="244.758" x2="279.901" xlink:href="#lg3" y1="283.098" y2="456.822"/><linearGradient id="SVGID_00000142870800762120128280000000560616742323701888_" gradientUnits="userSpaceOnUse" x1="244.758" x2="279.901" xlink:href="#lg3" y1="275.173" y2="448.897"/><linearGradient id="SVGID_00000104668030184298198510000017733553940039970444_" gradientUnits="userSpaceOnUse" x1="319.359" x2="252.794" xlink:href="#lg3" y1="340.391" y2="353.038"/><linearGradient id="SVGID_00000103236281833095567850000018390218532268951430_" gradientUnits="userSpaceOnUse" x1="73.546" x2="350.286" y1="96.625" y2="264.008"><stop offset="0" stop-color="#eaf9fa"/><stop offset="1" stop-color="#b3dafe"/></linearGradient><linearGradient id="SVGID_00000121984830332261987420000005809603770084805281_" gradientUnits="userSpaceOnUse" x1="263.234" x2="391.307" xlink:href="#lg2" y1="131.187" y2="227.408"/><linearGradient id="SVGID_00000128469650788671698800000009969728658765747333_" gradientUnits="userSpaceOnUse" x1="429.413" x2="378.911" xlink:href="#lg1" y1="338.868" y2="288.365"/><linearGradient id="SVGID_00000155140364491894982540000011242132820227915648_" gradientUnits="userSpaceOnUse" x1="165.934" x2="220.35" y1="404.43" y2="458.846"><stop offset="0" stop-color="#ffdfcf"/><stop offset="1" stop-color="#ffa78f"/></linearGradient><linearGradient id="lg4"><stop offset="0" stop-color="#fef0ae"/><stop offset="1" stop-color="#fbc56d"/></linearGradient><linearGradient id="SVGID_00000029765224459139097120000017752008464354406798_" gradientTransform="matrix(.707 .707 -.707 .707 -2050.187 -2103.676)" gradientUnits="userSpaceOnUse" x1="3329.211" x2="3430.063" xlink:href="#lg4" y1="-23.171" y2="-23.171"/><linearGradient id="SVGID_00000023975761653541310740000014375366603174488758_" gradientUnits="userSpaceOnUse" x1="409.909" x2="294.576" xlink:href="#lg4" y1="415.537" y2="162.87"/><linearGradient id="SVGID_00000183220348585549215180000002978068390035206044_" gradientTransform="matrix(.707 .707 -.707 .707 -2050.187 -2103.676)" gradientUnits="userSpaceOnUse" x1="3374.292" x2="3388.464" y1="244.575" y2="244.575"><stop offset="0" stop-color="#5a5a5a"/><stop offset="1" stop-color="#444"/></linearGradient><g><g><g><g><path d="m496.24 85.119c-12.025-4.106-24.112-7.542-36.24-10.332v336.429c8.845 2.034 17.668 4.406 26.461 7.141 11.674 3.63 23.539-5.059 23.539-17.18v-297.053c0-8.602-5.551-16.202-13.76-19.005z" fill="url(#SVGID_1_)"/><g><path d="m255 90.116c-79.298-30.521-161.618-32.183-241.24-4.997-8.209 2.803-13.76 10.403-13.76 19.005v297.053c0 12.121 11.865 20.81 23.539 17.18 64.507-20.061 130.619-21.286 195.326-3.672 23.631 6.433 48.639 6.432 72.271 0 64.702-17.612 130.814-16.389 195.325 3.673 11.674 3.63 23.539-5.059 23.539-17.18v-297.054c0-8.602-5.551-16.202-13.76-19.005-79.629-27.189-161.949-25.52-241.24 4.997z" fill="url(#SVGID_00000014608660772730362370000013153530287572982444_)"/><path d="m0 266.181v134.997c0 12.121 11.865 20.81 23.539 17.18 64.507-20.06 130.619-21.286 195.326-3.672 23.631 6.433 48.639 6.432 72.271 0 64.702-17.612 130.814-16.389 195.325 3.673 11.674 3.63 23.539-5.059 23.539-17.18v-134.998z" fill="url(#SVGID_00000072263816061364341470000010387728327861003653_)"/><path d="m29.666 324.482v69.625l17.847 17.68c56.845-13.504 114.639-12.541 171.352 2.897 23.631 6.433 48.639 6.432 72.271 0 64.702-17.612 130.814-16.389 195.325 3.673 11.674 3.63 23.539-5.059 23.539-17.18v-76.695z" fill="url(#SVGID_00000101083777092779139590000005137532443071980419_)"/><path d="m472.668 298.688c-71.897-23.9-146.132-22.08-217.668 5.452-71.542-27.535-145.776-29.349-217.668-5.451-9.059 3.012-15.204 11.371-15.204 20.837v60.56c0 11.429 11.188 19.546 22.204 16.147 63.714-19.661 129.131-19.21 192.771 1.361 11.784 3.809 24.483 3.637 36.272-.154 63.485-20.416 128.733-20.82 192.292-1.206 11.015 3.399 22.204-4.718 22.204-16.147v-60.56c0-9.467-6.144-17.827-15.203-20.839z" fill="url(#SVGID_00000142898906074609550840000011127192882903423137_)"/><path d="m472.668 298.688c-71.897-23.9-146.132-22.08-217.668 5.452-71.542-27.535-145.776-29.349-217.668-5.451-9.059 3.012-15.204 11.371-15.204 20.837v60.56c0 11.429 11.188 19.546 22.204 16.147 63.714-19.661 129.131-19.21 192.771 1.361 11.784 3.809 24.483 3.637 36.272-.154 63.485-20.416 128.733-20.82 192.292-1.206 11.015 3.399 22.204-4.718 22.204-16.147v-60.56c0-9.467-6.144-17.827-15.203-20.839z" fill="url(#SVGID_00000069362016556266779020000014970480948638346389_)"/><path d="m472.668 290.763c-71.897-23.9-146.132-22.08-217.668 5.452-71.542-27.535-145.776-29.349-217.668-5.451-9.059 3.012-15.204 11.371-15.204 20.837v60.56c0 11.429 11.188 19.546 22.204 16.147 63.714-19.661 129.131-19.21 192.771 1.361 11.784 3.809 24.483 3.637 36.272-.154 63.485-20.416 128.733-20.82 192.292-1.206 11.015 3.399 22.204-4.718 22.204-16.147v-60.56c0-9.468-6.144-17.827-15.203-20.839z" fill="url(#SVGID_00000124860434863447019550000011440024104444651949_)"/><path d="m472.668 282.838c-71.897-23.9-146.132-22.08-217.668 5.452-71.542-27.535-145.776-29.349-217.668-5.451-9.059 3.012-15.204 11.371-15.204 20.837v60.56c0 11.429 11.188 19.546 22.204 16.147 63.714-19.661 129.131-19.21 192.771 1.361 11.784 3.809 24.483 3.637 36.272-.155 63.485-20.416 128.733-20.82 192.292-1.206 11.015 3.399 22.204-4.718 22.204-16.147v-60.56c0-9.467-6.144-17.826-15.203-20.838z" fill="url(#SVGID_00000006671507146868362440000014516321091239074212_)"/><path d="m472.668 274.913c-71.897-23.9-146.132-22.08-217.668 5.452-71.542-27.535-145.776-29.349-217.668-5.451-9.059 3.012-15.204 11.371-15.204 20.837v60.56c0 11.429 11.188 19.546 22.204 16.147 63.714-19.661 129.131-19.21 192.771 1.361 11.784 3.809 24.483 3.637 36.272-.154 63.485-20.416 128.733-20.82 192.292-1.206 11.015 3.399 22.204-4.718 22.204-16.147v-60.56c0-9.468-6.144-17.827-15.203-20.839z" fill="url(#SVGID_00000142870800762120128280000000560616742323701888_)"/><path d="m273.376 397.439c32.381-10.413 65.22-15.607 98.06-15.607v-99.792c-.017 0-.034 0-.051 0l-98.933 15.93c-5.833 1.894-11.652 3.939-17.453 6.172v96.223c6.202-.018 12.406-1.006 18.377-2.926z" fill="url(#SVGID_00000104668030184298198510000017733553940039970444_)"/><path d="m472.668 52.938c-71.898-23.9-146.133-22.08-217.668 5.452-71.542-27.535-145.776-29.349-217.668-5.451-9.059 3.011-15.203 11.371-15.203 20.837v268.005c0 11.429 11.188 19.546 22.204 16.147 63.714-19.661 129.131-19.21 192.771 1.361 11.784 3.809 24.483 3.637 36.272-.154 63.485-20.416 128.733-20.82 192.292-1.206 11.015 3.399 22.204-4.718 22.204-16.147v-268.006c-.001-9.466-6.145-17.826-15.204-20.838z" fill="url(#SVGID_00000103236281833095567850000018390218532268951430_)"/><path d="m273.376 359.134c63.485-20.416 128.733-20.82 192.292-1.206 11.015 3.399 22.204-4.718 22.204-16.147v-268.005c0-9.466-6.144-17.826-15.204-20.838-71.898-23.9-146.133-22.08-217.668 5.452v303.669c6.201-.017 12.405-1.004 18.376-2.925z" fill="url(#SVGID_00000121984830332261987420000005809603770084805281_)"/></g></g></g><g><g><g><g><g fill="#7bacdf"><path d="m200.997 73.541c-33.372-1.726-66.035-1.231-99.109 1.496-5.295.519-9.579 5.314-9.579 10.615s4.284 9.1 9.579 8.582c33.074-2.727 65.737-3.222 99.109-1.496 5.337.357 9.663-3.574 9.663-8.875s-4.325-9.965-9.663-10.322z"/><path d="m68.765 79.223c-4.315.669-6.469 1.024-10.772 1.772-5.241.912-9.477 6.027-9.477 11.327 0 5.301 4.236 8.781 9.477 7.869 4.302-.749 6.457-1.103 10.772-1.772 5.257-.815 9.529-5.695 9.529-10.996.001-5.301-4.272-9.015-9.529-8.2z"/></g></g><g><g fill="#7bacdf"><path d="m57.994 141.637c14.256-2.538 28.786-4.519 43.255-5.895 5.295-.524 9.595-5.169 9.595-10.47s-4.301-9.251-9.595-8.726c-14.469 1.376-29 3.357-43.256 5.895-5.241.912-9.477 6.027-9.477 11.328s4.236 8.78 9.478 7.868z"/><path d="m134.573 133.38c4.368-.188 6.553-.261 10.926-.37 5.327-.132 9.649-4.459 9.649-9.76s-4.323-9.568-9.65-9.437c-4.373.108-6.558.182-10.926.369-5.321.228-9.629 4.788-9.629 10.089.001 5.302 4.309 9.337 9.63 9.109z"/><path d="m200.997 163.976c-33.372-1.726-66.035-1.231-99.109 1.496-5.295.519-9.579 5.314-9.579 10.615s4.284 9.1 9.579 8.582c33.074-2.727 65.737-3.222 99.109-1.496 5.337.357 9.663-3.574 9.663-8.875s-4.325-9.965-9.663-10.322z"/><path d="m68.765 169.659c-4.315.669-6.469 1.024-10.772 1.772-5.241.912-9.477 6.027-9.477 11.327 0 5.301 4.236 8.781 9.477 7.869 4.302-.749 6.457-1.103 10.772-1.772 5.257-.815 9.529-5.695 9.529-10.996.001-5.301-4.272-9.015-9.529-8.2z"/></g></g></g><g><g><g fill="#7bacdf"><path d="m200.997 209.191c-33.372-1.726-66.035-1.231-99.109 1.496-5.295.519-9.579 5.314-9.579 10.615s4.284 9.1 9.579 8.582c33.074-2.727 65.737-3.222 99.109-1.496 5.337.357 9.663-3.574 9.663-8.875s-4.325-9.965-9.663-10.322z"/><path d="m68.765 214.873c-4.315.669-6.469 1.024-10.772 1.772-5.241.912-9.477 6.027-9.477 11.327 0 5.301 4.236 8.781 9.477 7.869 4.302-.749 6.457-1.103 10.772-1.772 5.257-.815 9.529-5.695 9.529-10.996.001-5.3-4.272-9.015-9.529-8.2z"/></g></g><g><g fill="#7bacdf"><path d="m57.994 277.288c14.256-2.538 28.786-4.519 43.255-5.895 5.295-.524 9.595-5.169 9.595-10.47s-4.301-9.251-9.595-8.726c-14.469 1.376-29 3.357-43.256 5.895-5.241.912-9.477 6.027-9.477 11.328s4.236 8.78 9.478 7.868z"/><path d="m134.573 269.03c4.368-.188 6.553-.261 10.926-.37 5.327-.132 9.649-4.459 9.649-9.76s-4.323-9.568-9.65-9.437c-4.373.108-6.558.182-10.926.369-5.321.228-9.629 4.788-9.629 10.089.001 5.303 4.309 9.338 9.63 9.109z"/><path d="m200.997 299.627c-33.372-1.726-66.035-1.231-99.109 1.496-5.295.519-9.579 5.314-9.579 10.615s4.284 9.1 9.579 8.582c33.074-2.727 65.737-3.222 99.109-1.496 5.337.357 9.663-3.574 9.663-8.875 0-5.302-4.325-9.965-9.663-10.322z"/><path d="m68.765 305.309c-4.315.669-6.469 1.024-10.772 1.772-5.241.912-9.477 6.027-9.477 11.327 0 5.301 4.236 8.781 9.477 7.869 4.302-.749 6.457-1.103 10.772-1.772 5.257-.815 9.529-5.695 9.529-10.996.001-5.301-4.272-9.015-9.529-8.2z"/></g></g></g><g fill="#7bacdf"><path d="m291.591 96.808c14.256-2.477 28.786-4.394 43.255-5.708 5.295-.501 9.595-5.128 9.595-10.429s-4.301-9.269-9.595-8.768c-14.469 1.314-29 3.231-43.256 5.708-5.241.889-9.477 5.986-9.477 11.287s4.236 8.799 9.478 7.91z"/><path d="m368.17 88.882c4.368-.169 6.553-.233 10.926-.322 5.327-.109 9.649-4.417 9.649-9.718s-4.323-9.587-9.65-9.478c-4.373.089-6.558.154-10.926.322-5.321.205-9.629 4.746-9.629 10.047 0 5.3 4.308 9.354 9.63 9.149z"/><path d="m434.594 119.766c-33.372-1.87-66.035-1.517-99.109 1.068-5.295.496-9.579 5.273-9.579 10.573 0 5.301 4.284 9.119 9.579 8.623 33.074-2.584 65.737-2.938 99.109-1.067 5.337.38 9.663-3.532 9.663-8.834 0-5.301-4.325-9.983-9.663-10.363z"/><path d="m302.362 124.876c-4.315.65-6.469.996-10.772 1.726-5.241.889-9.477 5.986-9.477 11.286 0 5.301 4.236 8.799 9.477 7.91 4.302-.73 6.457-1.075 10.772-1.726 5.257-.792 9.529-5.654 9.529-10.955.001-5.301-4.272-9.034-9.529-8.241z"/></g></g></g></g><path d="m510 401.177v-233.396l-251.674 251.673c11.049-.267 22.071-1.847 32.81-4.77 64.702-17.612 130.814-16.389 195.325 3.673 11.674 3.631 23.539-5.059 23.539-17.18z" fill="url(#SVGID_00000128469650788671698800000009969728658765747333_)"/><g><path d="m196.122 358.23-15.581 15.581c-7.895 7.895-13.367 17.882-15.771 28.784l-12.54 56.854c-1.846 8.371 5.615 15.832 13.986 13.986l56.854-12.54c10.902-2.405 20.89-7.877 28.784-15.772l15.581-15.581z" fill="url(#SVGID_00000155140364491894982540000011242132820227915648_)"/><path d="m495.231 201.748-227.932 227.931c-3.462 3.462-8.929 3.643-12.758.591-2.022-1.612-4.584-2.573-7.371-2.571l-6.853-.006c-6.537.006-11.833-5.29-11.827-11.827l-.006-6.853c0-6.543-5.29-11.833-11.833-11.833l-6.853-.006c-6.537.006-11.833-5.29-11.827-11.827l-.006-6.853c.003-2.787-.959-5.35-2.571-7.371-3.052-3.829-2.872-9.295.591-12.758l227.931-227.931c19.693-19.693 51.62-19.693 71.313 0 19.694 19.693 19.694 51.621.002 71.314z" fill="url(#SVGID_00000029765224459139097120000017752008464354406798_)"/><path d="m482.873 142.792c-10.435-10.435-27.354-10.435-37.789 0l-246.447 246.447c1.608 4.621 5.991 7.94 11.162 7.935l6.853.006c6.542 0 11.833 5.29 11.833 11.833l.006 6.853c-.004 5.171 3.315 9.554 7.935 11.162l246.447-246.448c10.435-10.435 10.435-27.353 0-37.788z" fill="url(#SVGID_00000023975761653541310740000014375366603174488758_)"/><path d="m177.882 447.783c-6.307-6.307-13.136-11.291-19.821-14.771l-5.831 26.438c-1.846 8.371 5.615 15.832 13.986 13.986l26.438-5.831c-3.481-6.686-8.464-13.515-14.772-19.822z" fill="url(#SVGID_00000183220348585549215180000002978068390035206044_)"/></g></g></svg>