<svg xmlns="http://www.w3.org/2000/svg" width="14" height="14" viewBox="0 0 14 14"><path d="M13.062 3.486c-.626-1.072-1.476-1.92-2.548-2.547S8.27 0 7 0C5.73 0 4.56.313 3.486.94 2.414 1.563 1.566 2.413.94 3.485.312 4.56 0 5.73 0 7s.313 2.44.94 3.514 1.474 1.922 2.546 2.547C4.56 13.69 5.73 14 7 14c1.27 0 2.44-.313 3.514-.94 1.072-.624 1.922-1.474 2.548-2.546S14 8.27 14 7c0-1.27-.312-2.44-.938-3.514zM11.54 5.934l-4.95 4.95c-.116.114-.255.173-.42.173-.157 0-.293-.06-.41-.174l-3.3-3.3c-.108-.11-.163-.246-.163-.41 0-.17.055-.31.164-.42l.83-.82c.12-.115.26-.173.41-.173.16 0 .3.058.41.173l2.06 2.06 3.72-3.71c.12-.115.26-.173.41-.173.16 0 .3.058.41.173l.83.82c.11.11.17.25.17.42 0 .165-.054.3-.163.41z"/></svg>