<svg xmlns="http://www.w3.org/2000/svg" width="14" height="14" viewBox="0 0 14 14"><path d="M0 10.156V14h3.844l7.69-7.688-3.846-3.845L0 10.157zm3.354 2.66h-.988v-1.182H1.183v-.99l.84-.84 2.172 2.172-.84.84zm4.63-8.777c.135 0 .203.064.203.2 0 .062-.02.114-.064.157l-5.01 5.007c-.042.043-.094.066-.156.066-.135 0-.203-.067-.203-.203 0-.063.02-.115.064-.158l5.01-5.01c.042-.044.094-.065.156-.065zm5.674-1.528L11.486.35c-.234-.233-.513-.35-.84-.35-.333 0-.61.117-.83.35L8.278 1.877l3.844 3.844 1.534-1.532c.23-.228.342-.505.342-.832 0-.32-.113-.6-.342-.84z"/></svg>