<svg xmlns="http://www.w3.org/2000/svg" width="14" height="14" viewBox="0 0 14 14"><path d="M10.25.256c-.34-.342-.893-.344-1.237-.003-.09.09-.153.198-.196.31C8.09 2.08 7.29 2.936 6.28 3.44c-1.134.56-2.435.95-4.532.95-.114 0-.227.02-.334.065-.214.09-.383.26-.473.473-.086.213-.086.455 0 .667.047.108.11.205.19.285l2.836 2.834L0 14l5.287-3.964L8.12 12.87c.08.08.178.145.285.188.107.045.22.068.334.068s.225-.023.332-.068c.214-.088.385-.257.473-.473.045-.105.067-.22.067-.332 0-2.098.388-3.398.946-4.515.503-1.01 1.358-1.81 2.877-2.538.112-.043.22-.106.31-.197.34-.344.338-.896-.004-1.236L10.25.257z"/></svg>