<svg xmlns="http://www.w3.org/2000/svg" width="14" height="14" viewBox="0 0 14 14"><path d="M7 0C3.134 0 0 3.134 0 7c0 2.965 1.845 5.5 4.45 6.518-.062-.554-.117-1.403.023-2.008.127-.547.82-3.48.82-3.48s-.21-.418-.21-1.038c0-.974.565-1.7 1.268-1.7.6 0 .89.448.89.985 0 .6-.382 1.5-.58 2.33-.165.698.35 1.267 1.037 1.267 1.245 0 2.2-1.313 2.2-3.206 0-1.676-1.203-2.848-2.923-2.848-1.99 0-3.16 1.494-3.16 3.038 0 .602.23 1.248.52 1.597.058.07.066.13.05.2l-.196.795c-.03.128-.1.155-.234.094-.874-.407-1.42-1.686-1.42-2.71 0-2.21 1.603-4.237 4.624-4.237 2.428 0 4.315 1.73 4.315 4.042 0 2.41-1.52 4.35-3.632 4.35-.71 0-1.375-.368-1.603-.804L5.8 11.85c-.158.608-.585 1.37-.87 1.836C5.583 13.89 6.278 14 7 14c3.866 0 7-3.134 7-7s-3.133-7-7-7z"/></svg>