<svg xmlns="http://www.w3.org/2000/svg" width="14" height="14" viewBox="0 0 14 14"><path d="M7 0C3.134 0 0 3.134 0 7c0 3.865 3.134 7 7 7 3.865 0 7-3.135 7-7 0-3.866-3.135-7-7-7zm0 12.288c-.498 0-.9-.402-.9-.9s.402-.9.9-.9.9.402.9.9-.402.9-.9.9zm1.59-4.303c-.367.203-.715.603-.715.765 0 .483-.392.875-.875.875-.482 0-.875-.392-.875-.875 0-1.11 1.02-1.967 1.62-2.298.886-.488 1.005-1.02 1.005-1.475C8.75 3.69 7.653 3.5 7 3.5c-.843 0-1.75.553-1.75 1.768 0 .484-.393.875-.875.875s-.875-.39-.875-.875C3.5 2.983 5.303 1.75 7 1.75c1.743 0 3.5.998 3.5 3.227 0 1.297-.643 2.31-1.91 3.008z"/></svg>