<svg xmlns="http://www.w3.org/2000/svg" width="14" height="14" viewBox="0 0 14 14"><path d="M11.088 4.303c0-.357.002-.696 0-1.034 0-.34-.148-.49-.488-.49H1.376c-.33 0-.476.14-.476.47v3.08h.616V3.41h8.96v.89h.612zm-3.555 6.62l.046-.06c-.4-.196-.52-.54-.52-.937H4.94c-.044.19-.052.394-.14.556-.082.158-.245.273-.406.442H7.53zm5.81-6.21c-1.137.012-2.273.004-3.41.005-.413 0-.597.184-.597.602v5.02c0 .415.188.604.6.604 1.124 0 2.25-.008 3.375.006.34.004.57-.095.69-.412V5.14c-.1-.32-.32-.432-.65-.43zm-2.39 5.94c-.136.002-.25-.11-.247-.244.003-.13.11-.24.237-.24.135-.01.247.11.245.24 0 .13-.106.23-.234.24zm.703 0c-.137-.004-.24-.117-.234-.256.006-.127.12-.23.245-.228.137 0 .24.11.234.25 0 .13-.11.23-.24.22zm.722 0c-.136 0-.246-.11-.243-.248.004-.134.122-.242.256-.235.13.007.23.118.23.248 0 .134-.1.234-.24.235zm1.273-.73H9.67V5.17h3.98v4.756z"/><path d="M11.088 4.303h-.612v-.887h-8.96v2.92H.9V3.26c0-.33.145-.475.476-.476H10.6c.34 0 .488.147.49.484l-.002 1.035zm-8.268 4V9.51h6.097V8.303H2.82zm3.17.875c-.144 0-.27-.124-.272-.27-.004-.146.11-.27.257-.277.156 0 .285.12.29.27.003.15-.126.29-.276.28zm1.543 1.746H4.4c.16-.17.323-.284.406-.442.086-.162.095-.365.14-.556H7.06c0 .4.123.74.52.94l-.048.058zM2.403 7.18c0-.292-.128-.422-.426-.424-.515-.005-1.03-.005-1.543 0-.31.002-.43.128-.43.435 0 1.18.006 2.35-.004 3.53 0 .26.08.43.33.5h1.764c.202-.07.315-.2.313-.44-.006-1.2-.002-2.39-.003-3.59zm-1.228 3.775c-.082 0-.148-.066-.148-.147 0-.082.067-.148.148-.148s.148.067.148.148c0 .082-.066.147-.148.147zm.99-.493H.242V7.524h1.92v2.938z"/></svg>