<svg xmlns="http://www.w3.org/2000/svg" width="14" height="14" viewBox="0 0 14 14"><circle opacity=".4" cx="7" cy="7" r="3.696"/><path d="M13.736 5.68l-1.67-.257c-.09-.3-.217-.602-.373-.893.31-.43.648-.83.957-1.25.05-.062.08-.127.08-.21 0-.07-.02-.145-.063-.2-.382-.537-1.02-1.102-1.503-1.55-.064-.054-.146-.09-.23-.09s-.162.027-.22.082l-1.29.976c-.266-.136-.535-.246-.82-.338L8.34.273C8.323.118 8.177 0 8.014 0H5.99c-.165 0-.293.11-.33.255-.146.547-.2 1.14-.265 1.695-.28.092-.563.21-.828.347L3.31 1.32c-.075-.053-.157-.09-.24-.09-.308 0-1.54 1.33-1.758 1.633-.045.063-.082.126-.082.208 0 .09.037.16.09.22.34.41.668.82.977 1.26-.145.28-.265.55-.356.84l-1.69.25c-.14.03-.25.2-.25.33V8c0 .154.11.3.27.327l1.67.25c.09.31.22.61.38.9-.31.43-.646.83-.96 1.25-.043.064-.07.128-.07.21 0 .073.017.146.06.21.38.527 1.02 1.095 1.5 1.53.065.064.148.1.23.1s.16-.025.23-.08l1.285-.975c.263.135.536.244.82.334l.254 1.678c.02.156.164.275.33.275h2.02c.164 0 .29-.11.33-.26.146-.55.2-1.14.264-1.698.283-.09.565-.21.83-.35l1.258.986c.073.043.155.08.237.08.31 0 1.54-1.34 1.76-1.63.054-.065.08-.13.08-.21s-.036-.166-.093-.23c-.334-.41-.66-.813-.974-1.257.15-.265.26-.54.36-.83l1.69-.254c.147-.027.257-.19.257-.328V6.01c0-.156-.11-.302-.262-.328l-.004-.002zM7 10.5c-1.933 0-3.5-1.566-3.5-3.5S5.066 3.5 7 3.5c1.932 0 3.5 1.566 3.5 3.5S8.932 10.5 7 10.5z"/><path d="M8.063 5.414L6.64 6.834l-.76-.76c-.128-.13-.334-.13-.463 0l-.527.528c-.13.13-.13.336 0 .464l1.52 1.52c.128.13.334.13.464 0l2.18-2.18c.13-.13.13-.337 0-.465l-.528-.52c-.13-.13-.334-.13-.463 0z"/></svg>