<svg xmlns="http://www.w3.org/2000/svg" width="14" height="14" viewBox="0 0 14 14"><path d="M3.173 10.82c.34.34.545.8.546 1.312-.006.51-.21.97-.55 1.308-.34.337-.8.543-1.316.543s-.974-.206-1.31-.543C.207 13.102 0 12.643 0 12.132c0-.512.208-.973.545-1.31.338-.338.8-.545 1.313-.545.515 0 .976.208 1.315.544zm0 0zM.545 13.44zM0 4.76v2.674c1.747 0 3.397.686 4.632 1.923 1.235 1.233 1.918 2.887 1.92 4.638h.002V14h2.684c-.002-2.547-1.037-4.854-2.71-6.528C4.853 5.798 2.548 4.762 0 4.762zM.007 0v2.672C6.247 2.676 11.317 7.755 11.32 14H14c-.002-3.86-1.57-7.356-4.105-9.893C7.358 1.57 3.865 0 .005 0z"/></svg>