<svg id="Capa_1" enable-background="new 0 0 512 512" height="512" viewBox="0 0 512 512" width="512" xmlns="http://www.w3.org/2000/svg"><g id="Speech_Bubble_34_"><g><path d="m251.999 475.999c-3.307 0-6.621-.819-9.624-2.468-6.398-3.513-10.375-10.233-10.375-17.532v-39.998c0-11.028-8.972-20-20-20h-32c-99.252 0-180-80.748-180-180s80.748-180 180-180h152c99.252 0 180 80.748 180 180 0 .827-.005 1.65-.013 2.471-.472 48.483-15.201 84.819-47.755 117.82-29.788 30.196-73.314 57.042-133.559 94.199-20.288 12.513-43.282 26.696-67.938 42.382-3.267 2.079-6.998 3.126-10.736 3.126zm-71.999-399.998c-77.196 0-140 62.804-140 140s62.804 140 140 140h32c33.084 0 60 26.916 60 60v3.774c13.336-8.317 25.956-16.101 37.675-23.329 57.865-35.69 99.674-61.477 126.081-88.245 25.362-25.709 35.86-51.818 36.233-90.117.007-.691.011-1.386.011-2.083 0-77.196-62.804-140-140-140z"/></g><g><path d="m332 196.001h-152c-11.046 0-20-8.954-20-20s8.954-20 20-20h152c11.046 0 20 8.954 20 20s-8.954 20-20 20z"/></g><g><path d="m332 276.001h-152c-11.046 0-20-8.954-20-20s8.954-20 20-20h152c11.046 0 20 8.954 20 20s-8.954 20-20 20z"/></g></g></svg>