<svg width='14px' height='14px' xmlns="http://www.w3.org/2000/svg" viewBox="0 0 100 100" preserveAspectRatio="xMidYMid" class="uil-poi"><rect x="0" y="0" width="100" height="100" fill="none" class="bk"></rect><g transform="translate(50,45)"><g><g transform="translate(-50,-45)"><path d="M77.5,45.3c0-15.3-12.3-27.8-27.5-27.8S22.5,29.9,22.5,45.3c0,13.3,9.3,24.5,21.7,27.1L50,82.5l5.8-10.1 C68.2,69.7,77.5,58.6,77.5,45.3z M50.3,55.4c-5.4,0-9.7-4.4-9.7-9.8c0-5.4,4.3-9.8,9.7-9.8s9.7,4.4,9.7,9.8 C60,51,55.7,55.4,50.3,55.4z"><animateTransform attributeName="transform" type="translate" dur="1s" repeatCount="indefinite" from="0,17" to="0,17" values="0,17;0,-17;0,17" keyTimes="0;0.5;1" keySplines="0.4 0.8 0.4 0.8;0.8 0.4 0.8 0.4" calcMode="spline"></animateTransform></path></g><animateTransform attributeName="transform" type="none" from="0" to="360" dur="1s" repeatCount="indefinite"></animateTransform></g></g></svg>