<svg xmlns="http://www.w3.org/2000/svg" width="14" height="14" viewBox="0 0 14 14"><path d="M2.164 4.814c-.082.082-.11.192-.164.3-.027.138-.027.247-.027.357s0 .17-.028.17c-.028.03-.11.08-.246.22-.14.11-.22.19-.25.22-.17.14-.3.11-.41-.05L.06 4.95c-.082-.108-.082-.218.028-.327.027-.027.11-.082.273-.19.14-.11.22-.193.27-.22.06-.055.17-.082.39-.082.19 0 .36-.08.52-.21.11-.11.19-.3.25-.52.03-.22.088-.35.14-.41.03 0 .058-.05.14-.11.055-.05.165-.16.356-.3.16-.13.353-.3.57-.44C4.246 1.29 5.09.85 5.58.8c1.15 0 1.833 0 2.078.024.11 0 .082.03-.11.11-1.12.494-1.83.85-2.13 1.07-.74.52-.93 1.032-.52 1.58.327.44.52.654.546.682.082.056.055.138-.028.193-.027.02-.19.16-.546.49-.328.3-.492.46-.52.49-.136.05-.218.08-.246.05-.41-.468-.738-.74-1.01-.85-.247-.11-.575-.057-.93.162zm4.018.356l5.713 6.67c.19.218.164.382-.027.546l-.656.574c-.22.137-.383.11-.547-.055L4.87 6.29c-.055-.054-.055-.163 0-.272l1.012-.875c.108-.055.218-.055.3.027zm7.735-2.816c.164.984.082 1.75-.22 2.323-.464.82-1.175 1.12-2.158.875-.52-.11-.99.028-1.4.438L8.99 7.083 8.04 5.99l.957-.984c.22-.22.355-.465.438-.738.055-.273.082-.574.082-.902 0-.328 0-.6.055-.82.137-.52.765-1.04 1.968-1.558.11-.055.19-.055.246.028.055.082.082.164.027.218-.11.11-.328.492-.63 1.12-.136.083-.19.247-.163.493 0 .22.19.492.547.738.547.383.983.273 1.34-.3.055-.11.19-.302.382-.575.16-.273.27-.438.3-.465.02-.082.11-.137.19-.137.08.027.13.11.13.246zm-12 9.567L5.47 8.45l1.068 1.2-3.444 3.39c-.19.19-.355.22-.547.055l-.628-.63c-.22-.163-.22-.355 0-.546z"/></svg>