<svg xmlns="http://www.w3.org/2000/svg" width="14" height="14" viewBox="0 0 14 14"><path d="M12.25 5.25H4.308v-.808C4.308 2.957 5.515 1.75 7 1.75c.98 0 1.83.53 2.3 1.312l.018-.013c.16.223.41.38.706.38.483 0 .875-.39.875-.875 0-.118-.027-.23-.07-.334l-.01-.02c-.04-.086-.095-.163-.16-.232C9.866.788 8.533 0 7 0 4.546 0 2.558 1.99 2.558 4.442v.808H1.75c-.482 0-.875.393-.875.875v7c0 .483.393.875.875.875h10.5c.483 0 .875-.392.875-.875v-7c0-.482-.392-.875-.875-.875zM7 11.375c-.967 0-1.75-.783-1.75-1.75s.783-1.75 1.75-1.75 1.75.783 1.75 1.75-.783 1.75-1.75 1.75z"/></svg>