<svg xmlns="http://www.w3.org/2000/svg" width="14" height="14" viewBox="0 0 14 14"><path d="M9.547 6.198c1.053 0 1.903-.854 1.903-1.907s-.85-1.91-1.903-1.91-1.91.86-1.91 1.91c0 1.057.857 1.91 1.91 1.91zm-5.093 0c1.053 0 1.904-.854 1.904-1.907s-.85-1.91-1.904-1.91-1.908.86-1.908 1.91c0 1.057.855 1.91 1.908 1.91zm0 1.272C2.97 7.47 0 8.215 0 9.7v1.587h8.91V9.7c0-1.485-2.97-2.23-4.456-2.23zm5.093 0c-.187 0-.394.014-.615.036.738.532 1.25 1.25 1.25 2.194v1.588H14v-1.59c0-1.483-2.97-2.228-4.453-2.228z"/></svg>