<svg xmlns="http://www.w3.org/2000/svg" width="14" height="14" viewBox="0 0 14 14"><path d="M2.858 1.32C3.74.966 4.514.79 5.222.777c.372 0 .723.04 1.056.117.506.13 1.208.51 1.475.66l-1.27 4.32c-.645-.412-1.425-.813-2.48-.823-.705 0-1.468.164-2.354.497L2.855 1.32zm1.986 10.355c.313-1.06 1.066-3.62 1.29-4.386-.162-.1-.328-.2-.498-.29-.652-.337-1.286-.506-1.885-.506-.08 0-.16.002-.242.01-.764.062-1.462.264-1.91.42-.12.042-.242.088-.368.14L0 11.302c.844-.312 1.59-.462 2.274-.462 1.105 0 1.907.412 2.57.835zm7.478-3.157c-.802.257-1.57.388-2.29.388-1.312 0-2.23-.423-2.81-.83L5.987 12.35c.367.21 1.6.874 2.546.874.763 0 1.616-.195 2.608-.597l1.184-4.108zM14 2.728c-.805.312-1.59.47-2.338.47-1.254 0-2.18-.433-2.777-.85L7.628 6.68c.844.54 1.754.814 2.71.814.777 0 1.584-.186 2.397-.554l-.002-.03.05-.012L14 2.728z"/></svg>