<svg xmlns="http://www.w3.org/2000/svg" width="14" height="14" viewBox="0 0 14 14"><path d="M11.95 2.05C13.27 3.373 14 5.13 14 7s-.73 3.628-2.05 4.95C10.628 13.27 8.87 14 7 14s-3.627-.73-4.95-2.05C.728 10.628 0 8.87 0 7s.728-3.627 2.05-4.95S5.13 0 7 0s3.628.728 4.95 2.05zm-.62 9.28c.863-.86 1.437-1.936 1.673-3.103-.185.27-.36.372-.47-.235-.112-.99-1.02-.357-1.593-.71-.602.407-1.954-.787-1.725.56.354.607 1.914-.813 1.137.472-.495.897-1.813 2.884-1.642 3.914.02 1.5-1.533.313-2.07-.185-.36-.997-.122-2.74-1.064-3.23-1.022-.043-1.9-.136-2.297-1.28-.24-.818.25-2.035 1.13-2.223 1.28-.806 1.74.944 2.94.977.372-.39 1.39-.515 1.475-.954-.79-.14 1.002-.664-.075-.962-.595.07-.98.62-.662 1.08-1.152.27-1.19-1.66-2.296-1.05-.03.966-1.808.314-.616.118.41-.178-.666-.696-.084-.602.286-.015 1.25-.352.988-.58.536-.332.987.798 1.51-.024.38-.633-.158-.75-.633-.43-.267-.3.474-.946 1.126-1.226.218-.094.426-.145.585-.13.33.38.94.446.97-.046-.81-.392-1.71-.6-2.64-.6-1.332 0-2.602.425-3.653 1.21.282.13.442.29.17.496-.21.63-1.07 1.475-1.82 1.355-.39.674-.65 1.417-.76 2.194.63.207.776.62.64.76-.32.28-.52.675-.62 1.11.206 1.256.795 2.413 1.713 3.33 1.156 1.16 2.694 1.796 4.33 1.796 1.637 0 3.175-.638 4.33-1.795z"/></svg>