<svg xmlns="http://www.w3.org/2000/svg" width="14" height="14" viewBox="0 0 14 14"><path d="M12.688.702h-3.5c-.725 0-1.313.587-1.313 1.313v1.822c-.534-.145-1.215-.16-1.75-.032v-1.79C6.125 1.288 5.538.7 4.812.7h-3.5C.586.702 0 1.29 0 2.014V8.14c0 .725.586 1.313 1.313 1.313h3.5c.726 0 1.313-.588 1.313-1.313V4.725c.578-.162 1.21-.13 1.75.03V8.14c0 .725.588 1.313 1.313 1.313h3.5c.72 0 1.31-.59 1.31-1.313V2.014c0-.724-.59-1.312-1.316-1.312zM5.25 7.527c0 .58-.42 1.05-.938 1.05h-2.5c-.518 0-.936-.47-.936-1.05v-4.9c0-.58.418-1.05.936-1.05h2.5c.52 0 .938.47.938 1.05v4.9zm7.875 0c0 .58-.418 1.05-.936 1.05H9.683c-.52 0-.938-.47-.938-1.05v-4.9c0-.58.42-1.05.937-1.05h2.5c.52 0 .94.47.94 1.05v4.9h-.003z"/><path d="M3.5 5.077c-.482 0-.875.392-.875.875v.875c0 .482.392.874.875.874s.875-.39.875-.87v-.874c0-.483-.393-.875-.875-.875zm7.875 0c-.483 0-.875.392-.875.875v.875c0 .482.392.874.875.874s.875-.39.875-.87v-.874c0-.483-.392-.875-.875-.875zm1.75 5.47c-2.36 2.872-10.062 2.66-12.25 0-.155-.19-.17.895 0 1.062 2.38 2.34 10.083 2.63 12.25 0 .154-.19.154-1.256 0-1.068z"/></svg>