<svg id="Capa_1" enable-background="new 0 0 512 512" height="512" viewBox="0 0 512 512" width="512" xmlns="http://www.w3.org/2000/svg"><path d="m436 60h-75v30h75c8.276 0 15 6.724 15 15v60c0 8.276-6.724 15-15 15h-120c-11.567 0-22.02 4.508-30 11.704-9.139 8.243-15 20.048-15 33.296v60c0 8.291 6.709 15 15 15s15-6.709 15-15v-60c0-8.276 6.724-15 15-15h120c24.814 0 45-20.186 45-45v-60c0-24.814-20.186-45-45-45z" fill="#766e6e"/><path d="m301 285v-60c0-8.276 6.724-15 15-15h120c24.814 0 45-20.186 45-45v-60c0-24.814-20.186-45-45-45h-75v30h75c8.276 0 15 6.724 15 15v60c0 8.276-6.724 15-15 15h-120c-11.567 0-22.02 4.508-30 11.704v108.296c8.291 0 15-6.709 15-15z" fill="#5b5555"/><path d="m390.154 45h-104.154-225v105h225 120c8.284 0 15-6.716 15-15v-60z" fill="#f3eee9"/><path d="m421 135v-60l-30.846-30h-104.154v105h120c8.284 0 15-6.716 15-15z" fill="#e9dfda"/><path d="m316 270h-30-30c-8.291 0-15 6.709-15 15v45l30 30h15 15l30-30v-45c0-8.291-6.709-15-15-15z" fill="#ffe375"/><path d="m331 330v-45c0-8.291-6.709-15-15-15h-30v90h15z" fill="#ffb725"/><path d="m406 0h-120-240c-8.284 0-15 6.714-15 15v255c0 16.567 13.431 30 30 30s30-13.433 30-30v-150c0-16.569 13.431-30 30-30s30 13.431 30 30v60c0 16.567 13.431 30 30 30s30-13.433 30-30v-60c0-24.853 20.147-45 45-45h30 135v-60c0-8.286-6.716-15-15-15z" fill="#8bdb52"/><path d="m421 15c0-8.286-6.716-15-15-15h-120v75h135z" fill="#5dc379"/><path d="m286 330h-45v167c0 8.291 6.709 15 15 15h30 30c8.291 0 15-6.709 15-15v-167z" fill="#766e6e"/><path d="m331 497v-167h-45v182h30c8.291 0 15-6.709 15-15z" fill="#5b5555"/></svg>