<svg xmlns="http://www.w3.org/2000/svg" width="14" height="14" viewBox="0 0 14 14"><path d="M11.035 10.24h-.77l.005-.446c0-.198.163-.36.36-.36h.05c.2 0 .363.162.363.36l-.008.446zm-2.882-.956c-.195 0-.354.13-.354.29v2.172c0 .16.15.29.35.29s.35-.13.35-.29v-2.17c0-.16-.16-.292-.355-.292zm4.68-1.214v4.13c0 .99-.858 1.8-1.908 1.8h-7.85c-1.05 0-1.908-.81-1.908-1.8V8.07c0-.99.86-1.8 1.91-1.8h7.848c1.05 0 1.908.81 1.908 1.8zM3.6 12.647v-4.35h.972v-.643L1.978 7.65v.633l.81.003v4.36h.81zm2.916-3.7h-.81v2.32c0 .337.02.505-.002.564-.066.18-.362.38-.478.02-.02-.06-.002-.24-.002-.56L5.22 8.95h-.807l.002 2.302c0 .353-.008.615.003.735.02.21.013.457.208.598.365.265 1.064-.037 1.24-.413l-.002.48h.652v-3.7zm2.595 2.658V9.673c0-.737-.55-1.18-1.3-.582l.01-1.43h-.81L7 12.62l.666-.01.06-.31c.852.78 1.387.246 1.386-.69zm2.54-.255l-.61.003v.422c0 .182-.15.33-.33.33h-.12c-.18 0-.33-.148-.33-.33v-.89h1.396v-.526c0-.39-.01-.77-.042-.99-.1-.69-1.07-.807-1.562-.45-.154.11-.273.255-.34.454-.07.2-.104.472-.104.817v1.153c0 1.916 2.326 1.644 2.05-.003zM8.53 5.092c.04.102.106.184.194.246.088.06.2.092.333.092.117 0 .22-.032.31-.097s.167-.162.23-.29l-.018.317h.9V1.515h-.71v2.993c0 .162-.138.295-.3.295-.16 0-.298-.133-.298-.295V1.515h-.74V4.11c0 .33.005.55.015.66.01.112.035.218.076.322zM5.79 2.92c0-.37.03-.658.09-.865.063-.207.173-.374.334-.5.16-.125.364-.188.613-.188.21 0 .39.04.538.122.15.08.267.18.347.31.082.13.138.26.167.4.03.14.04.35.04.63v.97c0 .354-.018.62-.04.783-.03.167-.09.322-.18.467-.09.144-.21.25-.35.32-.144.07-.307.103-.49.103-.207 0-.38-.03-.524-.09-.144-.06-.255-.147-.334-.266-.08-.12-.137-.263-.17-.43-.035-.17-.05-.42-.05-.76V2.92zm.708 1.527c0 .218.162.396.36.396.197 0 .358-.178.358-.396V2.4c0-.218-.16-.396-.36-.396-.196 0-.358.178-.358.396v2.047zM3.995 5.48h.853V2.533L5.86.006h-.934L4.39 1.882 3.845 0H2.92l1.073 2.533.002 2.948z"/></svg>