<svg xmlns="http://www.w3.org/2000/svg" width="14" height="14" viewBox="0 0 14 14"><path d="M7.723 1.06C8.226.47 9.075.03 9.776 0c.09.82-.24 1.644-.727 2.236-.49.59-1.288 1.052-2.07.99-.107-.803.29-1.64.74-2.165zm3.99 11.202c-.583.854-1.185 1.702-2.135 1.72-.935.018-1.234-.556-2.302-.556s-1.403.538-2.286.573c-.917.03-1.615-.926-2.2-1.775-1.2-1.738-2.114-4.912-.884-7.055.61-1.063 1.7-1.735 2.884-1.754.9-.017 1.752.61 2.302.61.552 0 1.584-.752 2.67-.642.455.02 1.73.184 2.55 1.386-.064.043-1.522.895-1.505 2.668.018 2.116 1.85 2.82 1.87 2.83-.016.05-.292 1.005-.965 1.992z"/></svg>