<svg xmlns="http://www.w3.org/2000/svg" xmlns:xlink="http://www.w3.org/1999/xlink" width="48" height="48" viewBox="0 0 48 48"><defs><circle id="a" cx="24" cy="24" r="24"/></defs><clipPath id="b"><use xlink:href="#a" overflow="visible"/></clipPath><g clip-path="url(#b)" fill-rule="evenodd" clip-rule="evenodd"><path d="M45.27 43.19c-.052-.77-.072-1.54.004-2.307.09-.91-.133-1.748-.494-2.565-.064-.094-.123-.188-.18-.287-.645-1.14-1.428-2.15-2.684-2.69-.387-.21-.8-.36-1.227-.48-.21-.05-.36-.17-.47-.36-.3-.55-.54-1.12-.63-1.74-.14-.88-.19-1.77-.21-2.66-.01-.49-.04-.99-.23-1.46-.23-.51-.74-.61-1.24-.75.72-.51 1.34-1.05 1.87-1.7 1.75-2.19 2.27-4.65 1.66-7.37-.11-.47-.31-.9-.69-1.22-.2-.21-.46-.34-.74-.39-.23-.04-.27-.14-.19-.35.21-.51.4-1.03.66-1.52.27-.52.37-.99-.14-1.42l-.01-.01-.01-.01c-.12-.14-.09-.27.05-.37.07-.05.14-.11.21-.17.18-.16.24-.35.08-.56-.06-.07-.09-.16-.14-.23-.32-.53-.32-.52.3-.59.64-.07.7-.16.32-.65-.13-.17-.11-.28.12-.33.16-.03.31-.06.47-.1.15-.03.34-.03.39-.22.04-.16-.11-.26-.22-.36-.32-.31-.61-.63-.73-1.08-.19-.69-.36-1.38-.55-2.06-.2-.7-.29-1.43-.69-2.05-.52-.81-1.16-1.51-1.82-2.19-.26-.27-.27-.29-.02-.55.19-.21.35-.45.46-.71.22-.56.18-1.1-.14-1.61h-.82c-.19.19-.19.5-.46.66-.05-.24.1-.5-.15-.67h-.48c-.1.1-.09.23-.09.35 0 .41-.16.77-.35 1.15-.05-.42-.08-.81-.14-1.19-.02-.13-.04-.25-.17-.32H33.8c-.367.32-.68.69-1.04 1-.016.03-.037.05-.04.08-.01-.05.034-.08.052-.12.19-.3.33-.61.14-.96h-3.6c-.126.18-.096.39-.1.59 0 .56-.06 1.1-.21 1.64-.11.4-.35.65-.755.73-.24.05-.48.12-.725.17-.2.07-.41.07-.63.1.09-.03.18-.02.26-.04 1.3-.59 1.826-1.7 2.08-3 .016-.07 0-.13-.05-.19h-2.58c-.32.18-.584.44-.885.65-.02.01-.02.02-.02.03.01.01 0 .01 0 0s0 0-.006-.01c-.03-.03.01-.04.02-.07.06-.2.25-.36.21-.6H22.7c-.098.14 0 .27.03.39.134.52.11 1.01-.153 1.53-.054-.38-.13-.71-.218-1.04-.09-.31-.16-.64-.41-.88h-1.49c-.02.26.21.36.35.5.71.74 1.24 1.58 1.35 2.63.02.2.02.41.07.62l.03.12c-.02-.04-.03-.08-.04-.12-.33-1.04-.84-1.95-1.65-2.69-.27-.25-.54-.49-.75-.78-.09-.13-.2-.21-.33-.28h-2.45c-.06.13.03.22.09.3.75 1.04 1.7 1.85 2.86 2.41.02.01.06 0 .08.02-.02-.01-.05-.01-.07-.01-.06-.01-.1-.04-.15-.06-.19-.07-.39-.11-.59-.17-1.07-.32-1.99-.84-2.54-1.87-.11-.21-.15-.45-.32-.63H14c-.016.39.118.75.26 1.11 0 .02.04.03.018.05C13.86.76 13.515.27 12.98 0h-2.856c-.09.1-.048.212-.035.323.05.495.16.983.23 1.475.05.353.21.626.46.876.29.288.64.507.91.867-.68-.11-1.3-.29-1.95-.33-.67-.03-1.25-.21-1.5-.93-.04-.11-.13-.22-.28-.2-.14.08-.12.22-.13.34.11.83.06 1.71.75 2.37.16.16.07.29-.1.38-.32.17-.63.37-.96.52-.58.26-1.05.67-1.47 1.14-.23.26-.45.54-.62.85-.09.17-.05.29.15.31.11.02.23.02.34.01.53-.06 1.06-.04 1.59-.12.18-.02.34 0 .39.22.05.2.13.4-.15.51-.96.4-1.67 1.11-2.35 1.86-.19.2-.38.39-.54.62-.05.07-.14.15-.07.24.06.08.16.07.25.05.33-.05.66-.14.99-.22.22-.05.42-.04.62.08.1.07.28.07.3.19.01.15-.18.19-.29.26-.26.19-.58.2-.87.29-.1.03-.2.08-.22.19-.01.11.08.16.15.21.32.21.66.34 1.05.34.36 0 .71 0 1.08.02-.88.29-1.6.87-2.4 1.31-.3.17-.33.28-.1.56.18.22.35.45.53.67.29.36.15.71.01 1.06-.08.2-.32.2-.43.01-.05-.06-.07-.14-.09-.22-.25-.87-.72-1.66-.93-2.55-.01-.05-.03-.13-.08-.15-.4-.19-.19-.45-.1-.71.07-.19.14-.38.2-.58.04-.12.13-.25.1-.39-.05-.18-.26-.08-.36-.17.05-.19.12-.35.2-.52.29-.63.57-1.26.86-1.89.14-.32.04-.44-.31-.42-.23.02-.46.09-.71.04.02-.09.07-.15.11-.22.27-.47.61-.9.88-1.37.19-.33.17-.51-.12-.7-.19-.13-.13-.23-.04-.36.31-.44.61-.9 1.08-1.21.16-.09.29-.22.41-.36.52-.64.46-1.1-.08-1.43-.03-.02-.06-.04-.07-.07.15.05.31.18.47.07s.04-.29.02-.44c-.1-.81-.24-1.62-.16-2.44.01-.07.01-.13-.04-.19h-.6c-.1.11-.08.25-.08.39 0 .43 0 .86.06 1.29.06.46.03.47-.38.3-.17-.06-.34-.14-.51-.2-.1-.03-.23-.09-.31.01-.08.11-.01.22.04.32.29.5.59 1 1 1.41.32.32.31.39-.04.69-.05.05-.11.09-.16.13-.86.62-1.36 1.5-1.82 2.42-.13.26-.07.35.22.35.26 0 .26.08.14.27-.38.62-.8 1.21-1.19 1.82-.07.1-.17.22-.08.34.07.1.2.08.31.07.06 0 .11-.02.17-.02.24-.02.6-.16.71-.02.14.19-.12.47-.22.7-.26.6-.54 1.2-.81 1.79-.14.3-.09.38.24.4.19.01.17.1.12.22-.13.3-.22.62-.33.93-.12.34-.08.4.28.38.19-.01.36-.01.44.21.31.85.72 1.66.92 2.55.08.35.09.34-.26.42-.87.07-1.35.6-1.61 1.39-.23.71-.34 1.45-.35 2.2 0 .97.18 1.91.47 2.83.44 1.26 1.15 2.35 2.1 3.29.33.31.68.59 1.04.87.6.48 1.26.76 2.04.64.22-.03.3.05.35.25.15.56.33 1.11.64 1.6.85 1.35 2.05 2.33 3.34 3.22.09.04.17.08.24.15.37.3.78.52 1.2.75.23.13.27.26.16.49-.15.3-.26.62-.44.91-.12.31-.34.43-.68.42-.6-.02-1.21-.01-1.81-.01-.59.03-1.19-.08-1.76.05-1.44.34-2.6 1.11-3.47 2.32-.14.2-.27.4-.38.61-.48.94-.68 1.94-.66 2.99 0 1.71-.01 3.36.01 5.07.02.3-.08.83.1.83H6c.13 0 .094-.27.094-.45 0-1.91-.004-3.79.005-5.7 0-1.15.34-2.17 1.08-3.06.74-.88 1.69-1.46 2.84-1.55 1.1-.1 2.22-.02 3.32-.02.22 0 .35.1.42.31.1.3.18.61.3.91.07.15.12.31.17.47.52 1.54 1.02 3.09 1.57 4.62.15.42.26.45.58.15.78-.76 1.53-1.54 2.26-2.34.4-.45.81-.88 1.16-1.37.12-.17.25-.32.26-.54-.01-.23-.15-.35-.36-.4-.24-.05-.39.09-.52.25-.78 1.03-1.66 1.95-2.56 2.86-.26.27-.29.26-.4-.08-.59-1.75-1.18-3.49-1.79-5.23-.08-.2-.08-.39.03-.58.18-.31.32-.65.48-.97.16-.31.29-.34.54-.1.07.07.11.15.15.23.75 1.66 2.02 2.72 3.73 3.29.36.12.64.27.76.65.23.58.55 1.11.83 1.67.27.51.29.5-.14.86-.04.03-.07.06-.1.09-.17.16-.18.3.01.45.22.18.44.36.65.55.16.14.17.28.01.43-.15.14-.29.29-.44.43-.22.2-.23.37-.04.61.5.65.67 1.36.42 2.17-.11.35-.2.63-.29.98-.05.16-.11.43-.05.43h.75c.28 0 .35-.88.47-1.37.19-.78.13-1.52-.24-2.25-.09-.18-.07-.29.08-.43.22-.2.42-.4.63-.62.15-.16.16-.31-.03-.45-.18-.15-.35-.32-.54-.46-.2-.15-.24-.28 0-.44.16-.1.3-.25.39-.42.38-.74.81-1.47 1.14-2.24.11-.25.22-.47.53-.56 1.87-.57 3.36-1.64 4.33-3.38.06-.11.13-.2.24-.28.18-.12.32-.14.42.11.07.19.17.37.27.55.12.21.13.41.06.64-.14.46-.29.91-.43 1.37-.44 1.42-.86 2.84-1.31 4.25-.1.32-.15.33-.38.11-.96-.92-1.96-1.81-2.82-2.84-.31-.37-.66-.29-.83.17-.01.16.08.28.17.4.9 1.13 1.99 2.06 3.03 3.05.23.22.45.45.7.65.45.37.49.35.66-.22.45-1.5.91-2.99 1.37-4.48.16-.48.34-.96.47-1.45.06-.22.18-.312.41-.31.5.01 1 .01 1.49 0 .29-.01.39.1.37.38-.02.43.03.85.16 1.27.02.06.03.13.05.198.21.99.41 1.98 1.25 2.68.12.1.07.2.01.3-.14.21-.21.45-.25.7-.18 1.1.04 2.14.57 3.11.1.18.24.34.41.44.24.13.28.22.23.48-.09.49-.08 1.35.25 1.35h.9c.04 0-.07-.16-.12-.27-.14-.31-.22-.6-.13-.95.06-.24.21-.33.47-.32 1.28.09 2.57.14 3.85.13.36 0 .72.07 1.06.17.38.04.49-.24.62-.51-.03-.2-.19-.24-.34-.29-.51-.19-1.04-.22-1.57-.22-1 0-1.99-.03-2.98-.09-.46-.03-.93-.04-1.39-.11-.3-.045-.5-.2-.62-.47-.27-.62-.42-1.27-.38-1.95.02-.41.09-.82.5-1.06.14-.1.3-.15.48-.15.93 0 1.85-.11 2.78-.07.67.036 1.33-.07 2-.08.22 0 .45-.044.66-.12.14-.044.24-.12.25-.284.01-.356-.25-.6-.6-.56-.1.01-.2.02-.3.05-.37.094-.74.08-1.11.094-1.36.04-2.71 0-4.07.07-.56.03-.94-.25-1.13-.79-.21-.61-.4-1.22-.54-1.856-.07-.337-.12-.67-.08-1.01.05-.38.12-.75.53-.92 1.27-.51 2.6-.797 3.97-.93.45-.046.91-.17 1.37-.045.92.06 1.77.35 2.58.78 1.22.65 1.92 1.73 2.38 2.98.2.55.25 1.13.2 1.737-.06.9-.02 1.81.02 2.716.06 1.28-.11 2.49-.5 3.72-.07.21-.2.58-.06.58h.68c.11 0 .15-.09.18-.2.39-1.18.55-2.36.59-3.59.01-.35-.01-.67-.04-1.02zm-10.862-7.754c-.447.152-.898.303-1.293.574-.088.06-.18.086-.284.085-.47-.007-.94-.01-1.41-.017.59-1.135 1.13-2.293 1.76-3.404.29.87.84 1.588 1.37 2.316.24.324.24.32-.13.446z"/><path fill="#143E66" d="M20.256 39.3c.346.67.685 1.345 1.043 2.007.1.2.08.3-.11.436-.57.418-.56.428-.02.88.63.534.63.534.06 1.106-.07.06-.13.13-.19.19-.16.13-.18.22-.03.4.52.63.74 1.35.5 2.18-.16.54-.3 1.08-.45 1.63H8.02c-.17-.3-.135-.64-.147-.96-.062-1.62-.167-3.23-.148-4.85.008-.75.12-1.49.406-2.19.4-.98.86-1.33 2.15-1.48.75-.09 1.39.27 2.05.54.28.11.56.25.87.37.01-.28-.12-.49-.19-.72-.1-.3-.23-.59-.3-.9-.05-.23.04-.33.25-.24.46.2.92.4 1.28.75.41 1.02.71 2.09 1.08 3.13.24.67.46 1.34.69 2.02.07.2.14.26.32.08 1.21-1.21 2.4-2.42 3.47-3.76.13-.16.27-.31.3-.53l.21-.14z"/><path fill="#143E65" d="M32.706 38.75c.157.645.296 1.292.59 1.896.18.373.384.715.757.924.08.043.17.074.086.2-.67.995-.48 2.04-.17 3.087.11.392.26.77.55 1.073.39.408.43.487.4 1.048-.02.406.09.78.21 1.157H21.82c.168-.778.51-1.52.488-2.342-.014-.51-.13-.986-.38-1.423-.095-.166-.072-.25.053-.37.26-.24.5-.498.75-.743.12-.113.12-.186-.02-.293-.26-.208-.51-.438-.77-.66-.08-.07-.16-.158-.01-.236.63-.326.79-.992 1.11-1.54.23-.397.42-.823.62-1.237.08.02.14.08.2.14-.01.23.17.34.29.48 1.21 1.4 2.59 2.61 3.98 3.89l.72-2.33c.27-.86.54-1.71.81-2.57.44-.3.88-.59 1.32-.88.11-.06.22-.16.34-.08.13.08.07.23.06.34-.02.25-.09.49-.13.73-.04.21.03.25.22.17.42-.17.84-.33 1.28-.41z"/><path fill="#FBCEBB" d="M33.854 36.377c1.11-.472 2.28-.725 3.47-.88.636-.08 1.272-.183 1.915-.083-.07.085-.16.085-.3.104.9.178 1.64.6 2.34 1.102.34.242.76.35 1.1.588.19.134.4.256.56.432.3.326.42.675.29 1.146-.12.402-.25.796-.4 1.185-.17.45-.14.87.07 1.28.18.37.36.73.54 1.1.28.58.39 1.17.2 1.81-.15.51-.23 1.04-.36 1.56-.11.42-.09.83.09 1.23.12.27.21.55.19.86-.01.14-.01.28-.16.35h-5.9c-.27-.59-.03-1.22.57-1.41.72-.23 1.46-.2 2.2-.16.3.02.6.04.89.15.32.05.33-.3.53-.41.15-.14.13-.26-.04-.38-.39-.28-.8-.48-1.31-.47-.85.03-1.7.01-2.54.01-.37.01-.72-.05-1.08-.09-.46-.06-.8-.3-1.02-.71-.19-.36-.37-.72-.47-1.12-.09-.33-.19-.65-.33-.96-.09-.18-.1-.36-.01-.55.15-.18.36-.21.58-.21 1.49-.02 2.98-.06 4.48-.1.32-.01.63-.06.94-.13.17-.04.21-.1.15-.28-.1-.29-.22-.52-.59-.35-.07.03-.16.01-.24.02-.43-.01-.85 0-1.28.03-1.45.09-2.79-.39-4.16-.73-.25-.06-.41-.24-.51-.47-.4-.94-.66-1.92-.63-2.96 0-.16-.01-.32.16-.42z"/><path fill="#565656" d="M10.127 0c.092.566.215 1.13.266 1.7.053.602.466.922.86 1.274.23.208.46.417.75.677-.384.02-.668-.08-.954-.14-.53-.11-1.07-.17-1.61-.24-.47-.06-.91-.16-1.11-.68-.07-.17-.16-.35-.32-.47-.23.07-.08.23-.08.36.03.52.13 1.03.24 1.54.06.3.3.5.49.72.23.26.22.33-.08.51-.64.37-1.34.62-1.9 1.12-.5.44-.91.93-1.27 1.55.7.02 1.33-.05 1.97-.11.58-.05.68.02.7.6 0 .13-.07.16-.14.21-.19.11-.37.22-.57.31-1.09.53-1.74 1.52-2.61 2.39.38 0 .67-.06.94-.16.56-.21 1.03-.04 1.5.27-.41.47-1 .56-1.6.7.77.72 1.68.42 2.55.54-.12.18-.32.23-.48.28-.84.28-1.49.9-2.28 1.26-.21.1-.05.21.02.3.22.29.45.56.67.85.15.21.07.98-.11 1.15-.16.16-.51.09-.57-.13-.25-.97-.79-1.83-1.01-2.81-.02-.06-.03-.16-.1-.16-.45-.03-.21-.29-.16-.47.1-.32.21-.65.34-.96.11-.26.05-.33-.21-.26-.06.02-.11.03-.24.05L5.36 8.8c-.45-.033-.834.11-1.265.06.175-.28.34-.545.51-.808.2-.31.415-.62.61-.94.21-.34.17-.48-.22-.62-.17-.06-.12-.13-.066-.22.3-.48.59-.96 1.06-1.31.33-.24.65-.49.82-.88.15-.34.1-.57-.21-.79-.14-.1-.27-.2-.35-.37.15-.04.26.07.38.11.21.08.32.12.26-.2-.11-.72-.2-1.44-.21-2.17 0-.218.01-.43.08-.637H8.2c.06.085.13.14.2 0h1.7z"/><path fill="#0168B1" d="M14.21 38.48c-.493-.218-.933-.544-1.514-.76l.714 2.07c-.333-.144-.61-.248-.872-.38-.437-.218-.893-.383-1.353-.54-.784-.268-1.53-.113-2.215.278-.606.347-.784 1-.944 1.626-.278 1.086-.253 2.19-.156 3.297.003.04.007.07.007.11-.03 1.33.097 2.64.143 3.96H6.048c.005-2.12.002-4.25.017-6.38.01-1.3.45-2.44 1.396-3.35.86-.82 1.88-1.32 3.11-1.29.96.02 1.93.01 2.89 0 .24 0 .38.06.44.3.09.36.22.71.33 1.07z"/><path fill="#FBE7DC" d="M43.44 48.136c.17-.413.05-.804-.118-1.178-.19-.425-.193-.85-.093-1.29.15-.68.32-1.358.45-2.044.07-.413-.1-.8-.26-1.17-.15-.33-.31-.662-.49-.97-.41-.66-.35-1.314-.01-1.963.17-.33.2-.7.29-1.05.09-.36-.18-.67-.46-.89-.4-.3-.82-.57-1.29-.73-.17-.05-.29-.18-.43-.28-.69-.51-1.47-.84-2.34-1.01.17-.18.36-.09.53-.14 1.64.16 3.09.71 4.11 2.1.49.68.93 1.39 1.07 2.24.05.34.1.67.07 1.01-.09.91-.05 1.81 0 2.71.07 1.38-.09 2.73-.49 4.05-.07.2-.16.4-.16.62h-.41z"/><path fill="#D89D8D" d="M41.198 46.707c-.547-.06-1.09-.152-1.644-.12-.46.025-.92.058-1.363.202-.62.2-.56.28-.65.87-.02.15 0 .31 0 .47h-1.5c-.38-.46-.51-.97-.3-1.54.06-.16.15-.22.33-.21 1.48.05 2.96.09 4.43.15.25.01.5.03.71.17z"/><path fill="#565656" d="M20.46 0c.272.3.544.6.813.9.77.866 1.042 1.9 1.024 3.127-.165-.394-.29-.706-.424-1.014-.3-.69-.704-1.308-1.27-1.815C20.2.838 19.833.438 19.51 0h.95zm-.546 2.727c-1.016-.2-1.967-.54-2.692-1.32-.372-.4-.67-.853-.772-1.407h.612c.74 1.173 1.774 2.016 2.99 2.653.01.13-.066.1-.138.074zm7.276.4C28.484 2.483 29.01 1.34 29.232 0h.136c.026.77-.013 1.535-.22 2.285-.113.41-.356.67-.777.757-.27.056-.54.165-.83.16-.12.012-.26.11-.35-.076zM22.705 0c.266.71.326 1.402-.168 2.143-.13-.79-.302-1.482-.58-2.143h.748z"/><path fill="#555" d="M36.574 0c.054.637-.117 1.207-.53 1.78-.048-.642-.064-1.22-.218-1.78h.748z"/><path fill="#545454" d="M14.272 1.226L12.982 0h1.02l.35 1.148c.02.073-.013.093-.08.078z"/><path fill="#535353" d="M33.855 0c-.266.415-.623.738-1.016 1.027-.03.02-.06.017-.08-.006.11-.33.28-.65.21-1.02h.88zm-7.207 0c-.244.312-.584.506-.893.74-.117 0-.098-.063-.064-.134L25.97 0h.678z"/><path fill="#060606" d="M8.427 0c-.007.103.033.215-.07.322C8.27.222 8.23.12 8.223 0h.203z"/><path fill="#FBCEBB" d="M25.88 35.55c-.268.097-.267-.143-.362-.275-.088-.12-.063-.423-.27-.33-.23.1.048.273.057.424.003.05.042.1.065.15.038.08.094.16-.045.21-.107.04-.167.01-.212-.09-.118-.27-.24-.54-.362-.8-.04-.09-.07-.22-.21-.15-.14.07-.05.17-.01.25.1.24.21.47.32.71.05.1.12.21-.06.25-.13.03-.27.16-.36-.06-.05-.14-.12-.27-.18-.4-.03-.08-.08-.15-.18-.11-.11.04-.06.12-.04.19l.14.34c-.19.15-.42.09-.63.1-.2-.11-.21-.33-.3-.51-.1-.21-.18-.44-.34-.62.07.22.15.44.25.65.06.12.15.23.08.38-.16.03-.33.03-.43.21-.01-.04-.03-.09-.04-.13-.03-.09.02-.23-.14-.21-.16.02-.05.16-.09.24-.21-.08-.43-.22-.59.08-.17.01-.14-.14-.17-.24-.06-.24-.11-.48-.2-.77-.05.29.15.51.04.73-.21.02-.41.03-.62.05.03-.29.07-.58.1-.87.01-.08.04-.2-.09-.21-.13-.02-.13.1-.14.18l-.12.76c-.21.13-.42.15-.63 0-.04-.03-.08-.06-.12-.08-.04-.04-.06-.08-.06-.13.07-.41.34-.72.46-1.11-.18.37-.53.66-.51 1.12-.01.17-.02.32-.26.27-.09 0-.18-.02-.26-.04-.22-.06-.3-.16-.18-.38.08-.16.13-.34.2-.51.03-.09 0-.16-.09-.18-.1-.03-.12.05-.14.11-.08.18-.16.35-.21.54-.11.39-.33.11-.5.08-.22-.03-.2-.16-.1-.31.05-.06.14-.16.01-.23-.19-.12-.16.13-.26.17-.23-.26-.54-.41-.77-.67.17-.41.56-.65.71-1.07-.25.34-.65.58-.71 1.06-.16.05-.22-.07-.25-.18-.04-.12-.12-.2-.23-.26.02-.07.06-.15-.04-.2-.1-.05-.14.04-.2.07-.07-.22-.18-.4-.44-.42-.09-.18.09-.35.04-.53-.16.09-.04.37-.27.41-.1-.17-.14-.38-.29-.52-.05-.14.07-.25.06-.39-.19.04-.12.32-.33.31-.09-.24-.3-.41-.43-.62-.04-.31.2-.57.17-.9-.19.26-.14.62-.38.85-.24-.23-.41-.54-.73-.7-.06-.23.18-.35.22-.57-.17.07-.19.31-.39.33-.21-.08-.32-.29-.51-.4-.07-.08-.14-.16-.22-.23-.25-.31-.65-.49-.82-.87-.04.07-.09.1-.16.06-.05-.08-.01-.15 0-.23.04-.27-.04-.5-.16-.73.01-.22.28-.25.32-.44-.12-.02-.21.21-.35.05-.14-.39-.21-.81-.3-1.21-.03-.15-.07-.29-.15-.41-.04-.1-.07-.19-.08-.3.04-.26-.07-.5-.12-.74.01-.17.15-.36-.09-.48-.08-.25-.18-.49-.11-.76.02-.03.05-.05.08-.06.11-.03.22-.06.29-.16.15-.23.33-.23.55-.11.25.13.51.24.78.33.22.07.42.15.34.46.08-.2.2-.26.38-.23.32.06.64.13.97.14.22.01.24.17.23.39.18-.4.18-.4.85-.57-.29 0-.55.2-.75-.08-.05-.07-.07 0-.09.03-.12.21-.31.19-.51.16-.21-.04-.42-.07-.63-.12-.23-.06-.38-.16-.31-.46-.07.29-.24.31-.46.22-.21-.09-.42-.17-.62-.27-.4-.2-.41-.25-.21-.64-.42.34-.64.24-.87-.4.3-.31.53-.69.88-.96.08-.03.15-.03.23-.03 1.31.1 2.61.19 3.92.07.47-.05.95-.02 1.42-.01.45.01.9-.07 1.35-.09.41-.02.61-.34.75-.69.06-.15.05-.34.16-.48.21-.1.21.18.35.2.19 0 .23-.1.23-.26.01-.19-.04-.38.03-.57.08.06.08.12.03.19.32-.29.45-.68.55-1.09.06-.22-.07-.36-.18-.52.05-.34.24-.45.59-.43.58.03 1.17.03 1.75 0 .32-.01.51.07.58.39.03.11.07.21.11.32-.13.1-.21-.22-.34-.06-.12.15-.05.33 0 .49.09.24.21.47.39.68.13-.22-.02-.47.15-.64.15.4.08.81.09 1.22.01.22.05.38.32.22.1-.1-.05-.28.11-.35.14.06.17.2.21.33.06.19.11.39.22.57.15.26.35.49.68.49.51.01 1.01.11 1.52.08.82-.05 1.65.08 2.47.07.91 0 1.81-.06 2.71-.13.1 0 .19 0 .28.04.27.27.38.64.55.97.57 1.14.53.72.1 1.88-.2.55-.48 1.08-.58 1.67-.18.06-.14.22-.15.36-.22.17-.2.47-.34.68-.19.05-.22-.15-.33-.23-.11-.08-.18-.23-.35-.29.19.3.52.45.56.81-.04.21-.12.4-.2.592-.27.15-.41-.17-.65-.17.1.233.44.2.51.45-.02.16-.06.314-.13.46-.19.1-.23-.12-.37-.16.027.19.27.29.23.504-.07.15-.17.29-.25.44-.29.04-.4-.26-.65-.32.08.22.39.24.41.49-.08.12-.19.22-.22.37-.08.07-.19.1-.26.175-.19.17-.36.36-.51.58-.12 0-.12-.12-.2-.19-.06.12.02.25-.02.36-.142.258-.43.41-.5.71-.06.07-.14.12-.22.17-.2.08-.19.26-.2.43-.09.05-.2.05-.262.14-.25.058-.32.36-.57.41-.31-.23-.48-.6-.8-.83.23.31.39.69.8.82-.01.32-.32.41-.46.63-.18.02-.25-.122-.346-.23-.12-.14-.22-.3-.42-.474.14.42.55.58.56.98-.16.14-.3.31-.43.48-.1-.19-.19-.38-.28-.57-.04-.07-.07-.15-.18-.1-.1.04-.08.11-.05.19.083.19.16.39.24.586.016.184-.087.25-.25.25-.22-.12-.26-.356-.356-.555-.07-.12-.1-.26-.24-.45.05.41.26.67.366.98.13.35.14.34-.22.46zm-6.247-19.157c-1.52-.688-3.04-1.377-4.562-2.062-.62-.28-1.27-.51-1.95-.67-.35-.08-.65-.06-.95.15-.08.06-.16.14-.27.12-.07-.06-.16-.12-.22-.2.01-.11.09-.15.17-.19.2-.1.22-.22.08-.39.11-.68.37-1.32.55-1.98.46-1.59.94-3.18 1.42-4.77.24-.79.64-1.49 1.34-1.97.49-.13.98-.15 1.47-.17 1.09-.05 2.17-.02 3.25.14.19.03.35.09.5.2.34.26.7.5 1.04.77.18.14.21.04.22-.11.02-.2 0-.4.08-.64.4.36.77.69 1.2 1.07l-.1-1.04c0-.07-.1-.19.08-.2.22.41.54.48 1 .43 1.64-.17 3.28-.29 4.92-.42-.01.09-.07.18.03.27.94.86 1.42 1.98 1.83 3.16.74 2.11 1.53 4.21 2.27 6.32.06.17.16.34 0 .51-.19.08-.28-.1-.41-.17-.18-.1-.33-.25-.55-.31.36.38.86.63 1.07 1.14-.03.08-.1.09-.17.08-.27-.08-.47-.3-.7-.45-.14-.09-.28-.18-.42-.28-.53-.38-1.07-.45-1.72-.26-1.31.38-2.63.73-3.94 1.11-.1.03-.19.06-.3.06-.38-.14-.56-.5-.84-.75-.12-.11-.19-.35-.36-.32-.16.03-.14.28-.21.44-.19.47-.27.98-.54 1.42-.04.07-.02.16-.03.24-.11.2.04.3.15.42-.01.29-.08.58-.05.87.02.14-.07.17-.19.17h-3.23c-.16 0-.18-.08-.18-.21-.01-.19.05-.38-.04-.56l-.27-.13c-.08-.05-.2-.08-.15-.22.11-.28-.07-.41-.26-.53z"/><path fill="#FBE7DC" d="M15.224 4.41c-.327.413-.724.77-.964 1.254-.343.694-.494 1.45-.72 2.18-.468 1.507-.898 3.025-1.343 4.54-.08.27-.156.54-.233.81-.143.313-.45.39-.728.512-.107 0-.142-.107-.223-.146-.198-.03-.306.124-.442.215-.29.198-.53.452-.76.716-.15.18-.01.18.12.16.05.01.09.04.11.08.03.11.02.28.19.11.04-.04.1-.05.15-.04.1.05.18.11.1.23l-.31.33.19.02c.44-.07.84-.08 1.16.31.12.15.3.25.43.38.37.37.36.44-.1.67-.39.15-.77.32-1.17.45-.39.13-.55.42-.52.79.03.37-.13.43-.45.42-.82-.02-.82-.01-.93-.81-.03-.24-.04-.48-.1-.71-.23-.91.1-1.7.6-2.42.19-.26.2-.48 0-.69-.42-.44-.38-.85.03-1.26.21-.21.22-.39-.02-.61-.23-.21-.27-.48-.06-.76.12-.16.21-.35.37-.48.21-.17.33-.33.05-.54-.14-.1-.05-.19.02-.28l.72-.9c.12-.14.21-.26-.08-.29-.09-.01-.23-.01-.26-.11-.04-.13.1-.18.18-.25.09-.08.2-.14.3-.21.08-.06.17-.1.12-.24-.05-.13-.11-.22-.27-.17-.07 0-.18.1-.19-.07.06-.05.12-.11.18-.15.24-.16.39-.32 0-.49-.12-.05-.13-.12-.03-.23.33-.33.64-.66 1.13-.82.84-.27 1.63-.65 2.41-1.08.43-.24.91-.34 1.4-.37zm17.743 10.285c.094-.127.053-.254.006-.385-.783-2.165-1.566-4.33-2.348-6.497-.23-.637-.42-1.287-.793-1.865-.333-.515-.736-.967-1.188-1.404.097-.044.17-.08.245-.113 1.02-.18 1.96.19 2.93.42.13.03.26.09.39.11.77.08 1.25.63 1.78 1.09.08.07.09.15.08.25-.02.13-.03.25-.04.38-.03.45-.07.88-.77.91l1.11.87c.01.16-.07.31-.06.48-.42.71-.42.71.06 1.36l.67.89c-.2.14-.53.03-.58.23-.04.15.14.36.23.55.16.36.47.72.46 1.07-.01.36-.41.65-.66.96-.13.17-.1.3-.04.47.39 1.19.72 2.4.81 3.66.01.24-.04.3-.26.29-.26-.01-.57.08-.77-.04-.21-.12-.12-.47-.16-.72-.03-.19-.14-.26-.29-.34-.4-.23-.86-.32-1.28-.53-.26-.16-.26-.24 0-.36.22-.11.45-.22.71-.21.11 0 .21.01.28-.1.04-.05.1-.07.16-.09l.28-.06c.05 0 .09 0 .14.01.1.03.13.15.32.2-.25-.45-.48-.83-.8-1.15-.1-.09-.14-.01-.17.07-.03.05-.06.08-.11.09-.22-.07-.38-.19-.41-.43zM29.9 31.36c.033-.317.286-.463.503-.636.267.074.274.396.517.533-.024-.26-.354-.373-.27-.648-.057-.21.03-.33.235-.37.063-.08.162-.11.234-.17-.04-.21.08-.34.23-.44.17-.02.21.18.35.24 0-.23-.33-.3-.24-.56.01-.18.02-.36.15-.5.13-.1.22.07.35.05-.01-.16-.26-.15-.23-.32-.01-.24.09-.45.23-.63.04-.1.1-.18.11-.28-.02-.24.13-.43.2-.64.02-.08.09-.03.14-.02.17-.02.18.18.33.23 0-.23-.27-.35-.2-.57-.11-.29.07-.52.16-.77.19-.56.41-1.1.64-1.64.08-.18.06-.31-.02-.48-.26-.54-.57-1.06-.78-1.62.02-.07.07-.11.14-.13.26-.07.51-.17.69-.39.04-.05.11-.08.17-.02.23.05.26-.09.3-.27.14-.72.25-1.44.29-2.17.01-.21.07-.32.29-.28.27.04.56-.07.82.06.2.08.42.01.62.04.07.01.19-.06.19.1-.02.11.06.18.13.22.43.27.38.63.19 1.02-.13-.02-.18-.13-.26-.2-.06-.05-.11-.09-.17-.02-.07.06-.09.12-.01.19.03.03.06.06.09.1.27.28.3.53.12.89-.06.11-.11.09-.18.03-.06-.06-.11-.06-.17.01-.03.04-.07.11-.01.15.44.32.14.71.11 1.09-.05-.01-.08-.01-.11-.02-.09-.04-.14-.23-.27-.09-.12.13.02.21.1.27.18.13.19.29.13.48-.07.24-.13.48-.2.75-.06-.07-.1-.1-.14-.14-.06-.07-.1-.16-.21-.07-.12.09-.03.17.02.22.23.23.25.49.13.77-.02.05-.01.12-.09.13-.24.06-.25.06-.12.29.04.06.07.11.06.18l-.41 1.82c-.16-.15-.29-.25-.42-.37-.07-.06-.13-.09-.2 0-.08.09-.01.14.04.19.09.08.18.18.28.24.26.14.22.35.15.58-.03.1-.06.14-.16.06-.2-.15-.24-.01-.21.14.05.19-.18.21-.18.36-.14.12-.19-.02-.26-.09-.1-.11-.15-.25-.31-.37.09.31.32.48.5.67-.29.66-.52 1.33-.68 2.03-.05.09.01.25-.13.29-.12.03-.16-.1-.24-.16-.22-.2-.47-.38-.71-.57.2.24.42.47.67.66.08.06.25.1.13.27-.18.07-.26.45-.56.17-.03-.03-.16.03-.12.14.16.36-.22.38-.36.54-.08.09-.13-.02-.16-.09l-.23-.42c-.04-.08-.1-.13-.19-.07-.07.04-.06.11-.03.17.09.21.37.44.27.62-.13.22-.43.35-.66.52-.17-.19-.24-.42-.37-.61-.06-.08-.05-.3-.23-.21-.21.1 0 .23.03.33.04.13.14.23.18.36.04.1.23.23.07.31-.14.07-.23.41-.49.14-.06-.06-.19.03-.18.08.1.31-.18.32-.32.43-.18.13-.39.24-.58.36-.08.05-.19.14-.25 0-.15-.34-.33-.69-.23-1.09-.14-.25-.08-.42.21-.48.21.09.24.31.32.49.07.14.11.31.26.48-.08-.43-.36-.73-.38-1.12 0-.34.26-.49.48-.67.27.09.14.39.32.56.06-.26-.23-.49-.07-.74zm-15.977-.024c.264.018.627.378.694.688.07.115.167.117.278.067.187.17.437.3.4.61.118.23-.132.39-.105.62.203-.14.128-.47.392-.55.244.11.284.32.263.55 0 .02.002.03.004.05-.01.15-.09.28-.06.43.09.12.1-.01.12-.04.05-.1.06-.24.19-.29.06-.01.09-.15.18-.05.12.13.32.22.22.46-.38.65-.38.65-1.02.32-.23-.12-.46-.26-.69-.37-.25-.12-.43-.25-.24-.55.05-.08.04-.14-.05-.19-.12-.05-.13.04-.17.11-.07.11-.04.37-.3.2-.19-.12-.43-.19-.2-.49.15-.19.24-.43.35-.66.03-.08.18-.18.01-.28-.19-.11-.18.09-.22.16-.14.24-.27.47-.38.72-.09.2-.17.18-.33.08-.56-.37-.56-.36-.26-.96.07-.15.32-.35.11-.47-.19-.1-.2.23-.31.36-.04.05-.05.14-.1.18-.12.09-.04.4-.32.28-.32-.14-.38-.3-.25-.59.03-.06.05-.13.08-.19.04-.08 0-.13-.07-.16-.08-.04-.13-.01-.17.06-.03.07-.07.14-.09.22-.06.18-.14.17-.26.05-.22-.21-.45-.42-.67-.63-.17-.16-.38-.33-.06-.55.07-.05.09-.13.01-.2-.1-.09-.14.01-.19.06-.06.07-.11.15-.16.23-.29-.29-.47-.58-.63-.88-.07-.12-.18-.23 0-.37.12-.09-.03-.23-.09-.2-.23.1-.21-.08-.25-.19-.25-.63-.35-1.29-.45-1.95-.01-.06-.02-.15.01-.19.12-.17.33-.28-.07-.42-.15-.05-.09-.46-.14-.71.23-.15.38-.37.52-.65-.18.08-.21.22-.3.31-.06.07-.12.16-.21.14-.12-.03-.04-.16-.09-.23-.15-.38.23-.52.35-.78.07-.15.37-.3.16-.44-.19-.14-.23.2-.35.3-.08.06-.1.18-.24.23l-.22-1.22c-.02-.11.04-.17.11-.23.11-.11.23-.22.34-.33.06-.07.18-.13.07-.25-.12-.12-.18.02-.25.07-.11.09-.19.22-.37.28-.05-.24-.09-.47-.14-.7-.03-.13.06-.21.14-.28l.32-.31c.07-.06.08-.13.01-.2-.09-.09-.14-.02-.2.03-.11.1-.19.23-.34.27-.08-.06-.04-.15-.08-.21-.25-.45-.19-.83.27-1.12.02-.01.03-.03.05-.05.04-.08.19-.11.08-.25-.12-.13-.18 0-.25.06-.12.1-.23.21-.4.37-.03-.39-.29-.74-.07-1.06.2-.3.48-.58.93-.45-.02.14-.16.17-.21.26-.06.09-.26.14-.14.28.14.16.21-.04.29-.11.13-.1.25-.22.37-.35.08-.07.16-.11.27-.12.64-.04.63-.04.71.6.07.61.17 1.23.27 1.84.02.17.05.36.31.28.02-.01.05-.03.06-.03.3.27.7.36 1.04.57-.24.32-.44.68-.8.89-.15.06-.07.21-.1.31-.09.21-.02.42.03.62.03.14.09.28.05.43l.14.8c.05.26-.24.38-.27.63.15-.02.16-.24.33-.22.11.24.27.47.14.76-.11.21-.28.38-.4.61.22-.06.23-.35.45-.36.07.02.13.04.15.12l.34 1.58c.06.15-.08.18-.15.25-.1.1-.22.18-.29.32.2-.02.24-.31.46-.23.23.22.25.48.18.76-.23.08-.4.24-.6.41.24.02.32-.29.55-.21.05-.03.16-.08.16-.08.23.34.63.53.84.9.02.27-.25.408-.31.67.25-.094.24-.43.51-.47.24.06.35.255.49.43.03.11.02.24.18.25z"/><path fill="#575757" d="M37.53 12.777c.456.096.913.19 1.37.287-.272-.212-.28-.52-.313-.782-.063-.526-.376-.848-.778-1.124-.09-.057-.16-.13-.23-.196-.01-.122.05-.133.14-.083.12.09.27.14.41.2.16.03.32.07.52.12-.12-.38-.36-.66-.55-.97-.39-.64-.73-1.3-1.18-1.9-.07-.09-.15-.17-.23-.25-.01-.13.06-.1.14-.08.59-.03 1.05.25 1.46.63.24.22.47.45.7.67.18.03.1-.08.08-.15-.24-.75-.6-1.42-1.11-2.01-.29-.33-.68-.49-1.07-.63l-.42-.15c-.04-.08.03-.1.07-.13.63-.37 1.3-.11 1.95-.1.25 0 .51.06.79.11-.12-.39-.29-.64-.66-.79-.84-.33-1.69-.39-2.57-.28-.19.02-.38.02-.57.03 0-.05-.01-.09 0-.09.62-.33.85-.93 1.02-1.55.05-.15.11-.29.29-.31.12-.02.19-.11.26-.19.15-.19.27-.17.44 0 .62.68 1.27 1.35 1.82 2.1.33.45.43.99.58 1.51.22.77.42 1.55.61 2.33.1.39.19.77.45 1.09.12.14.07.22-.09.25-.23.04-.46.11-.7.14-.21.03-.18.11-.1.24.1.17.35.34.27.51-.08.16-.37.07-.57.11-.58.11-.58.1-.28.62l.23.38c.33.55.34.56-.16.94-.23.18-.3.31-.06.52.52.46.57.95.22 1.56-.28.47-.44 1.01-.64 1.53-.08.21-.21.33-.44.34.04-.43.04-.43-.41-.34-.1.02-.2.04-.3.04-.15 0-.32 0-.35-.19-.02-.17-.01-.33.18-.44.37-.22.73-.46 1.16-.74l-1.76-.53c.01-.2.21-.03.27-.14l1.57-.34c.07-.09-.04-.1-.06-.15-.39-.17-.6-.53-.87-.82-.25-.27-.51-.54-.77-.8 0-.13.06-.11.14-.08z"/><path fill="#0168B1" d="M23.848 39.426c-.108.017-.19-.008-.2-.135.092-.35.304-.53.674-.65 1.827-.58 3.28-1.65 4.2-3.37.122-.22.332-.29.525-.4.125-.07.15.04.188.12.145.31.28.62.44.92.07.14.05.26.01.39-.605 1.95-1.208 3.89-1.813 5.83-.12.39-.126.39-.407.13-1.01-.95-2.04-1.89-2.94-2.96-.233-.27-.477-.22-.677.15zm-3.592-.126c.013.17-.05.225-.206.137-.02-.2-.14-.293-.33-.326-.194-.03-.286.09-.385.22-.83 1.11-1.803 2.09-2.76 3.09-.155.17-.212.14-.28-.07-.632-1.87-1.27-3.75-1.91-5.62-.047-.13-.055-.25.014-.38.21-.43.42-.87.62-1.31.06-.14.11-.19.27-.11.23.12.39.25.51.51.74 1.64 2.02 2.67 3.7 3.22.38.12.65.28.74.68z"/><path fill="#C0A89E" d="M19.778 20.866c-.115.38-.15.793-.485 1.082-.163.14-.33.208-.546.224-.89.065-1.784.017-2.67.078-.768.054-1.535.067-2.3.034-.58-.025-1.17 0-1.747-.122-.194-.16-.034-.283.05-.396.262-.35.534-.696.83-1.018.264-.288.37-.603.324-.984-.01-.093-.054-.202.048-.28.26-.035.45.133.655.24 1.184.63 2.45.665 3.736.525.66-.08 1.113-.47 1.412-1.05.234-.46.386-.94.557-1.42.042-.12.048-.32.277-.25.09.1.04.23.04.35-.01.92-.03 1.85-.05 2.77-.1.03-.07.15-.14.2z"/><path fill="#AE8C83" d="M24.42 20.692c-.027.105.05.24-.082.317 0-1.05.01-2.1-.004-3.15-.003-.26.074-.38.33-.45.743-.19 1.477-.41 2.24-.5.103-.03.206-.06.298.02-.068.28-.387.22-.55.4.538-.2 1.075-.34 1.64-.38h1.254c.743.02 1.39.33 2.035.65-.47-.34-1.02-.5-1.56-.69-.1-.09-.24-.06-.36-.09-.03-.01-.06-.03-.08-.05-.02-.03-.02-.06.01-.09 1.28-.05 2.5.18 3.68.68-.26.22-.25.5-.15.79.14.37.01.62-.32.81-.29.16-.55.38-.82.58-.79.63-1.74.77-2.71.82-.35.02-.68.16-1.03.14-.83-.05-1.64-.16-2.39-.55-.55-.29-1.02-.67-1.3-1.23.01.54 0 1.1 0 1.65 0 .09-.01.18-.08.25z"/><path fill="#FBCEBB" d="M34.662 33.932c-.068-.047-.117-.107-.133-.19-.08-.187-.2-.356-.29-.535-.31-.58-.41-1.188-.24-1.827.03-.11 0-.227.05-.332.14-.803.48-1.543.74-2.307.05-.16.24-.21.39-.24.44-.06.89-.09 1.34-.02-.08.06-.07.1.01.17.21.18.39.39.5.66.04.1.12.2-.01.3-.17-.01-.28-.14-.42-.21-.49-.24-.93-.16-1.29.25-.18.2-.28.44-.34.7-.14.66.44 1.2 1.09 1.04.44-.11.69-.66.48-1.06-.1-.19-.27-.23-.46-.22-.19.01-.34.09-.4.28.08.02.11-.01.14-.04.15-.14.33-.22.52-.09.2.14.2.34.14.55-.08.34-.42.56-.78.5-.42-.07-.7-.41-.67-.81.04-.45.45-1.01.81-1.09.45-.1.93.16 1.21.64.35.61.28 1.2-.09 1.77-.24.38-.63.44-1.05.38-.26-.03-.5-.18-.77-.18.48.26.98.44 1.52.19.47-.22.63-.64.68-1.13.02-.21-.09-.45.11-.63.13.06.12.18.13.29.01.22.02.43-.01.64-.16.95.06 1.81.54 2.63.06.11.19.21.1.36-1.05.02-2.12.23-3.16-.11-.16-.05-.32-.11-.43-.25z"/><path fill="#AE8C83" d="M19.92 17.54c-.17.02-.16.175-.197.28-.146.43-.296.853-.475 1.27-.33.767-.904 1.235-1.723 1.285-.987.06-1.99.106-2.94-.27-.45-.18-.888-.394-1.33-.592-.195.033-.345-.083-.505-.16-.345-.167-.683-.344-1.038-.49-.292-.123-.316-.213-.187-.497.057-.123.122-.242.2-.353.16-.232.13-.416-.118-.562-.076-.04-.154-.09-.192-.18.635-.25 1.294-.4 1.97-.48.076-.01.173-.06.205.04.027.09-.057.14-.13.18-.234.11-.493.17-.723.29-.128.07-.27.12-.447.27 1.686-.89 3.332-.81 4.996-.19-.244-.16-.552-.18-.8-.34-.08-.08-.244-.06-.253-.22.03-.02.06-.03.093 0 1.23.1 2.434.33 3.594.76z"/><path fill="#FBE7DC" d="M40.303 21.598c.238-.722.365-1.45.103-2.196-.254-.72-.65-.87-1.33-.503-.628.34-.983.92-1.3 1.52-.37.7-.65 1.44-.858 2.21-.046.17-.027.28.114.41.604.55.68 1.09.244 1.78-.156.25-.348.47-.553.68-.18.18-.43.04-.633.02-.16-.02-.03-.23 0-.35.488-1.71.723-3.48 1.203-5.18.27-.95.906-1.7 1.896-2.02.6-.2 1.07.03 1.35.64.29.64.36 1.33.35 2.02-.03 2.85-1.27 5.06-3.63 6.65-.52.35-1.02.35-1.46.04-.06-.04-.14-.05-.13-.14.02-.39.04-.8.31-1.12.15-.18.37-.18.56-.07.89.49 1.65.11 2.18-.56.35-.45.67-.91 1.01-1.36.08-.11.08-.21.01-.32-.09-.12-.03-.24.01-.35.15-.47.26-.95.3-1.45.01-.18.12-.28.22-.39zM4.62 23.856c.01.066 0 .15.036.196.458.574.792 1.247 1.35 1.743.52.465 1.1.592 1.755.284.46-.22.52-.18.59.3.04.27.07.54.13.8.06.24-.04.32-.26.36-.35.06-.68 0-.97-.19-2.09-1.37-3.34-3.27-3.65-5.77-.1-.83-.06-1.65.14-2.46.33-1.33 1.41-1.63 2.39-.66.62.6 1.03 1.28 1.19 2.18.28 1.51.66 3 .88 4.52.02.12.13.3-.04.36s-.35.12-.52-.12c-.19-.28-.44-.52-.58-.83-.25-.56-.17-1.08.3-1.47.21-.18.24-.33.17-.58-.31-1.02-.69-2.02-1.32-2.89-.3-.43-.67-.8-1.22-.91-.45-.09-.61-.02-.8.4-.38.85-.33 1.69.07 2.52.09.11.13.23.15.37.06.47.16.93.29 1.39.04.14.07.29-.04.42z"/><path fill="#D89D8D" d="M26.39 36.723c-.677.628-1.484 1.033-2.362 1.266-.47.12-.824.29-.972.77-.644 0-1.29.06-1.93-.05-.16-.03-.194.07-.255.16-.15-.64-.65-.81-1.22-.97-.87-.25-1.62-.73-2.24-1.41-.05-.23-.25-.42-.14-.67.93.35 1.87.67 2.81.96 1.78.55 3.5.35 5.21-.27l1.43-.52c.06.19-.11.3-.17.45-.04.09-.16.13-.15.25z"/><path fill="#C2B7B1" d="M11.417 17.266c.143.017.24.12.353.193.196.12.224.28.097.48-.136.22-.392.45-.327.68.068.23.435.23.66.35.345.19.704.35 1.057.53.25.63-.067 1.09-.468 1.52-.25.27-.48.56-.71.85-.07.08-.12.17-.05.27h-.21c-.43-.06-.79-.25-1.1-.55.08-.11.06-.22.03-.35-.19-.97-.34-1.94-.29-2.92.04-.88-.03-.69.71-1.01.07-.03.15-.05.22-.07z"/><path fill="#FBE7DC" d="M38.27 34.27c-.635-.897-.94-1.87-.76-2.986.048-.285.093-.604-.048-.894-.2-.24-.365-.496-.414-.813-.096-.46-.425-.755-.77-1.064.097-.015.17-.024.243-.035.48.01.95.104 1.41.212.52.12.58.188.62.733.05.745.1 1.49.14 2.236.06.97.2 1.93.64 2.82.05.1.15.23-.09.18-.34-.07-.71-.08-.95-.4z"/><path fill="#FBCEBB" d="M40.303 21.598c-.18.264-.13.58-.183.87-.08.452-.226.883-.35 1.323-.187-.06-.32.01-.43.17-.157.24-.333.46-.53.66.228-.77.202-1.5-.27-2.17-.172-.24-.394-.44-.66-.57-.185-.09-.252-.2-.14-.4.073-.12.12-.27.18-.4.234-.51.558-.61 1.04-.3.143.09.286.26.414.03.11-.2-.086-.29-.222-.39-.216-.15-.478-.17-.757-.23.258-.39.518-.74.935-.93.374-.17.534-.11.678.27.23.61.13 1.2-.038 1.8-.03.11-.088.22.02.32s.21.04.313-.01zM4.62 23.856c-.028-.498-.248-.958-.295-1.452-.023-.245-.07-.488-.105-.732.263 0 .33-.117.255-.37-.167-.558-.26-1.126-.077-1.7.162-.507.363-.58.827-.303.348.2.59.51.805.87-.303.05-.594.09-.83.28-.123.1-.234.21-.12.37.11.15.23.07.348-.02.068-.06.153-.1.237-.13.485-.18.608-.13.827.34l.056.12c.245.54.237.53-.227.88-.71.54-.91 1.28-.78 2.14.01.08.03.15.05.23.03.07.06.15-.08.15-.13-.2-.27-.4-.41-.6-.13-.2-.28-.24-.47-.1z"/><path fill="#D89D8D" d="M34.93 41.998c.254 1.002.49 2.013 1.088 2.883.2.3.54.35.867.4.47.08.942.07 1.416.07.75 0 1.49.01 2.24 0 .66-.01 1.1.39 1.59.82l-.39.14c0-.2-.18-.2-.31-.25-.74-.27-1.52-.18-2.28-.21-1.23-.04-2.46-.08-3.69-.2-.29-.02-.48-.16-.59-.42-.36-.82-.55-1.67-.37-2.57.06-.28.22-.49.46-.64z"/><path fill="#C2B7B1" d="M31.95 19.51c.272-.288.63-.466.943-.7.138-.1.218-.198.153-.385-.053-.157-.04-.337-.098-.494-.107-.3.035-.44.296-.52.4.08.562.3.577.73.04 1.04-.09 2.06-.27 3.07-.02.15-.07.29.03.42-.28.29-.62.46-1.01.55h-.27c.05-.15.04-.3-.05-.44-.19-.31-.31-.64-.48-.96-.2-.4-.12-.88.19-1.24z"/><path fill="#FEFEFE" d="M31.412 36.078c-.822.05-.822.05-1.2-.67-.48-.906-.48-.908.388-1.455.813-.512 1.596-1.063 2.336-1.674.058-.05.125-.09.236-.16v.54c.007.09-.012.18-.06.26-.536.94-.978 1.94-1.48 2.9-.05.1-.094.21-.22.24z"/><path fill="#D89D8D" d="M33.854 36.377c-.135.293-.067.604-.057.903.03.833.297 1.612.584 2.386.11.29.31.447.62.518.92.213 1.83.473 2.77.63.62.104 1.24.022 1.86.047.22.01.43-.01.64.08-.34.11-.69.1-1.03.1-1.38.01-2.75.06-4.13.09-.56.02-.96-.21-1.16-.74-.35-.91-.62-1.84-.7-2.81-.04-.51.24-1.02.63-1.18z"/><path fill="#0168B1" d="M32.706 38.75c-.472.266-1.01.36-1.503.573-.18.078-.13-.097-.115-.183.075-.393.186-.78.203-1.26l-1.43.962c-.06.046-.12.157-.22.046.18-.593.37-1.186.55-1.78.04-.112.11-.13.21-.13.67 0 1.34.002 2.01 0 .14 0 .18.057.16.188-.05.538.06 1.06.16 1.584z"/><path fill="#D89D8D" d="M11.827 16.72c.334-.314.336-.317-.01-.645-.22-.208-.454-.4-.67-.61-.135-.13-.287-.1-.442-.095-.123.003-.245-.005-.368-.008 1.274-.092 2.54-.337 3.815.105 1.02.354 2.088.568 3.113.92-.057.178-.18.084-.284.072-.95-.09-1.91-.13-2.87-.09-.77.03-1.52.2-2.27.34z"/><path fill="#D79C8D" d="M33.315 16.24c-.257-.028-.467.11-.695.187-.214.07-.24.167-.063.31-1.03-.226-2.064-.374-3.125-.378-1.332-.01-2.64.14-3.928.47-.406.1-.802.24-1.21.33-.253.05-.322.17-.307.42.038.59.01.49-.476.49-.94 0-1.88-.02-2.82.01-.33.01-.42-.11-.38-.41.02-.14.01-.27.01-.41.16.14.07.31.07.47.01.18.05.26.25.26 1.02-.01 2.03 0 3.05 0 .11 0 .26.02.24-.16-.02-.31.08-.62.01-.93.03-.17.18-.16.29-.18 2.08-.41 4.15-.89 6.25-1.18.11-.02.21-.03.31-.01.84.18 1.69.33 2.52.58.04.02.05.05.04.1z"/><path fill="#565656" d="M37.115 3.112c-.053.137-.05.31-.3.25-.138-.034-.153.17-.25.24.02-.175-.017-.24-.193-.114-.506.36-1.043.682-1.52 1.077-.395.326-.825.25-1.257.252-.12 0-.202-.116-.242-.216-.055-.13.1-.15.174-.2.35-.23.682-.52 1.067-.65 1.056-.34 1.565-1.22 2.14-2.05.066-.09.13-.17.247-.21.44-.15.83-.37 1.03-.85.18.43.17.6-.09.99-.31.48-.73.82-1.23 1.08-.14.08-.27.13-.18.36.1.24.19.31.41.15.07-.04.15-.06.22-.09z"/><path fill="#FACDBB" d="M20.87 38.884l-.042-.29c.71.135 1.417.104 2.126.07.08-.004.083.056.103.104-.15.486-.403.928-.63 1.38-.116.23-.812.24-.934.01-.223-.416-.47-.823-.622-1.274z"/><path fill="#D89D8D" d="M38.27 34.27c.312.147.612.318.95.403-1.193-.013-2.365.143-3.524.41-.123.028-.216.007-.293-.104-.245-.36-.534-.68-.74-1.05.897.36 1.825.42 2.774.27.282-.05.557.03.834.06z"/><path fill="#D79C8C" d="M38.538 23.706c-.038.433-.14.813-.313 1.174-.038.08-.114.194-.086.248.26.515-.25.472-.46.645-.05.038-.13.048-.2.046-.12-.01-.28.06-.35-.06-.06-.11.09-.19.16-.27.31-.37.56-.77.62-1.26.06-.53-.09-.99-.46-1.37-.13-.14-.11-.57.01-.68.09-.08.15 0 .21.04.56.34.81.85.83 1.46zm-31.223 2.06c-.377.11-.834-.02-1.063-.305-.026-.03-.067-.09-.057-.1.28-.31-.044-.54-.128-.79-.31-.92-.145-1.73.506-2.21.104-.07.206-.24.368-.14.14.08.15.52.04.65-.3.34-.49.72-.48 1.19.01.62.32 1.09.71 1.53.05.05.09.11.12.16.01.01 0 .02 0 .03z"/><path fill="#565656" d="M13.376 1.502l3.686 2.033c-.05.184-.18.088-.283.076-1.06-.05-1.99-.4-2.74-1.16-.28-.28-.59-.53-.8-.87 0-.11.04-.13.13-.07z"/><path fill="#F9E5DA" d="M26.845 34.754c.02-.27.185-.42.43-.496.194.018.146-.143.18-.244.044-.297.388-.375.468-.646l-.003.002c.113-.113.23-.223.34-.34.065-.072.13-.112.224-.057.11.035.153.13.174.226.064.31.217.6.22.92-.304.22-.5.1-.65-.2-.04-.08-.093-.22-.224-.14-.164.1-.016.19.035.27.22.36.23.36-.15.55-.22.1-.44.19-.64.31-.25.15-.37.08-.41-.19z"/><path fill="#FCFBFB" d="M13.92 35.707c-.408-.66-.708-1.378-1.08-2.06-.037-.075-.035-.13.07-.134.46.28.917.57 1.384.84.15.086.18.164.107.314l-.48 1.04z"/><path fill="#383736" d="M16.515 16.94c.264.1.53.197.79.304.09.038.27.043.187.208-.08.157-.2.022-.29-.016-1.29-.545-2.61-.617-3.95-.218-.29.087-.57.218-.832.377-.084.05-.187.15-.264.027-.082-.13.066-.17.145-.215.4-.234.83-.402 1.28-.53-.05-.117-.13-.065-.19-.098.11-.09.23-.07.35-.05.16.07.32.03.47-.01.02-.01.04-.01.06-.01.38.03.76-.03 1.14.04.2-.02.39.02.58.03.19 0 .36.11.54.15z"/><path fill="#353535" d="M28.204 17.06c-.52.048-1.02.172-1.505.36-.09.033-.22.124-.26-.016-.06-.142.11-.133.19-.17.18-.083.37-.157.56-.234.27-.178.59-.14.89-.207.07.008.14-.046.21-.004.06-.02.13-.05.19-.07.35.09.72-.03 1.08.06.02 0 .04.01.06 0 .13.08.29-.03.41.07.55.16 1.09.34 1.58.66.07.04.23.08.14.21-.08.13-.18 0-.26-.04-.59-.33-1.19-.6-1.87-.65-.48-.05-.96-.05-1.45 0z"/><path fill="#F8E3D8" d="M16.768 33.983c.165-.052.26.024.288.18.023.133.05.24.22.23l-.002-.003c.257.225.63.327.747.7-.03.116-.07.235-.22.144-.19-.117-.51-.063-.54-.4 0-.05-.09-.092-.13-.056-.27.222-.44-.093-.65-.138-.13-.027-.1-.122-.03-.205l.35-.452z"/><path fill="#FBDFD6" d="M20.714 18.826c.23.03.31.208.282.39-.075.477-.205.94-.61 1.28-.09-.075-.038-.175-.07-.25-.11-.542.142-.98.398-1.42z"/><path fill="#FADFD5" d="M23.937 19.568c-.003.213-.005.426-.01.64 0 .052.015.12-.047.147-.08.036-.127-.03-.165-.08-.2-.27-.37-.563-.448-.894-.042-.18-.078-.39.136-.51.23-.12.19.21.34.23.094.15.162.3.194.47z"/><path fill="#F2DED3" d="M10.463 15.014c0-.098-.052-.16-.14-.195-.028-.08-.007-.14.04-.19.34-.36.723-.67 1.162-.9.05-.03.106-.03.162-.01.14-.01.223.04.208.19-.513.31-.994.67-1.432 1.09z"/><path fill="#F6E2D7" d="M23.448 35.96c.223-.11.463-.043.695-.065.13.13.104.2-.078.236-.353.08-.705.15-1.054.24-.23.06-.27-.06-.24-.25 0-.34.18-.33.41-.21.1.02.2 0 .28.07z"/><path fill="#130F0E" d="M25.88 35.55c.086-.05.173-.1.277-.157-.163-.36-.33-.722-.493-1.085-.04-.088-.116-.188.03-.253.147-.066.167.063.208.147.14.293.278.587.416.88.098.148.275.026.39.117-.247.18-.514.32-.83.35z"/><path fill="#151312" d="M33.152 31.13c-.227-.312-.563-.504-.827-.773-.073-.074-.217-.138-.083-.27.113-.11.182.017.25.076.273.234.54.474.822.722.09-.03.04-.176.126-.237.044.244-.064.397-.288.48z"/><path fill="#E9D5CB" d="M34.053 31.047c-.04.567-.15 1.137.092 1.692.143.32.258.66.385 1-.735-.8-.833-1.71-.477-2.7z"/><path fill="#F4DFD5" d="M20.926 35.893c.186-.18.393-.168.61-.063.19.143.202.326.124.533-.167-.025-.333-.057-.5-.072-.27-.02-.35-.15-.234-.39z"/><path fill="#100E0D" d="M21.66 36.363c-.04-.178-.082-.355-.124-.533-.04-.187-.085-.37-.116-.56-.016-.096-.115-.23.06-.28.192-.055.148.125.173.21.085.302.155.606.23.91.093.09.15.195.152.327-.136.032-.258-.007-.374-.074z"/><path fill="#1D1A19" d="M28.875 34.123c-.216-.354-.23-.778-.393-1.15.023-.066-.055-.157.045-.203.096-.044.166-.002.223.076.084.324.18.646.246.975.037.18.133.13.235.11-.07.14-.2.2-.35.2z"/><path fill="#F3DFD5" d="M22.035 36.438c-.17-.055-.144-.2-.15-.328.023-.107-.04-.264.15-.276.184-.01.38-.045.455.197.052.39.052.39-.455.41z"/><path fill="#ECD5CA" d="M26.39 36.723c-.16-.134.026-.184.068-.266.077-.148.167-.29.25-.436.157-.06.333-.29.46-.15.104.12-.148.26-.254.38-.157.18-.316.36-.523.48z"/><path fill="#1A1817" d="M8.913 25.203l.097.25.398-.56c.045-.064.095-.086.168-.042.067.05.1.1.052.17-.14.2-.28.4-.423.6-.062.09-.144.02-.216.02-.15-.12-.09-.28-.08-.43z"/><path fill="#141211" d="M34.12 28.62c-.383-.062-.444-.433-.644-.67-.046-.054.014-.1.06-.133.07-.05.127-.022.17.04.09.13.174.262.27.387.054.072.07.203.214.163.005.08.02.165-.07.214z"/><path fill="#EEDBD0" d="M20.038 35.768l.63-.006c-.002.138.054.352-.096.375-.17.027-.368-.06-.538-.133-.11-.047-.003-.156.004-.236z"/><path fill="#E6D2C7" d="M17.263 35.844c.02.23.206.423.14.67-.197-.148-.3-.375-.45-.56-.05-.062-.147-.145-.073-.23.077-.088.16.014.238.04.05.02.097.052.145.08z"/><path fill="#D39B8B" d="M19.633 16.393c.28.044.505.13.35.485-.047.108.004.187.065.266-.207.007-.29-.108-.317-.3-.02-.152-.06-.3-.09-.45z"/><path fill="#454545" d="M37.73 10.88c-.064 0-.12.02-.148.082l-.74-.485c-.002-.118.06-.12.144-.076.264.14.523.28.743.48z"/><path fill="#645753" d="M15.436 16.785c-.39-.025-.79.09-1.173-.068.39-.077.78-.076 1.17.01.02.012.027.024.02.038-.005.013-.01.02-.017.02z"/><path fill="#D7C6BD" d="M36.098 19.104c-.135-.12-.295-.042-.444-.06-.126-.013-.27.05-.37-.08.38-.006.76-.007 1.137-.02.37-.013.37-.005.23.358-.08-.083-.12-.216-.28-.183-.08-.08-.17-.1-.26-.02z"/><path fill="#8C736C" d="M28.128 16.853c-.32-.017-.615.14-.933.148-.074-.1-.193-.05-.29-.08.333-.1.677-.12 1.022-.14.07.02.19-.1.2.08z"/><path fill="#E5D1C7" d="M26.707 35.2c-.146.02-.352.232-.39-.117.138-.012.21-.104.267-.213.082.095.136.2.123.33z"/><path fill="#8A706A" d="M15.436 16.785c-.003-.02-.004-.038-.004-.057.3-.006.602-.046.895.056l-.068.02c-.09.062-.2-.013-.28.046-.19-.02-.37-.043-.55-.065z"/><path fill="#957A73" d="M29.572 16.793c-.36-.03-.73.07-1.082-.063.36-.012.72-.05 1.08-.008l.002.07z"/><path fill="#333" d="M36.985 10.4c-.06.004-.115.014-.144.076-.13-.028-.23-.123-.33-.207-.01-.07.01-.1.08-.08.15.04.3.09.41.2z"/><path fill="#444" d="M27.19 3.126c.098.118.235.044.35.075-.218.12-.45.06-.745.07.157-.1.268-.15.396-.14z"/><path fill="#454141" d="M34.34 8.91c-.03-.166-.115-.337.057-.478.22.188-.026.32-.058.477z"/><path fill="#FBE7DC" d="M36.36 19.12c.27-.208.27-.003.28.183-.163.05-.2-.1-.28-.183z"/><path fill="#DBB5A7" d="M19.778 20.866c.042-.07-.093-.266.142-.198.03.142-.007.304.136.407-.163.024-.18-.144-.278-.21z"/><path fill="#E5CDC2" d="M19.907 35.537l.01.15c-.147-.002-.146.364-.376.152.19-.03.24-.13.18-.3.06-.05.12-.05.19-.01z"/><path fill="#BE897C" d="M16.98 16.46c.094-.03.21.028.285-.07l.27.072c.008.07-.016.1-.087.072-.157-.02-.322.01-.467-.074z"/><path fill="#967A72" d="M14.205 16.726c-.13.116-.305.086-.458.118-.085.018-.025-.07-.013-.114.157 0 .314-.002.47-.004z"/><path fill="#BB9A8B" d="M20.336 18.75c-.03-.155-.083-.267.04-.348.02-.013.082 0 .09.016.055.124-.032.204-.13.332z"/><path fill="#3F3F3F" d="M13.376 1.502c-.06-.002-.106.02-.136.074-.087-.065-.17-.134-.23-.267.16.03.278.08.366.19z"/><path fill="#191919" d="M7.947 2.453c-.098-.116-.056-.258-.068-.39-.01-.043-.03-.13.07-.1.03.013.05.09.07.136-.13.09-.05.23-.08.35z"/><path fill="#424242" d="M16.78 3.61c.094-.023.21.028.283-.075.066.01.136.014.162.13-.157.005-.305.043-.445-.054z"/><path fill="#212121" d="M32.764 1.02l.076.007c-.008.126-.093.19-.224.276-.002-.15.043-.23.148-.282z"/><path fill="#8E746A" d="M23.97 18.647c-.088-.054-.132-.124-.103-.22.006-.02.063-.043.076-.034.102.07.086.16.027.254z"/><path fill="#454545" d="M38.143 11.08c-.172.004-.318-.044-.412-.2.16.032.29.1.42.2z"/><path fill="#151515" d="M39.095 9.172c.075.085.14.174.116.303-.11.007-.14-.084-.19-.155.06-.03.07-.09.08-.148z"/><path fill="#2E2E2E" d="M19.914 2.727c.046-.024.092-.05.138-.073.082 0 .15.026.223.104-.135.052-.25.054-.36-.03z"/><path fill="#A87278" d="M12.91 33.514c-.06.026-.06.084-.07.135-.094-.06-.116-.16-.122-.26.084.01.16.03.192.12z"/><path fill="#393939" d="M37.526 14.957c-.06.11-.216.028-.274.14-.074-.013-.148-.05-.038-.1.09-.043.208-.03.312-.04z"/><path fill="#252525" d="M36.578 10.194l-.074.075c-.063-.05-.124-.09-.217-.15.153-.07.22.01.29.06z"/><path fill="#3A3A3A" d="M25.69.606c.01.05.01.105.065.134-.025.074-.09.167-.147.105-.073-.078.02-.17.083-.24z"/><path fill="#8A645A" d="M17.74 16.523c.118.027.236.055.378.09-.153.08-.266.03-.377-.024-.02-.02-.03-.03-.02-.05.01-.02.02-.02.03-.02z"/><path fill="#6B615D" d="M10.138 7.556c.042.09.137.03.198.068-.09.065-.196.11-.286.03-.038-.032.036-.082.088-.098z"/><path fill="#AC7D70" d="M17.74 16.523c.003.022.003.044 0 .066-.1-.01-.205.01-.294-.06l.088-.07.207.06z"/><path fill="#3C3C3C" d="M14.272 1.226l.08-.078c.06.06.102.13.1.227-.106 0-.138-.08-.18-.15z"/><path fill="#5B4C48" d="M28.128 16.853c-.048-.078-.135-.045-.2-.073.123-.07.246-.102.365.01l-.165.063z"/><path fill="#292929" d="M37.53 12.777c-.056.01-.114.017-.144.075-.05-.026-.12-.067-.067-.116.06-.056.15-.025.21.04z"/><path fill="#333" d="M36.576 6.26l-.067.13c-.06-.01-.13-.008-.11-.084.02-.072.1-.052.17-.047z"/><path fill="#5F4E48" d="M22.973 4.426c-.09.042-.04.138-.075.202-.065-.08-.082-.173-.015-.253.028-.035.074.007.09.05z"/><path fill="#181818" d="M39.027 14.47c.063.012.146-.007.168.067.02.078-.055.073-.105.08-.022-.05-.04-.097-.063-.146z"/><path fill="#65524B" d="M5.65 24.534c.052.075.108.166.033.238-.035.034-.086-.044-.105-.098.03-.044.007-.115.072-.14z"/><path fill="#AA8B80" d="M5.65 24.534c-.016.05-.006.115-.072.14-.025-.043-.05-.086-.077-.128l.08-.148.07.136z"/><path fill="#2F2F2F" d="M36.853 8.013c-.046.025-.093.05-.138.076-.05-.02-.124-.07-.086-.11.06-.07.15-.04.22.02z"/><path fill="#0168B1" d="M20.148 45.893c.753-.01.797.05.48.676-.152.29-.276.59-.24.93.014.13-.005.25-.205.19-.79-.24-1.583-.46-2.285-.91-.066-.04-.13-.09-.188-.14-.225-.21-.208-.34.094-.41.48-.12.968-.21 1.458-.27.31-.04.622-.12.886-.08z"/><path fill="#010203" d="M19.014 42.55c.64.095 1.286.19 1.933.284.114.016.197.064.195.19-.003.17-.136.164-.246.15-.692-.093-1.384-.19-2.075-.29-.1-.016-.21-.072-.18-.2.05-.217.24-.096.38-.133z"/><path fill="#0168B1" d="M22.98 46.475c.068-.202.15-.497.262-.778.168-.42.193-.833.027-1.254-.08-.187-.04-.277.18-.245 1.07.156 2.14.313 3.17.678.15.057.31.13.45.218.13.08.31.15.29.34-.02.175-.18.257-.33.315-.49.18-.97.39-1.46.54-.73.23-1.47.43-2.22.59-.32.06-.4-.01-.38-.41z"/><path fill="#000203" d="M23.762 43.445c-.13-.002-.28.022-.3-.15-.02-.172.128-.2.25-.216.647-.09 1.296-.17 1.946-.25.123-.02.273-.02.295.15.02.17-.127.17-.254.19l-1.94.27zm-.97-.968c-.117.006-.193-.03-.215-.138-.02-.11.017-.19.12-.22.597-.17 1.195-.33 1.794-.49.11-.03.18.03.22.11.05.11-.02.19-.1.21-.6.17-1.21.34-1.81.5z"/><path fill="#D89D8D" d="M40.113 39.166l-.744-.96c.85.183 1.6.34 2.34.506.22.048.43.116.65.173.11.028.18.08.19.205.03.475-.35 1.012-.82 1.158-.44-.322-.91-.613-1.32-.972-.1-.08-.21-.077-.31-.11z"/><path fill="#D99D8D" d="M40.988 44.264l1.843-.193c.15-.01.22.02.18.19-.06.24-.12.48-.18.73-.03.15-.11.18-.25.11l-1.59-.75.01-.07z"/><path fill="#0B0808" d="M40.113 39.166c.09-.057.162-.144.287-.027.39.35.813.68 1.28.93.08.04.065.11.06.17-.05.04-.1.1-.177.05-.53-.32-1.065-.64-1.45-1.14z"/><path fill="#C0A89E" d="M31.95 19.51c-.077.244-.144.494-.234.734-.054.14.007.24.062.348.2.4.398.802.6 1.202.072.146.125.286-.084.367-1.2.16-2.41.2-3.613.13-1.05-.06-2.11.01-3.17-.11-.45-.05-.64-.36-.81-.72-.11-.24-.1-.53-.27-.75v-2.22c.53 1.08 1.4 1.57 2.43 1.81.46.11.93.24 1.4.17.98-.14 1.97-.17 2.92-.48.3-.09.48-.37.78-.46z"/><path fill="#020101" d="M22.43 30.672c-1.603.02-3.192-.096-4.768-.393-.1-.02-.206-.02-.272-.12-.042-.06-.055-.13-.013-.19.075-.11.194-.12.306-.1.414.06.826.14 1.24.19 2.548.31 5.087.21 7.62-.16.194-.03.5-.18.55.11.06.32-.29.24-.473.27-1.388.22-2.785.35-4.19.37z"/><path fill="#D89D8D" d="M21.206 33.788c.002.154-.105.147-.21.138-.098-.01-.14-.082-.122-.166.052-.256-.117-.393-.272-.54-.218-.206-.276-.562-.61-.66.112-.1.254-.116.386-.093.882.15 1.763-.046 2.645-.006.167.01.343-.02.49.09.045.34-.262.47-.4.7-.075.07-.11.17-.21.21-.07-.04-.135-.05-.22-.02-.373.13-.757.19-1.15.16-.137-.01-.238.04-.317.14-.05 0-.11-.08-.137-.02-.02.04.08.05.12.09zm-.746-8.225c.423.067.843.143 1.266.2.556.078 1.06-.176 1.59-.266-.015.22-.294.214-.342.406-.127.248-.023.356.226.387.175.022.364-.046.522.083-.855.207-1.704.52-2.6.256-.36-.11-.734-.1-1.096-.18-.066-.02-.136-.01-.17-.09.14-.11.295-.07.446-.05.17.02.35.04.453-.12.103-.16-.084-.25-.145-.37-.038-.1-.183-.14-.15-.27z"/><path fill="#050404" d="M10.882 23.308c-.034-.132-.207-.343.146-.26.046.077.087.157.138.23.29.42.29.42.623.064.05-.058.1-.136.19-.07.11.083.02.153-.02.226-.24.366-.24.368.17.56.15.07.31.133.46.2.23.1.46.19.46-.213 0-.08.05-.125.13-.114.1.02.08.11.06.16-.14.38.09.44.37.48.19.03.38.07.57.09.18.02.38.05.34-.25-.01-.05.01-.11.08-.12.06 0 .13.01.12.08-.03.37.21.23.4.22.15 0 .38-.23.43-.01.05.22-.25.18-.4.22-.24.07-.51.07-.47.43 0 .06-.01.18-.14.15-.11-.02-.13-.1-.1-.18.12-.31-.07-.29-.28-.29-.25.01-.5-.04-.74-.11-.2-.06-.35-.09-.34.2 0 .09-.02.21-.15.18-.14-.02-.09-.15-.07-.22.09-.26-.05-.35-.27-.42-.29-.09-.58-.21-.84-.36-.18-.1-.28-.07-.38.09-.07.11-.13.28-.33.18-.12-.09-.03-.18.02-.25.14-.18.12-.34-.05-.49-.11-.08-.16-.21-.19-.34z"/><path fill="#D89D8D" d="M18.487 26.243c-.65.1-1.052-.26-1.397-.74-.278-.388-.11-.713.163-.942.213-.17.462-.31.708-.45.25-.13.42-.03.45.25-.49.49-.52 1.02-.09 1.56.08.1.22.17.18.34z"/><path fill="#050403" d="M23.512 32.55c-1.173.01-2.347.137-3.52.01-.04-.304.055-.41.39-.39.915.06 1.833.012 2.748-.03.33-.015.46.083.382.41z"/><path fill="#030202" d="M20.66 25.787c.053.057.11.11.157.17.158.207.095.38-.164.44-.268.065-.53-.026-.796-.028-.067-.03-.134-.05-.202-.07-.162-.05-.32-.11-.45-.22-.115-.1-.195-.22-.157-.39.035-.15.157-.22.29-.25.5-.13.927.04 1.322.33z"/><path fill="#020201" d="M23.723 26.373c-.167.006-.335.018-.503.016-.4-.01-.5-.19-.302-.53.37-.36.82-.49 1.324-.46.18.01.343.06.404.24.067.2-.055.34-.197.46-.14.12-.31.13-.47.19l-.27.06z"/><path fill="#060504" d="M25.218 25.903c.39-.392.434-.69.17-1.223-.065-.136-.157-.25.053-.35.24-.11.22.112.26.2.43.862.18 1.495-.83 2.088-.15.093-.19-.025-.26-.105-.06-.182.07-.266.18-.348.14-.096.27-.206.43-.262z"/><path fill="#D59B8B" d="M25.218 25.903c-.098.175-.282.247-.43.36-.09.066-.202.11-.182.25-.12-.326-.41-.148-.62-.21.148-.095.303-.185.446-.288.113-.08.205-.195.166-.342-.042-.154-.19-.17-.326-.188-.506-.07-.948.09-1.355.376.04-.22.284-.22.4-.36.315-.11.628-.22.974-.21.67.01.67 0 .93.62z"/><path fill="#050403" d="M18.487 26.243c-.32-.325-.596-.67-.548-1.17.02-.256.12-.472.27-.674.06-.09.12-.09.19-.05.08.1.15.18.04.34-.24.33-.23.68.04 1 .21.08.34.26.51.4.06.05.08.12.03.2-.23.38-.37-.03-.55-.07z"/><path fill="#D59B8B" d="M19.036 26.31c-.084-.29-.435-.343-.545-.61.23-.395.79-.557 1.34-.377.22.07.42.16.63.24.06.088.19.1.2.225-.35-.18-.71-.33-1.12-.28-.16.022-.36.015-.41.218-.05.184.11.28.23.377.1.076.21.137.31.204-.12.03-.24.005-.34-.062-.12-.087-.19-.01-.27.066z"/><path fill="#FBE6DB" d="M25.9 31.072c.03.17-.032.3-.22.386-.23.104-.454.13-.687.037-.13-.053-.06-.165-.027-.23.12-.25.31-.442.52-.618.076-.064.174-.074.252-.018.143.1.17.25.162.44z"/><path fill="#120F0E" d="M24.628 28.688c-.017.01-.057.026-.096.048-.06.03-.11.02-.146-.035-.242-.38-.485-.76-.723-1.14-.042-.07-.01-.13.062-.16.06-.03.106-.02.143.04l.722 1.15c.012.02.014.05.038.12z"/><path fill="#0F0C0B" d="M22.812 27.27c.086-.013.11.063.145.116.206.31.41.623.613.938.048.074.108.154-.014.225-.125.07-.154-.03-.202-.11-.198-.31-.395-.61-.595-.91-.08-.11-.11-.21.05-.27z"/><path fill="#120F0E" d="M17.274 34.393c-.105-.086-.172-.162-.05-.3.23-.265.44-.546.662-.817.05-.063.1-.125.194-.06.11.077.07.15.005.226-.274.313-.49.678-.812.95z"/><path fill="#14100F" d="M19.907 35.537l-.188.012c-.09-.08-.06-.16-.01-.25l.48-.9c.04-.09.08-.22.22-.13.13.08.04.17 0 .26l-.51.99z"/><path fill="#0F0D0C" d="M27.453 34.014c0 .11.23.166.072.313-.12.115-.172-.03-.25-.068-.202-.26-.406-.52-.604-.78-.05-.08-.16-.15-.04-.26.13-.11.18.01.24.08.2.23.4.46.59.7z"/><path fill="#0F0C0B" d="M23.448 35.96c-.104.036-.205.056-.273-.062-.134-.32-.272-.64-.4-.962-.034-.08-.14-.184.023-.25.126-.05.156.047.188.13.15.383.406.725.462 1.145z"/><path fill="#151110" d="M24.782 27.74c.108.007.132.078.165.134.182.313.364.626.542.94.04.074.11.158-.02.224-.13.063-.16-.04-.2-.115l-.55-.938c-.03-.057-.1-.11-.04-.182.02-.032.07-.05.09-.063z"/><path fill="#100D0C" d="M18.6 33.513c-.063.142-.125.286-.19.43-.1.216-.2.43-.298.645-.036.08-.075.143-.176.104-.104-.04-.087-.117-.052-.194.154-.34.31-.677.463-1.016.03-.068.07-.12.152-.084.04.018.1.037.1.115z"/><path fill="#0B0908" d="M18.124 28.828c-.083-.042-.162-.094-.087-.203.214-.318.434-.633.65-.95.044-.066.092-.092.165-.04.058.043.11.084.057.162l-.67.978c-.03.038-.06.067-.12.053z"/><path fill="#110E0D" d="M22.393 35.24c.046.104-.032.133-.11.158-.094.03-.113-.037-.13-.107L21.9 34.2c-.02-.08-.02-.157.084-.187.117-.033.14.06.157.13.09.363.17.726.26 1.097z"/><path fill="#F5CAB8" d="M10.882 23.308c.01.006.02.01.028.018.346.31.533.646.185 1.076l-.088.01c-.092-.364-.343-.707-.125-1.104z"/><path fill="#131110" d="M15.58 32.77c-.085.183-.172.364-.258.546-.042.088-.063.205-.21.138-.134-.062-.05-.15-.023-.225.06-.18.13-.36.2-.53.06-.13.13-.26.18-.39.04-.1.1-.11.18-.07.09.04.09.09.05.18-.06.1-.09.22-.14.33z"/><path fill="#0F0D0C" d="M19.598 27.76c-.042.076-.09.166-.14.254l-.398.708c-.04.073-.082.136-.184.087-.122-.06-.084-.14-.036-.22.167-.3.335-.59.5-.89.037-.07.076-.12.156-.08.044.02.11.04.102.13z"/><path fill="#0F0D0B" d="M25.66 27.713c.036.06.06.113.096.156l.584.7c.064.07.152.14.022.25-.12.09-.155-.02-.206-.08-.205-.24-.407-.49-.608-.73-.04-.05-.116-.1-.054-.17.032-.04.082-.07.166-.14z"/><path fill="#100E0D" d="M31.744 28.56c.095.06.187.122.283.18.082.046.164.087.095.204-.073.125-.153.042-.23.01-.092-.04-.182-.087-.272-.13-.143-.087-.295-.16-.426-.263-.09-.06-.326-.05-.22-.25.116-.21.24.01.352.05.145.05.28.14.418.21z"/><path fill="#130F0E" d="M27.922 33.367c-.107.067-.2.13-.31-.02-.17-.238-.362-.46-.548-.688-.068-.09-.13-.17-.018-.26.117-.1.16.02.207.08.217.3.504.54.665.88h.004z"/><path fill="#131110" d="M29.162 32.217c.217.32.317.69.48 1.035.03.066.076.148-.035.2-.12.054-.157-.024-.197-.112-.15-.327-.303-.652-.454-.98.038-.09.12-.12.206-.143z"/><path fill="#181412" d="M29.045 30.52c.008.066-.03.105-.08.133-.06.033-.11.008-.148-.038l-.68-.8c-.05-.057-.07-.113-.004-.174.06-.05.122-.06.177 0l.708.82c.013.02.02.04.027.06z"/><path fill="#130F0E" d="M29.157 28.18c.054.037.103.064.144.1l.72.63c.08.063.14.122.04.22-.08.08-.14.03-.2-.024-.24-.22-.49-.438-.73-.66-.05-.043-.11-.085-.06-.165.02-.03.06-.06.1-.1z"/><path fill="#14100F" d="M19.84 28.688c-.104-.034-.184-.086-.12-.195.194-.332.395-.66.596-.988.034-.055.092-.058.15-.03.058.03.085.08.052.14-.198.342-.4.683-.603 1.02-.014.025-.05.037-.075.053z"/><path fill="#161210" d="M29.834 30.216c.004.104-.03.128-.074.148-.074.036-.13.01-.166-.06-.162-.31-.323-.62-.482-.93-.035-.07-.028-.136.047-.17.03-.018.11-.028.12-.014l.55 1.026z"/><path fill="#13100F" d="M15.756 29.625c-.168.31-.35.647-.536.982-.035.063-.093.043-.146.012-.072-.05-.084-.11-.05-.18.164-.31.33-.62.497-.93.04-.07.09-.11.17-.06.05.03.1.06.08.16z"/><path fill="#100D0C" d="M15.507 28.322c-.022.038-.034.072-.057.092-.267.24-.536.477-.804.715-.06.05-.114.05-.173-.01-.075-.08-.042-.13.028-.19.26-.23.5-.45.75-.68.05-.05.11-.09.18-.04.03.02.06.06.08.1z"/><path fill="#181412" d="M21.07 27.363c.112.02.185.066.136.186-.134.32-.27.64-.41.96-.03.07-.08.1-.16.06-.057-.03-.1-.07-.074-.13.143-.35.29-.69.438-1.03.01-.03.05-.04.07-.06z"/><path fill="#100E0D" d="M29.9 31.36c.07.247.145.493.21.74.017.067.068.157-.05.195-.115.038-.162-.026-.193-.123-.072-.21-.146-.42-.22-.63-.002-.033-.005-.066-.006-.1 0-.136-.2-.326.04-.39.2-.048.12.223.22.31z"/><path fill="#161211" d="M28.91 31.89c-.002 0-.047.015-.086.038-.06.035-.108.014-.147-.032-.23-.276-.462-.554-.69-.83-.04-.048-.05-.1.005-.148.046-.038.105-.08.147-.03.25.298.5.603.75.905 0 .006 0 .02.01.098z"/><path fill="#161412" d="M16.11 33.447c-.045.136-.093.27-.133.406-.026.088-.04.178-.167.154-.127-.023-.1-.12-.1-.207.04-.16.072-.326.133-.482.042-.127.08-.254.125-.38.03-.085.02-.22.178-.187.163.04.09.16.072.25-.03.16-.072.31-.11.46z"/><path fill="#100D0C" d="M27.033 27.822c.02.048.037.107.072.15.2.247.404.488.604.734.04.056.12.11.03.198-.1.095-.16.034-.22-.04l-.63-.76c-.04-.047-.11-.095-.04-.166.03-.03.07-.048.17-.116z"/><path fill="#110E0D" d="M17.906 27.988c-.038.055-.067.102-.102.143-.2.24-.403.49-.607.72-.057.07-.113.16-.22.07-.115-.09-.023-.16.03-.22.208-.25.42-.49.63-.74.044-.05.09-.11.167-.06.035.03.063.06.102.1z"/><path fill="#0F0C0B" d="M22.347 27.38c.045-.003.064.063.09.126l.338.81c.035.08.082.165-.047.216-.106.04-.137-.02-.17-.102-.12-.28-.24-.557-.366-.834-.058-.127-.018-.193.155-.217z"/><path fill="#0C0A09" d="M14.895 32.092c-.08.06-.028.25-.208.207-.192-.05-.037-.19-.07-.28.09-.28.177-.55.272-.83.02-.07.01-.2.16-.16.13.04.11.14.08.24l-.24.8z"/><path fill="#191412" d="M13.756 29.06c-.03.05-.053.09-.08.126-.188.254-.376.508-.568.76-.053.068-.106.164-.215.068-.085-.074-.037-.14.012-.205l.593-.79c.044-.06.096-.11.17-.06.034.02.057.06.088.09z"/><path fill="#110F0E" d="M11.913 28.693c-.096.077-.188.16-.29.227-.08.053-.14.225-.267.086-.146-.16.054-.203.123-.275.12-.13.27-.26.41-.38.16-.02.26-.37.42-.19.16.2-.18.26-.27.4-.04.06-.09.1-.14.15z"/><path fill="#151211" d="M31.467 29.316c.076.11.167.214.227.333.057.11.297.21.128.35-.185.15-.206-.13-.306-.2-.062-.05-.105-.12-.156-.18-.096-.14-.194-.27-.287-.41-.05-.08-.17-.16-.03-.25.13-.09.17.05.23.11.067.07.13.15.194.23z"/><path fill="#13100E" d="M16.895 28.098c-.04.045-.072.086-.11.122-.204.19-.408.383-.615.57-.065.06-.13.134-.222.024-.09-.107-.01-.156.056-.217.207-.188.413-.38.62-.565.048-.043.1-.104.173-.05.033.026.056.067.098.116z"/><path fill="#0F0C0B" d="M14.604 26.934c.04.023.085.04.117.068.07.06.04.12 0 .18l-.46.697c-.05.07-.11.1-.19.05-.07-.05-.07-.11-.02-.18.17-.26.33-.51.5-.76.02-.03.05-.04.08-.07z"/><path fill="#181311" d="M12.706 27.92c-.076-.038-.187-.09-.107-.186.2-.243.42-.468.64-.697.06-.068.12-.022.17.02.05.044.05.1.01.147-.22.23-.44.458-.65.687-.02.02-.04.02-.07.03z"/><path fill="#120F0E" d="M32.088 27.648c.145.17.055.243-.116.282l-.618-.666c-.06-.065-.14-.126-.03-.22.105-.09.16-.01.224.053l.54.55z"/><path fill="#100D0C" d="M30.75 27.84c-.037.04-.06.08-.096.102-.044.03-.096.063-.14-.006-.18-.272-.364-.542-.54-.816-.037-.057.006-.104.055-.14.04-.027.09-.048.12-.006.2.284.39.57.6.866z"/><path fill="#191513" d="M28.182 28.068c.028.024.066.048.092.082.163.228.324.458.486.688.05.072.074.138-.014.2-.094.066-.144.007-.19-.062-.16-.23-.317-.463-.48-.69-.096-.134-.015-.175.106-.218zM15.946 31.95c-.023-.013-.062-.032-.098-.057-.062-.042-.048-.1-.01-.146.18-.217.36-.435.545-.646.105-.12.15-.03.177.07.026.1-.494.78-.614.79z"/><path fill="#191413" d="M16.947 33.45c-.088-.038-.176-.09-.096-.196.17-.223.35-.438.53-.654.04-.05.09-.068.15-.03.05.03.12.073.08.127-.19.25-.38.49-.58.733-.01.013-.04.012-.06.02z"/><path fill="#151110" d="M13.252 28.207c.09.007.127.045.158.096.037.06.014.104-.034.143l-.595.497c-.05.048-.12.065-.17-.003-.02-.03-.04-.102-.03-.114.23-.215.46-.424.68-.62zm11.02 6.036c.018.093-.022.13-.077.152-.076.032-.133.008-.162-.07l-.27-.73c-.022-.062-.01-.112.052-.14.07-.033.138-.025.17.053.102.25.2.504.288.735z"/><path fill="#181312" d="M19.286 33.535c-.106.227-.223.482-.35.733-.03.06-.096.044-.15.018-.08-.038-.076-.097-.043-.167.095-.21.19-.41.28-.62.04-.09.112-.11.195-.09.048.01.083.03.068.12z"/><path fill="#1F1C1A" d="M13.252 30.66c-.11.154-.218.312-.332.465-.062.082-.1.23-.25.14-.168-.1-.03-.19.024-.272.115-.18.24-.354.36-.53.114.016.205.057.198.197z"/><path fill="#1A1716" d="M11.21 25.628c-.07.09-.14.177-.205.268-.057.078-.11.15-.215.063-.088-.08-.04-.14.004-.21.118-.18.234-.36.35-.54.207-.02.32.02.16.24-.037.05-.063.11-.095.16z"/><path fill="#141211" d="M30.65 30.61c.12.187.238.378.362.564.053.08.11.152 0 .226-.115.076-.16-.02-.21-.092-.136-.193-.267-.39-.4-.584.06-.088.13-.154.248-.115z"/><path fill="#1A1513" d="M16.292 30.19c-.148.21-.303.442-.47.665-.037.05-.1.004-.145-.03-.056-.046-.045-.097-.012-.147.128-.197.256-.395.386-.59.04-.05.08-.08.15-.05.06.025.09.064.1.15z"/><path fill="#1C1918" d="M32.56 26.655c.1.163.198.327.304.486.056.09.086.16-.025.23-.11.06-.15-.02-.19-.08l-.22-.29c-.03-.05-.05-.1-.08-.14-.04-.07-.13-.14-.03-.23.09-.09.15 0 .23.05z"/><path fill="#161312" d="M13.923 31.336c-.073.066-.146.14-.243.035-.113-.12.073-.18.06-.28.1-.13.203-.27.3-.4.05-.07.103-.12.192-.06.088.07.063.13.015.21-.11.17-.216.34-.324.51z"/><path fill="#191514" d="M31.12 30.074c-.02.14-.075.226-.234.166-.148-.116-.297-.23-.444-.348-.076-.06-.186-.11-.085-.235.09-.11.155-.02.223.028.18.128.36.26.54.39z"/><path fill="#15110F" d="M29.894 28.05c-.052.07-.093.174-.206.093-.184-.13-.363-.267-.542-.402-.048-.03-.077-.08-.035-.14.04-.04.09-.1.14-.06.21.15.42.31.63.46.02.01.02.04.02.06z"/><path fill="#1B1614" d="M14.532 29.745c-.005.085-.624.54-.69.506-.074-.03-.147-.11-.064-.18.178-.15.367-.3.564-.43.112-.07.153.04.19.12z"/><path fill="#171311" d="M11.94 27.385c-.098-.046-.17-.1-.098-.21.124-.187.25-.373.38-.558.035-.053.09-.06.147-.028.05.03.09.08.06.13-.13.21-.27.41-.41.62-.02.02-.06.03-.08.04z"/><path fill="#191715" d="M12.047 29.646c-.16.12-.322.24-.483.358-.054.04-.11.088-.173.018-.02-.03-.05-.076-.05-.115.01-.135.6-.492.76-.46.04.074-.01.136-.04.2z"/><path fill="#161413" d="M11.4 26.64l-.342.46c-.047.062-.088.137-.188.077-.112-.067-.085-.147-.016-.22.173-.185.225-.47.492-.573.076.073.11.156.055.257z"/><path fill="#151110" d="M15.742 27.513c-.064.054-.12.106-.182.153-.133.102-.27.2-.402.3-.07.056-.138.08-.198-.01-.048-.067-.02-.122.042-.168.17-.126.338-.255.51-.38.044-.033.098-.063.148-.012.032.03.052.072.082.117z"/><path fill="#28211E" d="M20.305 33.09c-.12.27-.22.49-.32.71-.033.073-.09.09-.165.06-.077-.03-.1-.085-.065-.16.112-.233.142-.534.55-.61z"/><path fill="#171311" d="M27.984 32.248c-.04.093-.113.2-.193.137-.15-.123-.29-.285-.34-.482-.01-.053.07-.21.17-.127.15.132.25.312.38.472z"/><path fill="#211A18" d="M22.9 33.45c.002-.138.085-.194.212-.203.05.136.097.273.146.41.033.093.1.195-.05.247-.13.044-.143-.065-.176-.146l-.13-.307z"/><path fill="#3D322E" d="M25.188 33.92c.006.107-.07.16-.146.142-.156-.036-.16-.2-.202-.32-.022-.063.045-.09.106-.093.185-.01.193.15.242.27z"/><path fill="#231C1A" d="M17.123 32.13c-.07.108-.097.252-.236.267-.064.006-.17-.055-.127-.15.047-.106.097-.24.22-.27.083-.02.104.09.143.152z"/><path fill="#392D29" d="M21.206 33.788c-.087.08-.187.163-.256-.003-.03-.07-.044-.2.05-.238.14-.053.198.05.214.176-.01.02-.013.043-.008.065z"/><path fill="#3A2F2B" d="M26.072 33.275c.086.02.14.08.147.158 0 .092-.08.15-.15.14-.08-.015-.16-.09-.15-.188 0-.076.09-.088.15-.11z"/><path fill="#997D72" d="M17.106 29.553c.003.07-.04.09-.082.105-.034.012-.075.006-.065-.035 0-.037.04-.074.07-.1.01-.007.05.02.07.03z"/><path d="M33.296 16.188c-.763-.103-1.503-.31-2.25-.484-.32-.075-.63-.035-.938.012-2.057.31-4.084.767-6.123 1.172-.02.004-.038.023-.057.035-.433.044-.13-.205-.133-.332.118-.46.382-.75.876-.83.4-.06.76-.27 1.17-.25 1.46-.4 2.92-.78 4.37-1.21.56-.16 1.04-.1 1.51.22.42.29.83.58 1.24.87.09.04.17.08.22.16.08.12.19.2.29.3.08.1.07.22.08.34-.07.09-.15.07-.23.03z"/><path fill="#D89D8D" d="M25.84 15.507c-.406.125-.805.3-1.22.36-.468.064-.65.37-.825.724-.084-.24.14-.38.203-.58.15-.47.312-.93.468-1.4.13-.38.15-.4.415-.07.25.3.53.56.78.85.06.06.11.12.19.14z"/><path fill="#0D0B0A" d="M32.967 14.695l.404.404c.22.05.28.27.44.38.02.02.04.05.05.07.03.14.2.24.14.42-.09.04-.16.13-.28.07-.14-.09-.22-.23-.32-.36-.08-.14-.23-.23-.28-.4-.32-.36-.67-.67-1.06-.93-.09-.07-.2-.13-.09-.27.11-.14.18-.02.25.03.26.18.51.37.77.56z"/><path fill="#0D0C0B" d="M11.687 13.73c-.51.294-1.005.606-1.364 1.088-.038.038-.08.073-.113.114-.054.068-.092.152-.207.088-.155-.086-.065-.176-.013-.268.03-.12.076-.23.172-.315.125-.136.276-.244.398-.382.03-.035.064-.066.103-.092.19-.09.348-.236.553-.298l.75-.472c.105-.016.167.033.196.132.037.126-.07.145-.14.19-.11.075-.224.144-.335.215z"/><path fill="#060504" d="M21.957 15.16c-.265-.006-.474-.225-.46-.484.012-.274.214-.452.5-.44.263.01.44.196.44.46-.002.265-.214.47-.48.465z"/><path fill="#DFCCC2" d="M33.106 15.292c.17.06.24.212.327.35-.01.045-.033.08-.084.088-.1-.04-.18-.103-.24-.188l-.16-.17c.06-.01.12-.015.15-.08z"/><path fill="#110F0F" d="M10.674 14l-.09.082c-.137.122-.275.24-.42.35-.08.087-.118.213-.25.247-.076.06-.124.2-.267.09-.153-.13-.007-.21.05-.28.303-.38.66-.71 1.07-.97.087-.06.18-.16.3-.07.11.15.02.24-.09.33-.096.07-.203.13-.303.2z"/><path fill="#DFCCC2" d="M10.674 14c.043-.145.18-.195.288-.262.116-.07.153-.148.106-.27.103.026.07.153.147.2-.16.14-.308.305-.54.33z"/><path fill="#AE9F98" d="M9.914 14.678c.057-.11.112-.225.257-.242.03 0 .04.01.04.026 0 .02 0 .028-.01.028-.04.106-.11.194-.21.263l-.07-.075z"/><path fill="#121010" d="M33.785 15.532l.004.007c-.11-.18-.26-.33-.35-.52-.07-.11-.01-.17.07-.22.1-.06.14.03.19.08.28.33.55.69.74 1.08.04.08.16.19-.03.27-.15.06-.18-.04-.23-.13-.03-.05-.06-.1-.09-.14-.15-.12-.22-.31-.34-.45z"/><path fill="#F0D8CE" d="M33.37 15.722l.063-.082.276.408c-.06.002-.11.025-.14.08-.02.022-.05.02-.07 0-.11-.07.01-.232-.12-.293-.06-.028-.06-.067-.03-.113z"/><path fill="#BDADA5" d="M33.448 15.024c.147.15.344.266.34.515-.198-.1-.294-.28-.417-.44.03-.03.06-.05.08-.08z"/><path fill="#E5D2C8" d="M33.785 15.532c.2.083.266.268.34.446-.045 0-.09 0-.137-.002-.026-.167-.212-.26-.203-.444z"/><path fill="#0D0B0A" d="M33.512 16.128c.02-.003.043-.003.064 0-.004.234-.17.084-.26.11l-.02-.05c.073-.015.157.01.216-.06z"/><path fill="#110F0F" d="M33.438 28.92c-.058.083-.102.203-.23.096-.272-.232-.542-.47-.813-.705-.068-.05-.055-.11-.002-.17.04-.04.092-.06.145-.02l.846.72c.022.02.035.06.054.09z"/><path fill="#1A1816" d="M35.414 22.76c-.018.022-.04.062-.073.088-.04.036-.09.063-.14 0-.16-.202-.33-.396-.47-.61-.06-.098.04-.156.14-.166.05-.004.56.624.56.688z"/><path fill="#131110" d="M34.988 23.48c.025.1-.02.115-.06.138-.05.03-.11.062-.145-.005-.122-.242-.237-.487-.35-.733-.03-.066.022-.1.076-.127.04-.02.09-.04.12.006.13.24.25.5.35.72z"/><path fill="#131211" d="M34.996 26.104c.012-.005-.034.01-.07.034-.06.04-.105.033-.145-.02-.14-.204-.29-.4-.42-.614-.06-.113.06-.154.14-.173.05-.01.52.65.5.78z"/><path fill="#1E1B1A" d="M33.415 29.914c-.026.08-.07.193-.173.13-.207-.13-.4-.286-.586-.448-.102-.09-.006-.164.075-.2.07-.03.68.438.69.518z"/><path fill="#0F0E0D" d="M34.354 23.9c.03.025.066.048.09.08.13.184.258.37.387.552.05.06.07.112 0 .17-.07.063-.13.06-.19-.023-.13-.19-.26-.37-.39-.55-.1-.14.02-.17.12-.23z"/><path fill="#191716" d="M35.113 21.383c.154.056.252.19.35.304.1.117.41.2.23.39-.16.175-.246-.13-.373-.205-.104-.062-.185-.163-.27-.252-.103-.106-.044-.178.063-.237z"/><path fill="#1A1816" d="M31.635 30.47c.035.032.08.063.11.106.118.165.23.334.347.5.043.063.065.117-.005.175-.077.07-.144.06-.2-.02-.128-.18-.26-.36-.38-.56-.075-.11.024-.15.128-.19z"/><path fill="#1B1817" d="M33.96 27.07c-.042.046-.065.082-.1.105-.068.05-.124.02-.167-.043l-.36-.525c-.036-.05-.044-.105.003-.15.04-.038.104-.092.145-.04.17.21.32.428.48.653z"/><path fill="#1B1917" d="M33.61 25.217c.062 0 .1.037.134.086.107.156.217.313.328.467.057.078.102.152-.01.225-.098.063-.143-.008-.188-.072-.115-.164-.23-.33-.342-.498-.07-.105-.014-.164.077-.208z"/><path fill="#171514" d="M35.408 19.257c.176.14.363.28.54.433.042.036.003.103-.034.15-.047.058-.1.042-.146.01-.163-.118-.325-.238-.483-.36-.047-.035-.068-.083-.02-.14.036-.044.067-.09.143-.093z"/><path fill="#161513" d="M35.748 20.765c-.055.105-.11.19-.232.096-.143-.1-.283-.22-.426-.33-.058-.04-.1-.09-.036-.16.048-.05.1-.09.17-.04l.485.36c.02.02.02.06.03.08z"/><path fill="#100E0E" d="M10.526 26.89c-.016.036-.02.064-.035.076-.28.25-.57.5-.86.75-.05.044-.1.013-.14-.036-.04-.06-.06-.11.01-.172.28-.234.54-.475.82-.706.14-.115.16.044.23.09z"/><path fill="#12100F" d="M11.58 31.02c-.017-.012-.056-.03-.083-.063-.04-.05-.04-.107.007-.15.278-.248.558-.494.84-.736.05-.04.105-.01.148.03.032.04.047.08.03.13-.02.06-.86.79-.943.8z"/><path fill="#151312" d="M9.925 22.402c.002.096-.487.703-.547.698-.096-.008-.205-.07-.144-.164.14-.216.3-.423.48-.608.108-.11.158.034.21.074z"/><path fill="#181615" d="M10.388 25.498c-.155.208-.317.436-.494.652-.04.048-.104-.014-.142-.05-.045-.045-.043-.1-.005-.15.137-.192.27-.386.41-.576.036-.048.084-.065.144-.028.05.032.1.062.09.152z"/><path fill="#1C1A18" d="M9.763 21.517c-.04.052-.068.1-.106.137-.104.103-.204.212-.32.3-.09.07-.156.29-.312.122-.13-.143.066-.206.135-.287.11-.13.24-.24.363-.36.042-.04.09-.08.147-.03.033.02.057.06.093.1z"/><path fill="#110F0E" d="M10.55 24.046c-.178.237-.34.465-.517.683-.04.04-.103-.01-.146-.05-.058-.05-.036-.1-.003-.15.134-.2.268-.39.405-.58.03-.05.07-.09.13-.04l.12.12z"/><path fill="#151312" d="M11.27 27.932c-.15.21-.302.434-.466.648-.047.06-.1-.015-.14-.04-.056-.034-.06-.085-.02-.142.128-.186.252-.373.382-.558.03-.044.07-.088.136-.044.05.03.096.06.11.136z"/><path fill="#181615" d="M10.206 23.207c-.018.024-.03.06-.055.073-.21.12-.43.238-.65.354-.08.043-.12-.013-.15-.074-.04-.066 0-.11.05-.14.22-.12.43-.243.66-.348.1-.047.13.058.16.135z"/><path fill="#191716" d="M8.758 20.875c-.11-.05-.158-.12-.05-.224l.486-.47c.043-.04.094-.07.146-.02.03.03.064.07.07.11.013.07-.575.62-.652.61z"/><path fill="#0D0C0B" d="M10.415 28.003c-.224.208-.433.41-.653.6-.04.033-.087-.047-.124-.087-.053-.06-.02-.1.02-.14.168-.165.338-.328.506-.492.042-.042.086-.076.14-.02.036.037.066.08.11.14z"/><path fill="#141312" d="M10.884 29.31c.004.074-.477.67-.527.665-.04-.004-.084-.03-.117-.057-.052-.045-.043-.1-.003-.148l.43-.525c.04-.05.09-.066.143-.02.032.028.056.065.074.086z"/><path fill="#FBCEBB" d="M15.844 33.318c-.008.172-.053.332-.134.483-.022-.17.01-.34.134-.48z"/><path fill="#323332" d="M29.297 17.21c.93.22 1.76.635 2.492 1.246.06.057.13.117.22.194-.83.136-1.54.56-2.36.594-.82.035-1.63-.02-2.44-.11-.45-.052-.9-.07-1.35-.112-.1-.01-.23-.038-.27-.103-.06-.11.08-.17.14-.24.63-.69 1.33-1.26 2.26-1.48.43-.06.86-.07 1.29 0z"/><path fill="#947972" d="M28.204 17.06c.48-.095.962-.113 1.444 0h-1.444zm1.093.15l-1.29-.006c.43-.116.86-.125 1.29.005z"/><path fill="#957A73" d="M30.045 16.87c-.14-.016-.287.023-.412-.072.14.012.295-.064.412.072z"/><path fill="#D99E8E" d="M37.05 29.577c.17.253.325.517.413.813-.023.425.055.854-.152 1.265-.24.49-.64.72-1.17.7-.36-.013-.71-.114-1.03-.286-.06-.04-.17-.05-.12-.17.05-.11.13-.14.25-.1.18.07.36.15.54.2.71.19 1.14-.03 1.37-.7.23-.67-.04-1.47-.65-1.78-.37-.19-.66-.14-.97.17-.34.35-.46.82-.28 1.13.16.27.42.39.72.34.29-.05.49-.23.51-.55.01-.16.01-.31-.15-.38-.16-.08-.3-.03-.41.12-.07.1-.16.24-.29.13-.12-.11 0-.23.07-.33.18-.28.46-.24.71-.19.23.05.34.24.35.48.02.39-.06.73-.44.91-.39.18-.75.08-1.08-.17-.32-.25-.38-.6-.28-.98.2-.76.67-1.13 1.34-1.09.32.03.56.23.8.41z"/><path fill="#333" d="M18.017 18.69c.098.086.28.156.24.29-.037.12-.23.113-.358.12-.97.05-1.94.125-2.92.13-.88.004-1.73-.167-2.51-.602-.14-.077-.29-.022-.49-.137.89-.82 1.89-1.27 3.1-1.31 1.28-.04 2.2.53 2.93 1.52-.04.04-.09.06-.14.06-.32-.12-.56-.37-.85-.53-.24-.13-.28-.11-.29.17-.02.44-.02.44.4.44h.57c.12.01.23-.01.3-.12z"/><path fill="#9E8179" d="M15.98 16.85c.082-.086.183-.046.278-.044.058.098.213.01.256.135l-.533-.09z"/><path fill="#0D0B0A" d="M33.37 15.722l.023.113c-.136-.056-.237-.146-.276-.293l.252.18z"/><path fill="#AEA098" d="M10.2 14.49c-.003-.022-.013-.04-.03-.054.077-.19.203-.32.413-.354-.065.195-.224.303-.384.408z"/><path fill="#C0C0C0" d="M31.03 18.578c-.485.27-.987.4-1.554.41.04-.286.123-.548.11-.825-.005-.15.138-.065.208-.04.414.148.825.303 1.236.455z"/><path fill="#626262" d="M28.8 19.044c-.356-.043-.712-.09-1.067-.128-.126-.014-.22-.065-.245-.19-.024-.12.075-.148.164-.17.126-.03.22-.216.388-.06.346.32.348.31.762 0 .16-.118.342.03.52-.012.067-.016.057.13.036.2-.05.164-.118.324-.32.346-.08.008-.158 0-.237 0v.014z"/><path fill="#C0C0C0" d="M25.953 18.686c.39-.302.805-.56 1.295-.763.01.308-.063.582.035.854.053.144-.092.107-.17.102l-.74-.06c-.123-.1-.342.09-.42-.14z"/><path fill="#B9B9B9" d="M28.842 17.816c.125.088.414-.033.438.23.016.166-.152.273-.334.262-.21-.014-.324-.14-.336-.353-.007-.15.095-.156.232-.14z"/><path fill="#AE8C83" d="M25.953 18.686c.104.157.307.01.42.137-.143.02-.285.035-.422-.015-.08-.03-.09-.082.01-.122z"/><path fill="#C0C0C0" d="M14.432 18.94c-.578-.063-1.087-.156-1.616-.424.483-.192.907-.362 1.35-.48.127-.036.2-.022.17.133-.044.24.01.48.096.77z"/><path fill="#BFBFBF" d="M17.737 18.898c-.305 0-.61-.006-.915.003-.166.01-.265 0-.184-.21.086-.22.025-.46.013-.74.49.19.85.49 1.23.76.22.25-.11.12-.14.2z"/><path fill="#616261" d="M15.41 18.97c-.228 0-.386.008-.543 0-.184-.012-.393-.28-.36-.453.02-.116.503-.158.598-.024.27.375.5.324.78.007.143-.162.277.056.416.093.07.02.16.055.12.167-.05.132-.15.13-.27.15-.27.052-.53.066-.73.06z"/><path fill="#BCBCBC" d="M15.99 17.738c.132.074.385-.04.385.222 0 .224-.197.354-.382.35-.192-.006-.29-.196-.298-.392-.01-.23.173-.148.294-.18z"/><path fill="#524E4C" d="M17.737 18.898c.02-.085.292.005.14-.2l.144-.004v-.004c.02.222-.12.23-.28.208z"/></g></svg>