<svg xmlns="http://www.w3.org/2000/svg" width="14" height="14" viewBox="0 0 14 14"><path d="M7 6L0 3v7l7 4 7-4V3"/><path opacity=".1" fill="#FFF" d="M7 3v11l7-4V3"/><path opacity=".8" d="M7 0L0 3l7 3 7-3"/><path opacity=".5" fill="#FFF" d="M3.49 4.707l6.9-3.22-1.076-.445-6.798 3.174"/><path opacity=".5" fill="#FFF" d="M3.492 7l-.977-.506V4.216l.976.49M5.688 12.25l-1.75-.962v-1.272l1.75.962"/><g opacity=".2" fill="#FFF"><path d="M.476 8.5v.185l1.8 1.08V9.58M.476 9.238l1.8 1.08v-.185l-1.8-1.08M.476 9.79l1.8 1.08v-.182l-1.8-1.08"/></g><g fill="none" stroke="#FFF" stroke-linecap="round" stroke-miterlimit="10" opacity=".5"><path d="M10.61 6.985l.874.384M10.61 6.985l-.797 1.218M10.688 6.964l.296 2.39"/></g></svg>