<svg xmlns="http://www.w3.org/2000/svg" width="14" height="14" viewBox="0 0 14 14"><path d="M13.223 3.89h-2.187c-.35-.607-.832-1.13-1.415-1.525l1.27-1.268L9.79 0 8.104 1.688C7.747 1.602 7.38 1.556 7 1.556s-.747.046-1.097.132L4.208 0 3.11 1.097l1.26 1.268c-.575.396-1.057.917-1.407 1.524H.778v1.554h1.625c-.04.257-.07.514-.07.778V7H.778v1.556h1.556v.777c0 .265.03.52.07.778H.778v1.558h2.186C3.772 13.06 5.274 14 7 14c1.728 0 3.23-.94 4.036-2.333h2.187V10.11h-1.626c.04-.256.07-.513.07-.777v-.777h1.556V7h-1.556v-.778c0-.264-.03-.52-.07-.778h1.626V3.89zm-4.667 6.22H5.444V8.557h3.11v1.555zm0-3.11H5.444V5.444h3.11V7z"/></svg>