<svg xmlns="http://www.w3.org/2000/svg" width="14" height="14" viewBox="0 0 14 14"><path d="M10.5 5.25c0 1.75-1.75 3.473-1.75 5.25h-3.5C5.25 8.777 3.5 7 3.5 5.25c0-1.933 1.567-3.5 3.5-3.5s3.5 1.567 3.5 3.5zm-2.187 7H5.688c-.242 0-.438.195-.438.438s.196.438.438.438h.08c.18.51.66.874 1.232.874s1.052-.365 1.232-.875h.08c.242 0 .438-.195.438-.438s-.195-.437-.437-.437zm0-1.312H5.688c-.242 0-.438.195-.438.438s.196.438.438.438h2.625c.242 0 .438-.195.438-.438s-.19-.438-.43-.438zm-6.08-7.934l.787.454c.12-.27.27-.52.44-.756l-.788-.456-.438.758zM7.44.92V0h-.875v.92C6.708.903 6.85.874 7 .874s.292.03.438.044zm-2.23.35L4.754.484l-.758.438.455.788c.24-.17.49-.32.76-.44zm6.558 1.734l-.438-.76-.788.457c.17.24.32.49.44.76l.786-.45zM10.004.922L9.246.484l-.452.786c.267.12.52.27.755.44L10 .922zM2.624 5.25c0-.15.03-.292.045-.438h-.92v.875h.92c-.02-.145-.05-.288-.05-.437zm8.706-.437c.016.146.045.287.045.438 0 .15-.03.3-.046.44h.92v-.87h-.92zm-.718 3.027l.716.414.438-.758-.795-.458c-.11.272-.23.538-.35.802zm-8.378-.344l.438.758.71-.41c-.128-.265-.248-.533-.356-.805l-.792.45z"/></svg>