<svg xmlns="http://www.w3.org/2000/svg" width="14" height="14" viewBox="0 0 14 14"><path d="M4.375 7h-1.75V5.25h1.75V7zm3.5-1.75h-1.75V7h1.75V5.25zm3.5 0h-1.75V7h1.75V5.25zm-7 2.625h-1.75v1.75h1.75v-1.75zm3.5 0h-1.75v1.75h1.75v-1.75zm3.5 0h-1.75v1.75h1.75v-1.75zm-7 2.625h-1.75v1.75h1.75V10.5zm3.5 0h-1.75v1.75h1.75V10.5zM3.5 2.625c.483 0 .875-.392.875-.875V.875C4.375.392 3.983 0 3.5 0s-.875.392-.875.875v.875c0 .483.392.875.875.875zM14 1.75V14H0V1.75h2.188c0 .724.59 1.313 1.313 1.313s1.315-.59 1.315-1.313H9.19c0 .724.59 1.313 1.312 1.313s1.314-.59 1.314-1.313H14zm-.875 2.625H.875v8.75h12.25v-8.75zM10.5 2.625c.483 0 .875-.392.875-.875V.875c0-.483-.392-.875-.875-.875s-.875.392-.875.875v.875c0 .483.392.875.875.875z"/></svg>