<svg xmlns="http://www.w3.org/2000/svg" width="14" height="14" viewBox="0 0 14 14"><path fill="none" d="M0 0h14v14H0z"/><path fill="none" d="M0 0h14v14H0z"/><path fill="none" d="M0 0h14v14H0z"/><path d="M9.625 9.625h-1.75v.875h1.75v1.75h.876V10.5h1.75v-.875H10.5v-1.75h-.875v1.75zM12.25 3.5H10.5L8.75 1.75h-3.5L3.5 3.5H1.75S0 3.5 0 5.25v5.25c0 1.75 1.75 1.75 1.75 1.75h5.04C7.495 13.305 8.696 14 10.062 14c1.695 0 3.136-1.073 3.69-2.576.245-.453.247-.924.247-.924V5.25L12.25 3.5zm-6.11 6.852c-1.028-.356-1.765-1.33-1.765-2.477C4.375 6.425 5.55 5.25 7 5.25c.837 0 1.578.397 2.06 1.01-1.688.442-2.935 1.974-2.935 3.802 0 .098.008.194.015.29zm3.923 2.722c-1.663-.004-3.008-1.35-3.012-3.012C7.057 8.4 8.4 7.054 10.065 7.05c1.662.004 3.008 1.35 3.012 3.012-.005 1.663-1.35 3.008-3.012 3.012z"/></svg>