<?xml version="1.0" encoding="utf-8"?>
<!-- Generator: Adobe Illustrator 16.0.4, SVG Export Plug-In . SVG Version: 6.00 Build 0)  -->
<!DOCTYPE svg PUBLIC "-//W3C//DTD SVG 1.1//EN" "http://www.w3.org/Graphics/SVG/1.1/DTD/svg11.dtd">
<svg version="1.1" id="Capa_1" xmlns="http://www.w3.org/2000/svg" xmlns:xlink="http://www.w3.org/1999/xlink" x="0px" y="0px"
	 width="16px" height="16px" viewBox="0 0 16 16" enable-background="new 0 0 16 16" xml:space="preserve">
<path d="M8.5,1C4.358,1,1,4.358,1,8.5C1,12.643,4.358,16,8.5,16c4.143,0,7.5-3.357,7.5-7.5C16,4.358,12.643,1,8.5,1z M11.975,5.732
	L9.188,8.52l2.467,2.748c0.195,0.195,0.195,0.512,0,0.707s-0.512,0.195-0.707,0L8.481,9.227l-2.749,2.748
	c-0.195,0.195-0.512,0.195-0.707,0c-0.195-0.195-0.195-0.512,0-0.707l2.787-2.787L5.346,5.732c-0.195-0.195-0.195-0.512,0-0.707
	c0.195-0.195,0.512-0.195,0.707,0L8.52,7.774l2.748-2.749c0.195-0.195,0.512-0.195,0.707,0C12.17,5.22,12.17,5.537,11.975,5.732z"/>
</svg>
