<svg xmlns="http://www.w3.org/2000/svg" width="14" height="14" viewBox="0 0 14 14"><path d="M7.058 7c0-1.365.908-2.17 2.05-2.17.784 0 1.46.286 1.855 1.007l-.932.488c-.21-.465-.59-.566-.77-.566-.69 0-.94.53-.94 1.24s.298 1.24.94 1.24c.376 0 .67-.14.86-.61l.87.44c-.37.66-1.044 1.093-1.84 1.093C7.916 9.17 7.06 8.39 7.06 7zM5.103 9.17c.792 0 1.467-.433 1.84-1.092l-.87-.442c-.194.465-.49.605-.862.605-.64 0-.94-.53-.94-1.24 0-.7.25-1.24.94-1.24.19 0 .56.1.78.57l.93-.49c-.39-.72-1.07-1.003-1.85-1.003-1.14 0-2.05.806-2.05 2.17 0 1.39.856 2.17 2.09 2.17zm-3.048 2.76C.71 10.585 0 8.86 0 7c0-1.84.73-3.605 2.074-4.967C3.38.71 5.07 0 6.99 0c1.92 0 3.648.71 4.993 2.052C13.31 3.375 14 5.102 14 7c0 1.918-.69 3.625-1.997 4.91C10.62 13.27 8.833 14 6.99 14s-3.59-.73-4.935-2.07zM1.267 7c0 1.496.615 2.935 1.71 4.027 1.094 1.094 2.516 1.688 4.033 1.688 1.498 0 2.957-.594 4.09-1.707C12.177 9.953 12.733 8.572 12.733 7c0-1.553-.576-2.972-1.65-4.047-1.098-1.093-2.5-1.687-4.073-1.687-1.575 0-2.958.575-4.033 1.668C1.882 4.047 1.267 5.484 1.267 7z"/></svg>