<svg xmlns="http://www.w3.org/2000/svg" width="14" height="14" viewBox="0 0 14 14"><path d="M7 6.202c-1.036 0-1.876.84-1.876 1.875 0 1.034.84 1.878 1.875 1.878 1.03 0 1.87-.844 1.87-1.878 0-.14-.02-.28-.05-.412 1.37-1.6 3.5-4.092 4.632-5.51.39-.485-.04-.946-.537-.538-1.43 1.167-3.91 3.273-5.504 4.635-.136-.03-.276-.05-.42-.05H7z"/><path opacity=".7" d="M7.537 2.69c0-.296-.243-.54-.54-.54-.296 0-.538.244-.538.54 0 .298.24.54.53.54.295 0 .54-.242.54-.54z"/><path d="M10.768 6.997c0 .298.243.54.537.54.297 0 .543-.242.543-.54 0-.295-.246-.537-.543-.537-.294 0-.537.242-.537.537z"/><path opacity=".6" d="M4.844 2.69c-.297 0-.54.24-.54.54 0 .295.243.54.54.54.297 0 .54-.244.54-.54 0-.3-.242-.54-.54-.54z"/><path opacity=".5" d="M3.767 4.843c0-.295-.243-.538-.537-.538-.3 0-.54.243-.54.538 0 .3.24.54.54.54.294 0 .537-.24.537-.54z"/><path opacity=".4" d="M2.15 6.997c0 .298.242.54.54.54.296 0 .54-.242.54-.54 0-.295-.243-.537-.54-.537-.298 0-.54.242-.54.537z"/><path opacity=".8" d="M9.688 3.23c0-.3-.24-.54-.535-.54-.3 0-.54.24-.54.54 0 .295.24.54.54.54.295 0 .535-.245.535-.54z"/><path d="M13.338 4.05l-1.15 1.513c.125.457.194.938.194 1.438 0 2.98-2.407 5.39-5.383 5.39S1.61 9.98 1.61 7.008c0-2.97 2.41-5.383 5.383-5.383 1.108 0 2.14.336 2.99.91l1.337-1.02C10.137.564 8.632 0 7 0 3.134 0 0 3.134 0 7c0 3.865 3.134 7 7 7 3.865 0 7-3.135 7-7 0-1.056-.24-2.054-.66-2.95h-.002z"/></svg>