<svg xmlns="http://www.w3.org/2000/svg" width="14" height="14" viewBox="0 0 14 14"><path d="M12.77 10.548c-.053-.988-.847-1.782-1.836-1.836v-.736h-.21v.736c-.99.054-1.785.848-1.838 1.836h-.728v.212h.728c.054.99.848 1.783 1.837 1.837v.736h.21v-.736c.99-.054 1.784-.848 1.838-1.837h.89v-.212h-.88zm-2.047 1.837c-.873-.053-1.573-.752-1.625-1.625h1.625v1.625zm0-1.837H9.098c.052-.872.752-1.57 1.625-1.624v1.624zm.21 1.837V10.76h1.626c-.06.873-.76 1.572-1.63 1.625zm0-1.837V8.924c.874.053 1.573.752 1.626 1.624h-1.63zm-1.05-7.495c-.026-.16.08-.31.24-.334.07-.02 1.716-.3 1.814-1.72.012-.16.148-.28.31-.27.162.01.283.15.272.31-.14 1.88-2.29 2.24-2.31 2.25h-.05c-.15 0-.27-.1-.29-.25zM1.098 1.045c-.012-.16.11-.3.27-.31.166-.013.3.11.31.27.1 1.417 1.746 1.702 1.816 1.713.16.026.267.175.24.334-.023.143-.144.246-.287.246-.016 0-.032 0-.047-.004-.02-.004-2.17-.366-2.3-2.25zM11.21 5.513c.083.003 2.066.104 2.465 1.696.02.07.007.15-.033.22s-.104.11-.18.13c-.022 0-.046.01-.07.01-.134 0-.25-.09-.282-.22-.29-1.17-1.908-1.26-1.925-1.26-.077-.01-.15-.04-.202-.1-.053-.06-.08-.13-.076-.21.005-.16.132-.28.288-.28h.014zm-8.71.582c-.016 0-1.635.093-1.925 1.256-.033.13-.15.22-.283.22h-.07c-.076-.02-.14-.06-.18-.13S-.01 7.29.01 7.21c.397-1.593 2.38-1.694 2.464-1.697h.012c.157 0 .285.123.29.28.01.16-.116.295-.276.302zm2.958-4.43c-.007-.058-.01-.116-.01-.174 0-.75.614-1.37 1.37-1.37.757 0 1.372.62 1.372 1.37 0 .06-.004.12-.01.18.82.37 1.533 1.06 2.01 1.96l.055.11-.105.06c-.894.466-1.89.7-2.964.7-1.59 0-2.944-.51-3.61-.812l-.116-.05.062-.11c.473-.845 1.162-1.496 1.946-1.84zm-1.523 8.45c.04.156-.056.314-.21.354-.016 0-1.565.42-1.765 1.79-.02.14-.145.25-.288.25-.014 0-.028 0-.042-.01-.16-.02-.27-.17-.246-.33.258-1.78 2.12-2.26 2.2-2.28.022-.01.046-.01.07-.01.133 0 .248.09.28.22zm6.893-2.58c-.048 0-.095.005-.143.007.09-.406.14-.832.14-1.272 0-.778-.146-1.522-.432-2.212l-.05-.117-.112.06c-.74.39-1.94.61-2.81.69l-.08.01-.02.08c-.23.92-.38 2.05-.46 3.09-.13-1.67-.32-3.08-.33-3.1l-.01-.1c-1.53-.16-2.83-.69-3.053-.79l-.107-.05-.05.11c-.32.72-.486 1.52-.486 2.34 0 2.7 1.798 4.9 4.007 4.9.29 0 .58-.04.855-.112.17 1.59 1.52 2.83 3.154 2.83 1.75 0 3.172-1.423 3.172-3.17 0-1.75-1.425-3.174-3.174-3.174zm0 6.133c-1.633 0-2.96-1.328-2.96-2.96 0-1.633 1.328-2.962 2.96-2.962s2.96 1.33 2.96 2.96c0 1.634-1.327 2.962-2.96 2.962z"/></svg>