<svg xmlns="http://www.w3.org/2000/svg" width="14" height="14" viewBox="0 0 14 14"><path d="M10.733 1.633H9.566v-.237c0-.255-.21-.463-.467-.463h-.7V.697C8.4.313 8.08 0 7.7 0H6.3c-.386 0-.7.313-.7.697v.237h-.7c-.257 0-.466.208-.466.463v.237H3.267c-.643 0-1.167.523-1.167 1.166v10.034c0 .643.524 1.166 1.167 1.166h7.467c.644 0 1.167-.523 1.167-1.166V2.8c0-.643-.52-1.167-1.16-1.167zM4.9 1.867V1.4h.934c.128 0 .233-.104.233-.233v-.47c0-.13.103-.23.234-.23h1.4c.14 0 .24.1.24.23v.47c0 .13.11.233.23.233l.94-.004-.01 1.637H4.9V1.867zm2.8 9.8H3.967c-.13 0-.233-.105-.233-.233s.104-.234.233-.234H7.7c.128 0 .233.104.233.233s-.105.233-.233.233zm0-2.1H3.967c-.13 0-.233-.105-.233-.233 0-.13.104-.234.233-.234H7.7c.128 0 .233.104.233.234s-.105.232-.233.232zm0-2.1H3.967c-.13 0-.233-.104-.233-.233S3.838 7 3.967 7H7.7c.128 0 .233.104.233.233s-.105.234-.233.234zm0-2.1H3.967c-.13 0-.233-.104-.233-.233s.104-.234.233-.234H7.7c.128 0 .233.104.233.233s-.105.234-.233.234zm2.75 5.512l-.935 1.16h-.01c-.003 0-.004.01-.008.01-.013.01-.03.02-.045.03-.01 0-.017.01-.026.01-.03.013-.062.02-.093.02-.028 0-.057-.005-.083-.015-.01-.003-.015-.01-.023-.013l-.04-.02c-.004 0-.005-.008-.008-.01l-.02-.01-.47-.466c-.09-.09-.09-.24 0-.33.09-.09.24-.09.33 0l.28.282.77-.96c.08-.105.23-.12.32-.04.1.084.12.23.04.33zm0-2.1l-.934 1.16h-.01c-.003 0-.004.01-.008.01-.013.01-.03.02-.045.03-.01 0-.016.01-.026.01-.03.013-.062.02-.093.02-.028 0-.057-.006-.083-.016h-.02c-.01-.006-.03-.01-.04-.02 0-.005 0-.01-.01-.01 0-.005 0-.005-.01-.01L8.7 9.49c-.09-.09-.09-.237 0-.33.1-.09.24-.09.33 0l.29.284.77-.96c.08-.1.23-.12.33-.04.1.08.117.23.037.33zm0-2.1l-.934 1.16h-.01l-.008.01c-.013.01-.03.02-.045.03-.01 0-.016.01-.026.02-.03.01-.062.02-.093.02-.028 0-.057-.01-.083-.02l-.02-.01c-.01-.01-.03-.01-.04-.02 0-.01 0-.01-.01-.01 0-.01 0-.01-.01-.01l-.47-.46c-.09-.09-.09-.24 0-.33.1-.09.24-.09.33 0l.29.28.77-.97c.08-.1.23-.118.33-.038s.12.226.04.33zm0-2.1l-.934 1.16h-.01s-.004.01-.008.01c-.013.01-.03.02-.045.03-.01 0-.016.01-.026.01-.03.012-.062.02-.093.02-.028 0-.057-.006-.083-.016l-.02-.01c-.01-.008-.03-.013-.04-.023 0 0 0-.003-.01-.01l-.01-.003-.46-.465c-.09-.09-.09-.24 0-.33.1-.09.24-.09.33 0l.29.28.77-.965c.08-.1.23-.114.33-.034.108.08.12.23.04.33z"/></svg>