<svg xmlns="http://www.w3.org/2000/svg" width="14" height="14" viewBox="0 0 14 14"><path d="M10.766 6.624l-3.07-3.472c-.203-.203-.535-.203-.737 0-.206.203-.206.535 0 .738L9.706 7l-2.75 3.108c-.204.203-.204.535 0 .737.203.204.535.204.737 0l3.07-3.47c.105-.104.154-.24.153-.375 0-.136-.05-.272-.152-.376z"/><path d="M7.195 7c.002-.135-.048-.272-.152-.375l-3.07-3.473c-.204-.203-.534-.203-.738 0s-.204.535 0 .738L5.985 7l-2.75 3.108c-.205.204-.205.535 0 .74.203.202.533.202.737 0l3.07-3.473c.105-.103.155-.238.153-.374z"/></svg>