<svg xmlns="http://www.w3.org/2000/svg" width="14" height="14" viewBox="0 0 14 14"><path d="M10.11 6.958L7 9.708l-3.11-2.75c-.202-.205-.533-.205-.736 0-.204.202-.204.534 0 .736l3.47 3.07c.105.105.24.153.376.15.136.004.272-.044.375-.147l3.472-3.07c.202-.204.202-.536 0-.738-.203-.207-.534-.208-.738-.004z"/><path d="M6.624 7.044c.104.104.24.154.375.152.133.002.27-.048.372-.152l3.47-3.07c.207-.204.207-.533.003-.737-.203-.204-.535-.204-.738 0L7 5.987l-3.11-2.75c-.203-.205-.534-.205-.738 0-.203.202-.203.533 0 .736l3.472 3.07z"/></svg>