<svg xmlns="http://www.w3.org/2000/svg" width="14" height="14" viewBox="0 0 14 14"><path d="M3.89 7.043L7 4.293l3.108 2.75c.203.204.534.204.737 0 .206-.203.206-.533.002-.738l-3.472-3.07c-.103-.104-.24-.153-.375-.152-.137 0-.273.048-.376.152l-3.47 3.07c-.204.203-.204.535 0 .738.2.204.533.204.736 0z"/><path d="M7.375 6.956c-.103-.104-.24-.154-.375-.152-.137-.002-.273.048-.376.152l-3.47 3.07c-.204.204-.204.534 0 .737.202.204.534.204.737 0L7 8.013l3.11 2.75c.202.204.533.204.736 0 .204-.203.204-.533 0-.738l-3.47-3.07z"/></svg>