<svg xmlns="http://www.w3.org/2000/svg" width="14" height="14" viewBox="0 0 14 14"><path d="M13.416 2.17H.583c-.32 0-.583.262-.583.583v8.494c0 .32.263.583.583.583h12.833c.32 0 .584-.262.584-.583V2.753c0-.32-.263-.584-.584-.584zM9.133 7.404c1.083.73 3.88 2.897 3.88 2.897.112.08.12.27.064.39-.056.117-.23.187-.342.11 0 0-2.98-2.15-4.118-2.93-.062-.043-.12.01-.12.01l-1.25.996c-.067.058-.157.09-.252.09s-.185-.03-.253-.088l-1.264-1.01s-.043-.038-.093-.003c-1.125.78-4.092 2.94-4.092 2.94-.11.075-.323.006-.38-.11-.055-.115-.047-.31.064-.384 0 0 2.802-2.16 3.868-2.886.06-.042-.003-.103-.003-.103L.89 3.755c-.144-.118-.187-.33-.098-.48.053-.09.146-.144.248-.144.073 0 .146.03.206.08l5.62 4.926c.033.027.08.043.13.043s.097-.02.13-.047l5.62-4.925c.06-.05.133-.077.206-.077.102 0 .195.056.248.146.088.15.045.36-.098.48L9.14 7.323s-.057.047-.007.08z"/></svg>