<svg xmlns="http://www.w3.org/2000/svg" width="14" height="14" viewBox="0 0 14 14"><path d="M13.96.31c-.05-.123-.147-.22-.27-.27L13.5 0h-4c-.275 0-.5.224-.5.5s.225.5.5.5h2.793L8.146 5.146c-.195.195-.195.512 0 .707.193.195.512.195.707 0L13 1.707V4.5c0 .276.225.5.5.5s.5-.224.5-.5v-4l-.04-.19zM5.146 8.146L1 12.293V9.5C1 9.225.776 9 .5 9s-.5.225-.5.5v4.002l.038.19.104.155.004.006.004.004.158.104L.5 14h4c.275 0 .5-.225.5-.5s-.225-.5-.5-.5H1.707l4.146-4.146c.194-.193.194-.512 0-.707-.195-.195-.512-.195-.707 0z"/></svg>