<svg xmlns="http://www.w3.org/2000/svg" width="14" height="14" viewBox="0 0 14 14"><path d="M7 2.625C3.947 2.625 1.3 4.403 0 7c1.3 2.597 3.947 4.375 7 4.375S12.7 9.597 14 7c-1.3-2.597-3.947-4.375-7-4.375zm3.45 2.32c.824.525 1.52 1.227 2.044 2.055-.523.827-1.22 1.53-2.043 2.055-1.03.66-2.223 1.008-3.45 1.008s-2.416-.35-3.45-1.008C2.726 8.53 2.028 7.828 1.505 7c.524-.827 1.22-1.53 2.043-2.055l.163-.1c-.134.374-.21.778-.21 1.198 0 1.933 1.568 3.5 3.5 3.5s3.5-1.567 3.5-3.5c0-.42-.073-.824-.21-1.198.055.032.108.066.16.1zM7 5.688C7 6.413 6.413 7 5.688 7s-1.313-.587-1.313-1.312.587-1.313 1.313-1.313S7 4.962 7 5.688z"/></svg>