<svg xmlns="http://www.w3.org/2000/svg" width="14" height="14" viewBox="0 0 14 14"><path d="M7.857 1.43H9.57v2.856H7.858z"/><path d="M11.404 0H.144v14h13.713V2.453L11.404 0zM3 .57h7.43v4.573H3V.57zm8.285 12.86H2.43v-6h8.855v6z"/><path d="M3.857 9.143h2c.158 0 .286-.127.286-.285s-.128-.287-.286-.287h-2c-.158 0-.286.13-.286.29s.13.287.29.287zm0 1.142h2.857c.158 0 .286-.127.286-.285s-.128-.285-.286-.285H3.857c-.158 0-.286.127-.286.285s.13.285.29.285zm3.713 0c.078 0 .15-.03.204-.082.052-.055.083-.13.083-.203s-.03-.148-.083-.203c-.106-.105-.297-.105-.403 0-.05.055-.08.125-.08.203 0 .077.03.148.083.203.053.05.125.082.2.082z"/></svg>