<svg xmlns="http://www.w3.org/2000/svg" width="14" height="14" viewBox="0 0 14 14"><path d="M.875 9.625H0V8.75h.875v.875zM.875 7H0v.875h.875V7zm0-1.75H0v.875h.875V5.25zm0-3.5H0v.875h.875V1.75zm0 1.75H0v.875h.875V3.5zm3.5 10.5h.875v-.875h-.875V14zm5.25 0h.875v-.875h-.875V14zm1.75 0h.875v-.875h-.875V14zm1.75-14H0v.875h13.125V14H14V0h-.875zm-5.25 14h.875v-.875h-.875V14zm-1.75 0H7v-.875h-.875V14zm-.172-8.428l-4.95 4.95 2.476 2.475 4.95-4.95-2.477-2.475zM0 14h2.625L0 11.375V14zm9.974-9.974c-.683-.684-1.79-.684-2.475 0l-.62.618L9.355 7.12l.62-.62c.684-.683.684-1.79 0-2.474z"/></svg>