<svg xmlns="http://www.w3.org/2000/svg" width="14" height="14" viewBox="0 0 14 14"><path opacity=".8" d="M4.375 1.75h-1.75c-.48 0-.875.394-.875.875v1.75c0 .48.394.875.875.875h1.75c.48 0 .875-.394.875-.875v-1.75c0-.48-.394-.875-.875-.875z"/><path d="M9.625 5.25h1.75c.48 0 .875-.394.875-.875v-1.75c0-.48-.395-.875-.875-.875h-1.75c-.48 0-.875.394-.875.875v1.75c0 .48.395.875.875.875zm0-2.625h1.75v1.75h-1.75v-1.75zM4.375 8.75h-1.75c-.48 0-.875.395-.875.875v1.75c0 .48.394.875.875.875h1.75c.48 0 .875-.395.875-.875v-1.75c0-.48-.394-.875-.875-.875zm0 2.625h-1.75v-1.75h1.75v1.75z"/><path opacity=".8" d="M11.375 8.75h-1.75c-.48 0-.875.395-.875.875v1.75c0 .48.395.875.875.875h1.75c.48 0 .875-.395.875-.875v-1.75c0-.48-.395-.875-.875-.875z"/><path d="M12.25 7h-.875c-1.168 0-2.268-.455-3.094-1.282C7.458 4.892 7 3.793 7 2.625V1.75C7 .788 6.212 0 5.25 0h-3.5C.788 0 0 .788 0 1.75v3.5C0 6.212.788 7 1.75 7h.875c1.168 0 2.267.455 3.093 1.28C6.545 9.108 7 10.208 7 11.376v.875c0 .965.788 1.75 1.75 1.75h3.5c.963 0 1.75-.785 1.75-1.75v-3.5C14 7.79 13.213 7 12.25 7zm.875 5.25c0 .23-.092.45-.258.617s-.386.258-.617.258h-3.5c-.23 0-.45-.092-.617-.258-.167-.166-.258-.386-.258-.617v-.875c0-2.9-2.35-5.25-5.25-5.25H1.75c-.232 0-.45-.09-.617-.258C.966 5.7.875 5.482.875 5.25v-3.5c0-.232.09-.45.258-.617.166-.167.385-.258.617-.258h3.5c.232 0 .45.09.617.258.167.166.258.385.258.617v.875c0 2.9 2.35 5.25 5.25 5.25h.875c.23 0 .45.09.617.258.166.166.258.386.258.617v3.5z"/></svg>