<svg xmlns="http://www.w3.org/2000/svg" width="14" height="14" viewBox="0 0 14 14"><path d="M13.223 2.334h-.778v-.778c0-.428-.35-.778-.778-.778H.777C.35.778 0 1.128 0 1.556v9.333c0 .424.35.773.778.773h.778v.777c0 .43.35.78.778.78h10.89c.427 0 .776-.35.776-.778v-9.33c0-.43-.35-.78-.777-.78zm-11.667.778v7.778H.78s-.002 0-.002-.002V1.556h10.888v.777H2.334c-.427 0-.777.35-.777.78zm11.667 9.33c0 .002 0 .002-.002.002H2.338V3.112h10.888v9.33z"/><path d="M11.666 5.056c0 .645-.52 1.167-1.166 1.167S9.334 5.7 9.334 5.056 9.854 3.89 10.5 3.89s1.166.522 1.166 1.166zm.778 6.61H3.11v-1.554l2.723-4.667 3.11 3.89h.78L12.443 7v4.667z"/></svg>