<svg xmlns="http://www.w3.org/2000/svg" width="14" height="14" viewBox="0 0 14 14"><path d="M10.676 3.685c-.084-.084-.18-.126-.285-.126-.02 0-.05 0-.1.01l-3.33.83L8.4.5c.026-.056.04-.107.04-.15 0-.097-.035-.18-.11-.25-.072-.068-.162-.1-.27-.1H5.3c-.09 0-.168.025-.236.076-.067.05-.112.114-.134.194L3.24 7.21c-.03.135.007.245.108.33.073.06.16.09.26.09.046 0 .08 0 .102-.007l3.416-.85L5.47 13.57c-.023.09-.01.175.037.253.047.08.12.132.214.16.06.01.1.017.12.017.17 0 .28-.07.36-.21l4.544-9.734c.06-.135.04-.26-.06-.37z"/></svg>