<svg xmlns="http://www.w3.org/2000/svg" width="14" height="14" viewBox="0 0 14 14"><path fill="#010101" d="M13.226 5.755L9.49 9.49c-1.03 1.032-2.704 1.032-3.735 0L4.51 8.246 5.755 7 7 8.245c.344.344.902.344 1.245 0L11.98 4.51c.344-.344.344-.902 0-1.246L10.735 2.02c-.343-.344-.902-.344-1.245 0L8.157 3.352c-.62-.364-1.32-.52-2.017-.473L8.245.773c1.032-1.03 2.704-1.03 3.735 0l1.245 1.245c1.033 1.03 1.033 2.702 0 3.734zm-7.383 4.892L4.51 11.98c-.344.345-.902.344-1.246 0L2.02 10.735c-.345-.343-.345-.9 0-1.244l3.735-3.734c.343-.343.902-.343 1.245 0L8.245 7 9.49 5.755 8.245 4.51c-1.032-1.032-2.704-1.032-3.735 0L.774 8.245c-1.032 1.032-1.032 2.704 0 3.735l1.245 1.245c1.03 1.032 2.702 1.032 3.734 0L7.86 11.12c-.696.047-1.397-.11-2.017-.473z"/></svg>