<svg xmlns="http://www.w3.org/2000/svg" width="14" height="14" viewBox="0 0 14 14"><path d="M13.227 5.755L9.49 9.49c-1.03 1.032-2.704 1.032-3.735 0L4.51 8.246 5.755 7 7 8.245c.344.344.902.344 1.245 0L11.98 4.51c.344-.344.344-.902 0-1.246L10.734 2.02c-.34-.344-.9-.344-1.244 0L8.157 3.352c-.62-.364-1.32-.52-2.017-.473L8.245.77C9.277-.26 10.95-.26 11.98.77l1.244 1.245c1.033 1.03 1.033 2.703 0 3.734l.003.002zm-7.384 4.892L4.51 11.98c-.344.345-.902.344-1.246 0L2.02 10.734c-.345-.34-.345-.9 0-1.243l3.735-3.73c.343-.342.902-.342 1.245 0L8.245 7 9.49 5.755 8.245 4.51c-1.032-1.032-2.704-1.032-3.735 0L.774 8.245c-1.032 1.032-1.032 2.704 0 3.735l1.245 1.244c1.03 1.032 2.7 1.032 3.73 0l2.11-2.104c-.697.047-1.398-.11-2.018-.473z"/></svg>
