<svg xmlns="http://www.w3.org/2000/svg" width="14" height="14" viewBox="0 0 14 14"><path opacity=".5" d="M0 3h14v8H0z"/><path d="M1.574 8.59c.273.168.672.31 1.093.31.623 0 .987-.33.987-.808 0-.44-.252-.693-.89-.938-.77-.273-1.247-.672-1.247-1.338 0-.735.61-1.28 1.527-1.28.483 0 .833.11 1.043.23l-.167.497c-.153-.084-.47-.224-.896-.224-.644 0-.89.38-.89.703 0 .44.288.658.94.91.798.308 1.204.693 1.204 1.386 0 .73-.54 1.36-1.653 1.36-.456 0-.953-.134-1.205-.3l.154-.51zm4.572.742l-1.54-4.72h.658L6 6.935c.202.638.377 1.212.503 1.765h.015c.132-.545.33-1.14.54-1.756l.797-2.333h.65L6.818 9.337h-.672zm6.462-.21c-.273.1-.813.26-1.45.26-.714 0-1.302-.183-1.765-.624-.406-.393-.658-1.023-.658-1.758.006-1.408.973-2.438 2.557-2.438.545 0 .973.12 1.176.217l-.146.492c-.252-.112-.568-.203-1.043-.203-1.15 0-1.9.714-1.9 1.9 0 1.2.72 1.904 1.82 1.904.4 0 .67-.057.81-.127V7.34h-.96v-.49h1.556v2.27z" fill="#FFF"/></svg>