<svg xmlns="http://www.w3.org/2000/svg" width="14" height="14" viewBox="0 0 14 14"><path d="M13.742 3.208l-.012-.012c-.34-.34-.894-.34-1.234 0l-.63.63L10.62 2.58l.63-.63c.34-.343.34-.896 0-1.235l-.013-.013c-.34-.34-.894-.34-1.234 0l-.66.66C8.485.796 7.32.89 6.566 1.642l-.342.345c-1.5 1.503-1.68 3.825-.534 5.523l-.057.056c-.86.86-.86 2.252-.004 3.114.17.172.17.46 0 .63s-.45.17-.62-.003l-1.24-1.232c-.87-.86-2.27-.877-3.13-.015-.87.86-.87 2.25-.01 3.11l.12.12c.342.34.895.34 1.235 0l.01-.01c.34-.348.34-.9 0-1.24l-.115-.115c-.17-.17-.18-.445-.015-.62.17-.18.457-.185.63-.01l1.23 1.23c.87.866 2.28.88 3.144.01.85-.86.85-2.25-.008-3.108-.174-.173-.177-.453-.004-.626l.06-.052c1.7 1.143 4.02.964 5.522-.536l.343-.34c.754-.754.847-1.92.28-2.774l.66-.66c.34-.343.34-.896 0-1.235zm-1.564 4.046c-.517.517-1.354.517-1.87 0L7.19 4.137c-.517-.517-.517-1.354 0-1.87.407-.408 1.014-.494 1.505-.26l-.576.577c-.34.34-.34.894 0 1.234l.01.012c.34.34.89.34 1.23 0l.63-.63 1.24 1.247-.63.63c-.34.34-.34.894 0 1.234l.01.02c.34.34.893.34 1.233 0l.575-.57c.235.49.15 1.1-.258 1.51z"/></svg>