<svg xmlns="http://www.w3.org/2000/svg" width="14" height="14" viewBox="0 0 14 14"><path d="M13.615 11.76l-3.212-3.213c-.48.745-1.11 1.378-1.856 1.856l3.213 3.212c.513.513 1.344.513 1.855 0 .513-.51.513-1.343 0-1.855zM10.5 5.25C10.5 2.35 8.15 0 5.25 0S0 2.35 0 5.25s2.35 5.25 5.25 5.25 5.25-2.35 5.25-5.25zM5.25 9.188c-2.17 0-3.938-1.766-3.938-3.938S3.08 1.313 5.25 1.313 9.188 3.08 9.188 5.25 7.42 9.188 5.25 9.188z"/><path d="M2.188 5.25h.875c0-1.206.98-2.188 2.188-2.188v-.874c-1.686 0-3.06 1.374-3.06 3.062z"/></svg>