<svg xmlns="http://www.w3.org/2000/svg" width="14" height="14" viewBox="0 0 14 14"><ellipse cx="161" cy="165" rx="2.24" ry="80"/><ellipse cx="161" cy="-35" rx="1.4" ry="50"/><ellipse cx="161" cy="365" rx="1.4" ry="50"/><path d="M158.03-11.777c.547 19.527.547 51.185 0 70.71s-1.434 19.527-1.98 0c-.546-19.525-.546-51.184 0-70.71.547-19.525 1.433-19.526 1.98 0z"/><path opacity=".89" d="M165.95 271.066c.546 19.526.546 51.185 0 70.71-.547 19.527-1.434 19.527-1.98 0-.547-19.526-.547-51.184 0-70.71s1.433-19.526 1.98 0z"/><ellipse opacity=".6" cx="155.4" cy="165" rx="1.399" ry="50"/><ellipse cx="166.6" cy="165" rx="1.4" ry="50"/><path d="M156.05 271.065c.547-19.526 1.434-19.524 1.98.002.547 19.525.547 51.183 0 70.71s-1.434 19.526-1.98 0-.546-51.184 0-70.712z"/><path opacity=".8" d="M163.97-11.776c.547-19.527 1.434-19.525 1.98 0 .546 19.526.546 51.183 0 70.71-.547 19.526-1.434 19.527-1.98 0s-.547-51.184 0-70.71z"/><path d="M161.168 39L161 35.242 160.832 39H161v46-46m-.168 251l.168 3.758.168-3.758H161v-46 46m2.604-210l-.044-6.9-.194-1.584.08 2.828-.912 32.527.08 2.83.91-32.524M158.396 249l.044 6.9.194 1.584-.08-2.828.912-32.527-.08-2.83-.91 32.524M164 170.5l.105-6-.105-6v4.5h-1v4h1m-7-8.5l-.104 6 .104 6V167h2v-4h-2m6.352 94.484l.193-1.585.045-6.9-.09 3.18-.91-32.53-.08 2.83.91 32.53m-4.8-183.496l-.193 1.585-.044 6.9.07-2.474.91 32.528.078-2.828-.91-32.528"/><circle cx="7" cy="7" r="2.24"/><circle cx="7" cy="1.4" r="1.4"/><circle cx="7" cy="12.6" r="1.4"/><circle cx="3.04" cy="3.04" r="1.4"/><circle opacity=".85" cx="10.96" cy="10.96" r="1.4"/><circle opacity=".6" cx="1.4" cy="7" r="1.4"/><circle cx="12.6" cy="7" r="1.4"/><circle cx="3.04" cy="10.96" r="1.4"/><circle opacity=".8" cx="10.96" cy="3.04" r="1.4"/><path d="M7 3.192l-.28.224h.14v1.4h.28v-1.4h.14M7 10.808l.28-.224h-.14v-1.4h-.28v1.4h-.14m2.972-6.277l-.356-.04.1.1-.99.99.198.198.99-.99.098.1M4.307 9.692l.357.04-.1-.1.99-.988-.198-.2-.99.992-.098-.1M10.808 7l-.224-.28v.14h-1.4v.28h1.4v.14M3.192 7l.224.28v-.14h1.4v-.28h-1.4v-.14m6.276 2.972l.04-.356-.1.1-.988-.99-.2.198.992.99-.1.098m-5.03-5.425l-.04.357.1-.1.99.99.2-.197-.99-.99.1-.1"/></svg>