<svg xmlns="http://www.w3.org/2000/svg" width="14" height="14" viewBox="0 0 14 14"><path d="M11.217 9.896c-.534 0-1.012.21-1.376.54L4.83 7.52c.036-.16.064-.324.064-.492s-.03-.33-.064-.492l4.956-2.888c.378.35.878.57 1.433.57 1.168 0 2.11-.94 2.11-2.11C13.326.943 12.384 0 11.216 0 10.05 0 9.11.942 9.11 2.107c0 .17.027.33.062.493L4.216 5.49c-.378-.35-.878-.57-1.432-.57-1.168 0-2.11.94-2.11 2.107 0 1.166.94 2.11 2.11 2.11.554 0 1.054-.22 1.432-.57L9.22 11.49c-.034.148-.056.303-.056.457 0 1.133.922 2.053 2.052 2.053s2.054-.92 2.054-2.053c0-1.132-.922-2.05-2.053-2.05z"/></svg>