<svg xmlns="http://www.w3.org/2000/svg" width="14" height="14" viewBox="0 0 14 14"><path d="M7 7.438c-.197 0-.396-.066-.56-.203-.372-.31-.42-.86-.112-1.232l4.375-5.25c.31-.37.86-.42 1.232-.11.37.308.422.86.11 1.23L7.67 7.123c-.17.207-.42.315-.67.315zm7-.875v.875c0 .484-.392.875-.875.875l-.875 5.25H1.75l-.875-5.25C.392 8.313 0 7.92 0 7.438v-.875c0-.483.392-.875.875-.875H6.02l-.028.035c-.464.556-.388 1.385.168 1.848.236.2.534.308.84.308.39 0 .758-.172 1.008-.472l1.43-1.716h3.688c.482 0 .874.39.874.875zM3.938 9.625c0-.24-.196-.438-.438-.438s-.437.197-.437.438v2.625c0 .242.196.438.438.438s.44-.195.44-.438V9.625zm1.75 0c0-.24-.196-.438-.438-.438s-.437.197-.437.438v2.625c0 .242.196.438.438.438s.44-.195.44-.438V9.625zm1.75 0c0-.24-.196-.438-.438-.438s-.437.197-.437.438v2.625c0 .242.196.438.438.438s.44-.195.44-.438V9.625zm1.75 0c0-.24-.195-.438-.438-.438s-.437.197-.437.438v2.625c0 .242.195.438.438.438s.44-.195.44-.438V9.625zm1.75 0c0-.24-.195-.438-.438-.438s-.438.196-.438.438v2.625c0 .242.195.438.438.438s.438-.195.438-.438V9.625z"/></svg>