<svg xmlns="http://www.w3.org/2000/svg" width="14" height="14" viewBox="0 0 14 14"><path d="M13.415 8.014c.053-.33.08-.67.08-1.014C13.495 3.412 10.587.504 7 .504c-.345 0-.684.028-1.014.08C5.388.214 4.682 0 3.926 0 1.756 0 0 1.757 0 3.925c0 .757.214 1.462.584 2.062-.05.33-.08.667-.08 1.013 0 3.587 2.91 6.494 6.495 6.494.34 0 .68-.026 1.01-.078.6.37 1.3.584 2.06.584 2.17 0 3.93-1.758 3.93-3.926 0-.757-.22-1.462-.59-2.06zm-3.332 1.94c-.274.395-.678.704-1.206.927s-1.152.34-1.874.34c-.864 0-1.58-.15-2.146-.45-.4-.22-.726-.51-.977-.88s-.377-.72-.377-1.07c0-.204.078-.384.23-.53.156-.146.355-.22.59-.22.193 0 .358.058.493.173.134.113.247.28.338.5.11.254.23.47.356.64.127.167.305.31.534.417.23.11.53.164.91.164.52 0 .938-.11 1.26-.333.322-.224.478-.495.478-.824 0-.262-.084-.47-.255-.632-.173-.16-.396-.29-.674-.374-.277-.09-.65-.184-1.12-.28-.627-.14-1.153-.3-1.58-.48S4.3 6.583 4.05 6.27c-.252-.32-.378-.72-.378-1.192 0-.45.133-.854.398-1.204.266-.352.65-.62 1.15-.81.5-.186 1.087-.28 1.76-.28.54 0 1.004.063 1.398.187.394.13.72.29.983.5.26.21.46.43.58.65.12.23.18.46.18.67 0 .21-.08.39-.23.55-.15.16-.35.25-.58.25-.2 0-.37-.05-.48-.15-.11-.1-.22-.25-.35-.47-.15-.3-.34-.53-.56-.7-.21-.16-.56-.25-1.05-.25-.45 0-.81.098-1.09.278-.27.184-.4.397-.4.647 0 .154.046.286.137.4.094.11.22.21.386.295.167.083.334.15.5.195.17.05.454.12.847.21.49.11.94.228 1.34.357.4.13.74.29 1.022.475.28.186.504.42.662.708.16.286.24.636.24 1.05 0 .493-.14.94-.415 1.334z"/></svg>