<svg xmlns="http://www.w3.org/2000/svg" width="14" height="14" viewBox="0 0 14 14"><path d="M4.39 1c1.09 0 1.598.545 1.598 1.598V4.39c0 1.09-.506 1.598-1.598 1.598H2.598C1.545 5.988 1 5.48 1 4.39V2.598C1 1.545 1.545 1 2.598 1H4.39zm7.012 0C12.454 1 13 1.545 13 2.598V4.39c0 1.09-.546 1.598-1.598 1.598H9.61c-1.09 0-1.598-.506-1.598-1.598V2.598C8.012 1.545 8.52 1 9.61 1h1.792zM4.39 8.013c1.09 0 1.598.507 1.598 1.598v1.794C5.988 12.454 5.48 13 4.39 13H2.598C1.545 13 1 12.454 1 11.402V9.61c0-1.09.545-1.597 1.598-1.597H4.39zm7.012 0C12.454 8.013 13 8.52 13 9.61v1.792C13 12.454 12.454 13 11.402 13H9.61c-1.09 0-1.598-.546-1.598-1.598V9.61c0-1.09.507-1.598 1.598-1.598h1.792z"/></svg>