<svg xmlns="http://www.w3.org/2000/svg" width="14" height="14" viewBox="0 0 14 14"><path opacity=".5" fill="#231F20" d="M6.952 1.766c-2.836 0-5.134 2.298-5.134 5.134 0 2.835 2.298 5.134 5.134 5.134 2.834 0 5.133-2.3 5.133-5.134 0-2.836-2.3-5.134-5.133-5.134zm.133 7.865c-1.518 0-2.75-1.23-2.75-2.74 0-1.52 1.23-2.75 2.75-2.75s2.75 1.23 2.75 2.75-1.23 2.75-2.75 2.75z"/><path d="M7 3.668C5.16 3.668 3.666 5.162 3.666 7s1.494 3.332 3.33 3.332c1.84 0 3.333-1.494 3.333-3.332 0-1.837-1.5-3.332-3.33-3.332zm0 5.666c-1.286 0-2.334-1.05-2.334-2.334 0-1.285 1.05-2.334 2.333-2.334 1.28 0 2.33 1.05 2.33 2.334 0 1.285-1.05 2.334-2.33 2.334z"/><path d="M13.732 5.678l-1.668-.255c-.09-.302-.22-.603-.37-.894.308-.43.644-.83.956-1.25.043-.07.07-.13.07-.21 0-.08-.016-.15-.063-.2-.38-.54-1.02-1.11-1.504-1.55-.063-.06-.145-.09-.23-.09-.08 0-.16.02-.216.08l-1.295.97c-.262-.14-.535-.25-.818-.34L8.338.27C8.322.12 8.174 0 8.008 0h-2.02c-.165 0-.292.108-.328.255-.146.547-.202 1.14-.264 1.696-.285.09-.566.21-.832.35l-1.256-.97c-.073-.05-.154-.09-.236-.09-.31 0-1.54 1.33-1.76 1.63-.045.07-.083.13-.083.22 0 .085.04.155.09.22.33.41.66.82.97 1.26-.15.275-.27.548-.36.84l-1.69.25c-.13.02-.24.186-.24.323V8c0 .152.11.3.26.326l1.662.246c.093.31.22.61.375.903-.31.43-.648.83-.958 1.25-.05.07-.08.13-.08.21 0 .07.02.15.06.21.382.53 1.02 1.1 1.502 1.53.066.07.148.108.23.108s.164-.025.228-.08l1.286-.977c.263.137.54.246.82.34l.256 1.674c.013.158.16.275.326.275H8c.167 0 .296-.11.33-.255.147-.544.2-1.14.265-1.694.28-.092.566-.21.83-.35l1.26.988c.072.048.154.083.236.083.31 0 1.54-1.345 1.76-1.636.06-.06.08-.12.08-.2s-.03-.162-.09-.23c-.34-.41-.66-.81-.97-1.26.14-.26.26-.533.36-.83l1.69-.25c.144-.025.25-.19.25-.326V6.01c0-.154-.11-.3-.265-.327zm-1.777 1.94l-.047.008-.604.09-.195.575c-.1.28-.18.48-.29.67l-.3.55.35.51c.02.03.03.05.05.07-.25.32-.54.61-.86.86l-.03-.02-.51-.4-.574.3c-.203.11-.43.2-.674.28l-.61.2-.07.64-.007.02c-.2.03-.4.04-.6.04-.204 0-.4-.01-.6-.032l-.01-.06-.095-.61-.58-.19c-.26-.084-.478-.174-.676-.275l-.56-.29-.5.383-.04.03c-.32-.25-.61-.53-.86-.85.01-.01.022-.023.03-.04l.37-.505-.294-.544c-.13-.244-.23-.486-.297-.72l-.183-.61-.63-.094-.043-.007C2.012 7.385 2 7.195 2 7c0-.208.02-.414.042-.618l.047-.006.62-.093.18-.598c.07-.218.16-.434.28-.667l.29-.543-.36-.505-.04-.056c.25-.315.53-.602.85-.85l.03.022.503.392.566-.295c.21-.11.444-.206.672-.28l.61-.197.07-.642.005-.023C6.59 2.02 6.79 2 7 2c.2 0 .4.017.594.04l.012.065.094.613.59.187c.244.082.463.17.664.273l.56.29.5-.38.046-.033c.32.247.608.532.856.847l-.033.045-.363.503.287.55c.133.245.232.49.303.72l.188.602.617.094.045.007c.023.193.037.387.037.583 0 .207-.015.412-.042.616z"/></svg>