<svg xmlns="http://www.w3.org/2000/svg" width="14" height="14" viewBox="0 0 14 14"><path d="M13.467 1.422H9.2c-.293 0-.703.17-.91.378L3 7.09c-.208.207-.208.547 0 .754l4.58 4.58c.207.206.545.206.753 0l5.29-5.29c.207-.21.377-.618.377-.912V1.955c0-.293-.24-.533-.533-.533zM10.8 5.688c-.59 0-1.066-.478-1.066-1.066 0-.59.478-1.066 1.066-1.066.59 0 1.067.477 1.067 1.066 0 .59-.477 1.066-1.067 1.066z"/><path d="M1.2 7.466l6.045-6.044h-.89c-.292 0-.702.17-.91.378L.155 7.09c-.207.207-.207.547 0 .754l4.58 4.58c.206.206.546.206.753 0l.334-.335-4.62-4.625z"/></svg>