<svg xmlns="http://www.w3.org/2000/svg" width="14" height="14" viewBox="0 0 14 14"><path d="M.93 3.94v-.985c0-.176.202-.488.21-.496C2.686.89 4.798 0 7.003 0c2.21 0 4.328.893 5.873 2.473.002 0 .195.308.195.482v.984c0 .36-.263.786-.586.95l-.14.065c-.32.162-.84.146-1.154-.03l-1.158-.662c-.313-.18-.574-.622-.574-.982v-.656c-1.518-.873-3.393-.872-4.912 0v.657c0 .36-.26.8-.574.983l-1.158.66c-.313.18-.833.195-1.157.033L1.52 4.89c-.326-.163-.59-.59-.59-.95zm12.195 5.685v3.5c0 .48-.393.875-.875.875H1.75c-.48 0-.875-.394-.875-.875v-3.5c0-.48.278-1.153.62-1.494l2.26-2.26c.342-.34 1.015-.62 1.495-.62v-.873C5.664 3.827 6.312 3.5 7 3.5s1.338.324 1.75.875v.875c.482 0 1.153.278 1.494.62l2.262 2.26c.34.342.62 1.014.62 1.495zm-3.5 0C9.625 8.175 8.45 7 7 7S4.375 8.175 4.375 9.625 5.55 12.25 7 12.25s2.625-1.175 2.625-2.625zM7 7.875c-.965 0-1.75.785-1.75 1.75s.785 1.75 1.75 1.75c.966 0 1.75-.785 1.75-1.75S7.966 7.875 7 7.875z"/></svg>