<svg xmlns="http://www.w3.org/2000/svg" width="14" height="14" viewBox="0 0 14 14"><path d="M5.25 11.375V4.958c0-.084-.027-.154-.082-.21-.055-.055-.125-.08-.21-.08h-.583c-.085 0-.155.026-.21.08-.056.055-.082.125-.082.21v6.417c0 .084.027.154.082.21.055.055.125.08.21.08h.583c.084 0 .155-.026.21-.08s.082-.125.082-.21zm2.333 0V4.958c0-.084-.027-.154-.082-.21-.05-.055-.12-.08-.21-.08h-.58c-.08 0-.15.026-.21.08-.05.055-.08.125-.08.21v6.417c0 .084.03.154.08.21.06.055.13.08.21.08h.59c.09 0 .16-.026.21-.08s.088-.125.088-.21zm2.334 0V4.958c0-.084-.027-.154-.082-.21-.055-.056-.124-.08-.21-.08H9.04c-.084 0-.156.026-.21.08-.057.055-.083.125-.083.21v6.417c0 .084.026.154.08.21.056.055.125.08.212.08h.58c.08 0 .15-.026.21-.08.05-.056.08-.125.08-.21zm-4.96-9.042h4.085l-.438-1.066c-.043-.054-.095-.088-.156-.1h-2.89c-.06.012-.112.045-.155.1l-.445 1.066zm8.46.292v.583c0 .085-.027.155-.082.21s-.124.082-.21.082h-.876v8.64c0 .505-.15.94-.43 1.31-.29.366-.63.55-1.03.55H3.21c-.4 0-.745-.178-1.03-.533-.285-.355-.428-.784-.428-1.29V3.5H.875c-.085 0-.155-.027-.21-.082-.055-.055-.082-.125-.082-.21v-.583c0-.084.027-.155.082-.21.055-.055.125-.082.21-.082H3.69L4.33.81c.09-.224.254-.415.49-.573C5.06.08 5.3 0 5.54 0h2.92c.243 0 .482.08.72.237.237.158.4.35.493.574l.638 1.53h2.82c.09 0 .16.03.21.08.06.06.09.13.09.21z"/></svg>