<svg xmlns="http://www.w3.org/2000/svg" width="14" height="14" viewBox="0 0 14 14"><path d="M13.992 3.497c.02.08 0 .172-.06.274l-1.677 2.5c-.06.1-.162.15-.305.15-.06 0-.11-.01-.152-.03l-1.34-.303v5.91c0 .203-.112.305-.336.305H3.574c-.203 0-.305-.1-.305-.304v-5.91l-1.22.306c-.14.062-.255.02-.336-.12L.04 3.77C0 3.69-.01 3.61.01 3.528c.02-.1.08-.173.183-.213L3.573 1.7H5.16c.203 0 .305.102.305.305 0 .304.167.563.502.776.335.216.68.32 1.036.32s.707-.103 1.053-.32c.344-.21.517-.47.517-.774 0-.203.102-.304.304-.304h1.585l3.35 1.585c.1.04.162.112.182.213z"/></svg>