<svg xmlns="http://www.w3.org/2000/svg" width="14" height="14" viewBox="0 0 14 14"><path d="M12.414 6.465c.786-.065 1.32-.422 1.524-.907-.283.174-1.164.364-1.65.183-.023-.11-.05-.22-.076-.32-.37-1.36-1.64-2.453-2.97-2.32.11-.043.218-.083.326-.12.146-.052 1.005-.192.87-.495-.114-.266-1.163.202-1.36.263.26-.097.692-.266.738-.565-.4.055-.792.244-1.094.52.11-.12.192-.26.21-.417-1.065.68-1.688 2.053-2.19 3.384-.397-.385-.747-.686-1.06-.854-.884-.472-1.938-.966-3.594-1.58-.05.548.27 1.276 1.198 1.76-.2-.027-.568.033-.862.104.12.627.51 1.144 1.568 1.394-.483.033-.733.143-.96.38.22.437.758.95 1.725.845-1.075.46-.44 1.32.435 1.19-1.49 1.54-3.842 1.43-5.192.14 3.525 4.803 11.188 2.84 12.33-1.787.855.008 1.358-.296 1.67-.63-.493.082-1.207-.004-1.586-.162z"/></svg>