<svg xmlns="http://www.w3.org/2000/svg" width="14" height="14" viewBox="0 0 14 14"><path d="M10.05 11.088c-.26-.04-.266-.747-.266-.747s.76-.745.927-1.75c.448 0 .724-1.07.277-1.444.02-.396.574-3.106-2.236-3.106S6.496 6.75 6.514 7.144c-.446.375-.17 1.444.276 1.444.164 1.004.925 1.75.925 1.75s-.006.707-.265.748c-.833.132-3.95 1.494-3.95 2.99H14c0-1.496-3.116-2.858-3.95-2.99zm-5.346.238c.603-.37 1.334-.715 1.935-.922-.217-.307-.458-.724-.608-1.218-.21-.17-.382-.416-.492-.718-.11-.303-.15-.64-.117-.953.025-.225.09-.433.187-.617-.06-.637-.102-1.888.717-2.8.317-.354.72-.607 1.2-.76C7.44 2.45 6.99 1.412 5.25 1.412c-2.81 0-2.255 2.71-2.237 3.106-.446.374-.17 1.442.276 1.442.164 1.005.925 1.752.925 1.752s-.006.708-.265.75C3.118 8.592 0 9.956 0 11.45h4.506c.065-.042.13-.084.198-.126z"/></svg>