<svg xmlns="http://www.w3.org/2000/svg" width="14" height="14" viewBox="0 0 14 14"><path d="M11.953.936C10.007.873 8.69 1.964 8 4.212c.355-.146.7-.22 1.037-.22.71 0 1.024.398.94 1.197-.042.48-.355 1.183-.94 2.11-.587.922-1.025 1.384-1.317 1.384-.378 0-.722-.715-1.037-2.143-.105-.42-.293-1.49-.563-3.213C5.867 1.73 5.198.987 4.11 1.09c-.46.043-1.15.464-2.07 1.26C1.37 2.96.69 3.57 0 4.18l.658.85c.63-.442.996-.66 1.098-.66.482 0 .932.757 1.35 2.27.375 1.386.754 2.772 1.13 4.16.563 1.51 1.255 2.27 2.07 2.27 1.316 0 2.93-1.24 4.832-3.72 1.84-2.374 2.79-4.244 2.854-5.61.085-1.827-.595-2.76-2.04-2.804z"/></svg>