<svg xmlns="http://www.w3.org/2000/svg" width="14" height="14" viewBox="0 0 14 14"><path d="M13.99 2.13h-2.894l-.206.036v.278c0 .033.1.06.126.08.025.023.097.035.126.035l.262.01c.298.012.39.08.504.185.114.112.133.303.044.572l-2.558 6.68-.098-.03L7.67 6.324l.038-.086L9.038 3.5c.155-.287.305-.545.38-.665.14-.22.208-.262.587-.28.077 0 .106-.04.106-.116v-.277l-.02-.03s-1.59-.005-2.31 0v.307c0 .035-.02.06.008.08.027.024.04.035.068.035l.108.014c.3.015.43.1.47.153.07.096.106.198-.065.608L7.34 5.576l-.927-2.08c-.304-.665-.378-.87.08-.91l.122-.028c.088 0 .075-.035.075-.1v-.29l-.01-.025H4.21l-.01.028v.292c0 .065.065.082.185.1.43.062.42.11.844 1.034l.25.556.96 2.083.28.683-1.4 3.074-.08-.023S3.066 4.922 2.436 3.24c-.066-.175-.095-.305-.095-.385 0-.17.14-.264.425-.277l.428-.015c.088 0 .23-.037.23-.113v-.277l-.127-.028S.63 2.142.09 2.145L0 2.173v.29c0 .053.07.086.19.1.332.02.555.078.66.175.103.098.216.344.362.73.792 2.087 2.474 5.813 3.292 7.937.235.58.533.67.892-.02.37-.753 1.116-2.427 1.66-3.662.51 1.232 1.204 2.9 1.538 3.655.267.604.57.664.88.02.805-1.97 3.16-7.894 3.16-7.894.102-.29.243-.515.427-.677.187-.16.457-.252.837-.27.078 0 .107-.038.107-.114v-.277l-.01-.036z"/></svg>