<svg xmlns="http://www.w3.org/2000/svg" width="14" height="14" viewBox="0 0 14 14"><path d="M0 7c0 3.866 3.134 7 7 7 3.865 0 7-3.134 7-7 0-3.865-3.135-7-7-7-3.866 0-7 3.135-7 7zm.54 0c0-.937.202-1.825.56-2.63l3.082 8.444C2.026 11.768.54 9.557.54 7zM7 13.46c-.634 0-1.247-.092-1.825-.262l1.94-5.632 1.985 5.44c.013.032.028.06.045.088-.67.237-1.393.366-2.145.366zm5.22-6.58c.37-.923.493-1.66.493-2.315 0-.238-.016-.458-.045-.665.505.92.792 1.976.792 3.1 0 2.384-1.292 4.464-3.212 5.584L12.22 6.88zm-1.39-1.99c.245.43.533.983.533 1.782 0 .553-.164 1.25-.49 2.09l-.646 2.15-2.337-6.94c.39-.02.74-.06.74-.06.348-.042.306-.552-.04-.533 0 0-1.048.082-1.724.082-.635 0-1.7-.083-1.7-.083-.35-.02-.39.512-.042.532 0 0 .33.04.68.062L6.807 6.73l-1.413 4.24-2.354-7c.39-.02.74-.06.74-.06.35-.042.307-.553-.04-.533 0 0-1.046.083-1.722.083-.12 0-.263-.003-.415-.007C2.758 1.698 4.743.54 7 .54c1.682 0 3.213.644 4.362 1.697-.027-.002-.056-.005-.083-.005-.638 0-1.087.552-1.087 1.146 0 .532.307.982.634 1.514z"/></svg>