<svg xmlns="http://www.w3.org/2000/svg" width="14" height="14" viewBox="0 0 14 14"><path d="M13.478 2.264L12.12 3.622l-.87.836c-.454.035-.905-.14-1.254-.453-.315-.348-.488-.8-.455-1.254l2.2-2.224c.036-.035.036-.104 0-.14 0-.034 0-.034-.035-.034-.49-.213-1.014-.35-1.57-.35C8.01 0 6.27 1.74 6.27 3.866c0 .417.07.8.21 1.15l-4.04 4.04C1.078 9.09 0 10.166 0 11.526S1.114 14 2.473 14s2.438-1.08 2.472-2.438l4.04-4.04c.348.14.732.21 1.15.21C12.26 7.73 14 5.99 14 3.865c0-.557-.14-1.08-.35-1.567v-.036h-.034c-.035-.035-.105-.035-.138 0zm-9.96 9.262c0 .558-.487 1.01-1.044 1.01s-1.01-.452-1.01-1.01.453-1.044 1.01-1.044 1.045.487 1.045 1.044z"/></svg>