<svg xmlns="http://www.w3.org/2000/svg" width="14" height="14" viewBox="0 0 14 14"><circle cx="9.735" cy="3.648" r="3.648"/><path opacity=".5" fill="#FFF" d="M7.25 5.04c-.236-.418-.382-.895-.382-1.41C6.868 2.035 8.16.743 9.756.743c.36 0 .706.06 1 .194-1.978.147-3.54 1.795-3.54 3.81.02.077.05.195.05.293H7.25z"/><path d="M11.318 7.275c.1.412.176.825.176 1.295 0 3-2.43 5.43-5.43 5.43C3.066 14 .616 11.59.616 8.59c0-2.923 2.31-5.306 5.204-5.423-.02.158-.03.32-.03.483 0 2.177 1.766 3.942 3.942 3.942.578-.002 1.12-.12 1.592-.317h-.006z"/><path opacity=".5" fill="#FFF" d="M2.1 9.78c0 .41.06.765.12 1.163-.43-.69-.678-1.502-.678-2.372 0-2.1 1.44-3.86 3.385-4.354.03.235.06.47.118.71-1.736.9-2.958 2.724-2.958 4.855H2.1z"/></svg>