<svg xmlns="http://www.w3.org/2000/svg" width="109" height="29" viewBox="0 0 109 29"><path d="M20.036 13.194l3.736-3.716-8.41-8.368L1 15.393l3.74 3.716L15.363 8.54m14.897 1.57L19.638 20.673l-4.673-4.65-3.737 3.717 8.41 8.37L34 13.825m4 6.365V8.313h1.612v5.09h2.822v-5.09h1.612v11.88h-1.612v-5.516h-2.822v5.516H38zm9.87.122c-.39 0-.73-.07-1.017-.212-.288-.142-.517-.327-.687-.554-.17-.23-.307-.52-.413-.877-.104-.36-.177-.71-.217-1.07-.04-.36-.064-.77-.072-1.25-.012-.37-.012-.75 0-1.12.013-.44.04-.84.085-1.18.04-.35.12-.68.23-1 .1-.32.25-.59.42-.8.17-.21.4-.38.68-.5s.61-.19.99-.19c.34 0 .64.05.91.14s.48.24.65.43c.17.19.32.4.43.64.11.23.2.52.26.85.06.33.1.66.12.98.02.32.03.69.03 1.11v.2h-3.22v.69c-.01.16-.01.33-.01.51l.02.51c.01.16.03.32.07.47.03.15.08.28.14.4.05.11.13.2.23.27.09.06.21.1.35.1.16 0 .3-.04.41-.11.11-.07.19-.17.24-.31s.09-.27.11-.41.03-.31.04-.52v-.35h1.6v.34c-.04.9-.25 1.59-.64 2.05-.39.462-.98.695-1.78.695zm-.793-5.212h1.6v-.51c-.004-.226-.017-.422-.038-.59s-.06-.335-.11-.503-.14-.296-.25-.385c-.11-.088-.25-.132-.41-.132-.17 0-.3.046-.42.14-.11.092-.2.226-.25.4-.05.174-.09.346-.11.514s-.03.37-.04.604v.462zm4.396 5.09V8.313h1.612v11.88h-1.612zm3.12-9.757V8.736h1.61v1.697h-1.61zm0 9.758v-8.48h1.61v8.49h-1.61zm4.307.13c-.354 0-.637-.13-.852-.39-.213-.26-.32-.59-.32-.97v-7.24h1.612v6.72c0 .18.052.32.154.43.103.11.235.17.4.17.088 0 .175-.01.257-.03.09-.02.17-.06.25-.11.09-.05.15-.1.2-.13.05-.03.11-.09.2-.17.09-.08.14-.13.16-.14v-6.72h1.61v8.48h-1.61v-.92l-.35.32c-.07.07-.18.16-.33.27-.15.12-.28.2-.4.25s-.26.09-.43.14c-.17.04-.35.06-.53.06zm5.065-.12v-8.49h1.613v.96c.574-.72 1.244-1.08 2.008-1.08.387 0 .67.09.852.27.18.18.3.46.365.85.264-.36.55-.64.855-.83.307-.19.693-.28 1.16-.28.135 0 .254.02.36.05.108.03.202.07.282.11s.148.1.21.19c.062.08.112.15.15.22.04.07.075.17.103.3s.047.23.06.32c.013.09.022.21.03.37.01.17.014.3.014.39v6.68h-1.613v-6.3c0-.15-.002-.26-.006-.34-.004-.08-.018-.17-.04-.27-.024-.1-.065-.18-.124-.223-.06-.05-.137-.073-.232-.073-.164 0-.328.036-.492.105s-.29.13-.38.2c-.09.06-.204.15-.337.26v6.65H67.19v-6.56c0-.06-.008-.14-.02-.24-.017-.1-.036-.17-.062-.22-.025-.045-.064-.09-.12-.13-.054-.04-.12-.06-.2-.06-.396 0-.8.18-1.21.537v6.68h-1.613zm13.365 0V9.83h-2.016V8.32h5.645v1.51h-2.02V20.2h-1.61zm4.36 0V8.32h1.61v4.31c.238-.23.434-.41.586-.53.15-.12.36-.238.627-.346.266-.105.55-.16.854-.16.343 0 .622.133.837.398.213.26.32.59.32.97v7.23H84.91v-6.36c0-.294-.034-.508-.103-.645-.068-.137-.22-.205-.45-.205-.327 0-.68.17-1.058.5v6.72h-1.61zm8.527.13c-.39 0-.73-.07-1.016-.21-.28-.14-.51-.32-.68-.55-.17-.23-.3-.52-.41-.87-.1-.35-.17-.71-.21-1.06-.04-.35-.06-.77-.07-1.24-.01-.37-.01-.74 0-1.11.02-.44.04-.83.09-1.17.05-.34.12-.67.23-1 .11-.32.25-.59.43-.79.18-.2.41-.37.69-.5s.62-.19 1-.19c.35 0 .65.05.91.15s.48.24.66.43c.18.196.32.41.44.64s.21.52.27.856c.06.335.1.663.12.986.03.326.04.698.04 1.118v.2h-3.23v.7c0 .166-.01.33 0 .51l.03.51c.01.17.03.327.07.48.04.154.084.287.14.4.054.117.13.207.23.27.1.07.214.1.35.1.17 0 .31-.03.415-.1.11-.07.19-.17.24-.31s.09-.276.11-.41c.02-.14.034-.31.04-.52v-.36h1.6v.34c-.04.9-.25 1.59-.64 2.053-.385.46-.98.69-1.78.69zm-.793-5.21h1.6v-.51c-.004-.22-.016-.42-.037-.59s-.06-.33-.11-.5c-.054-.17-.134-.29-.243-.38s-.244-.13-.402-.13c-.164 0-.303.05-.412.14-.11.09-.193.23-.246.4-.053.18-.09.35-.11.52-.02.17-.034.37-.038.61v.46zm4.39 5.09v-8.49h1.613v.96c.574-.72 1.244-1.08 2.008-1.08.39 0 .672.09.852.27s.303.47.365.85c.266-.36.55-.64.857-.83.3-.19.69-.28 1.15-.28.13 0 .25.02.36.05.1.03.2.07.28.11s.15.1.21.18c.06.08.11.16.15.23.04.07.07.17.1.3s.05.24.06.32c.01.09.02.21.03.37.01.17.01.3.01.39v6.68h-1.62v-6.3c0-.14-.01-.26-.01-.34-.01-.08-.02-.17-.04-.27-.03-.1-.07-.18-.13-.23-.06-.04-.14-.07-.24-.07-.17 0-.33.04-.49.11-.17.07-.29.14-.39.2-.09.06-.2.15-.34.27v6.64H97v-6.56c0-.06-.01-.15-.023-.24s-.03-.18-.06-.23c-.02-.05-.06-.09-.12-.13-.05-.04-.12-.06-.2-.06-.392 0-.8.18-1.21.535v6.68h-1.6zm11.754.13c-.39 0-.73-.07-1.018-.21-.287-.14-.516-.32-.686-.55-.17-.23-.31-.52-.412-.87-.107-.36-.178-.71-.22-1.07-.038-.35-.062-.77-.07-1.24-.013-.37-.013-.74 0-1.11.013-.44.04-.83.085-1.17.043-.35.12-.68.23-1 .107-.33.25-.59.424-.8.18-.21.41-.37.69-.5s.62-.19.99-.19c.35 0 .65.05.91.15.27.1.48.24.66.43.18.2.32.41.44.64.12.24.21.52.27.86.06.33.1.66.12.984.03.32.04.693.04 1.113V16h-3.22v.69c-.01.17-.01.335 0 .51l.03.52c.01.17.04.324.07.48s.09.283.14.4c.06.113.13.203.23.27.1.07.22.1.35.1.17 0 .31-.03.42-.1.11-.07.19-.17.24-.31.06-.14.09-.276.11-.41s.04-.31.04-.52v-.36h1.6v.34c-.04.9-.25 1.59-.63 2.05-.38.466-.98.7-1.78.7zm-.793-5.21h1.6v-.51c-.004-.22-.018-.42-.04-.59-.02-.16-.056-.33-.108-.5s-.133-.29-.242-.38-.244-.13-.402-.13c-.164 0-.303.05-.412.14-.11.09-.19.23-.24.4-.05.18-.09.35-.11.52s-.03.37-.03.61v.46z"/></svg>